<svg fill="none" height="300" viewBox="0 0 1600 300" width="1600" xmlns="http://www.w3.org/2000/svg" xmlns:xlink="http://www.w3.org/1999/xlink"><linearGradient id="a" gradientUnits="userSpaceOnUse" x1="800" x2="800" y1="241.985" y2="14.0001"><stop offset="0" stop-color="#61c2ff" stop-opacity="0"/><stop offset="1" stop-color="#005494"/></linearGradient><linearGradient id="b" gradientUnits="userSpaceOnUse" x1="744.619" x2="846.365" y1="203.563" y2="203.563"><stop offset=".36" stop-color="#83ffff"/><stop offset="1" stop-color="#00b8d4"/></linearGradient><linearGradient id="c" gradientUnits="userSpaceOnUse" x1="807.547" x2="810.215" y1="203.02" y2="212.975"><stop offset=".31" stop-color="#204b9d"/><stop offset="1" stop-color="#00b8d4"/></linearGradient><linearGradient id="d" gradientUnits="userSpaceOnUse" x1="746.776" x2="844.189" y1="187.195" y2="187.195"><stop offset="0" stop-color="#fff"/><stop offset=".19" stop-color="#f7fcff"/><stop offset=".47" stop-color="#e2f4ff"/><stop offset=".81" stop-color="#c0e7ff"/><stop offset="1" stop-color="#aadeff"/></linearGradient><linearGradient id="e" gradientUnits="userSpaceOnUse" x1="862.909" x2="948.539" y1="184.423" y2="134.984"><stop offset="0" stop-color="#a2fcfe"/><stop offset=".13" stop-color="#a0f9fc" stop-opacity=".98"/><stop offset=".25" stop-color="#9af1f8" stop-opacity=".94"/><stop offset=".38" stop-color="#8fe3f0" stop-opacity=".86"/><stop offset=".5" stop-color="#81cfe5" stop-opacity=".75"/><stop offset=".63" stop-color="#6eb6d7" stop-opacity=".6"/><stop offset=".75" stop-color="#5796c6" stop-opacity=".43"/><stop offset=".88" stop-color="#3d72b2" stop-opacity=".22"/><stop offset=".99" stop-color="#204b9d" stop-opacity="0"/></linearGradient><linearGradient id="f"><stop offset="0" stop-color="#fff"/><stop offset=".19" stop-color="#fbfdff"/><stop offset=".38" stop-color="#eff7ff"/><stop offset=".58" stop-color="#dbecff"/><stop offset=".77" stop-color="#bedeff"/><stop offset=".96" stop-color="#9acbff"/><stop offset=".99" stop-color="#94c8ff"/></linearGradient><linearGradient id="g" gradientUnits="userSpaceOnUse" x1="861.57" x2="949.823" xlink:href="#f" y1="113.804" y2="202.057"/><linearGradient id="h" gradientUnits="userSpaceOnUse" x1="325282" x2="311900" xlink:href="#f" y1="58473.8" y2="36042.2"/><linearGradient id="i" gradientUnits="userSpaceOnUse" x1="790.179" x2="929.273" y1="261.024" y2="261.024"><stop offset="0" stop-color="#a2fcfe"/><stop offset=".02" stop-color="#a0f9fc" stop-opacity=".98"/><stop offset=".05" stop-color="#9af1f8" stop-opacity=".94"/><stop offset=".07" stop-color="#8fe3f0" stop-opacity=".86"/><stop offset=".09" stop-color="#81cfe5" stop-opacity=".75"/><stop offset=".12" stop-color="#6eb6d7" stop-opacity=".6"/><stop offset=".14" stop-color="#5796c6" stop-opacity=".43"/><stop offset=".16" stop-color="#3d72b2" stop-opacity=".22"/><stop offset=".19" stop-color="#204b9d" stop-opacity="0"/></linearGradient><linearGradient id="j" gradientUnits="userSpaceOnUse" x1="819.19" x2="899.075" xlink:href="#f" y1="220.774" y2="300.658"/><linearGradient id="k" gradientUnits="userSpaceOnUse" x1="585.225" x2="762.929" y1="226.548" y2="226.548"><stop offset=".59" stop-color="#204b9d" stop-opacity="0"/><stop offset="1" stop-color="#a2fcfe"/></linearGradient><linearGradient id="l" gradientUnits="userSpaceOnUse" x1="365696" x2="481787" xlink:href="#f" y1="168442" y2="354562"/><linearGradient id="m"><stop offset="0" stop-color="#2b4a96"/><stop offset=".13" stop-color="#365aa0" stop-opacity=".78"/><stop offset=".32" stop-color="#446ead" stop-opacity=".5"/><stop offset=".51" stop-color="#4f7eb7" stop-opacity=".28"/><stop offset=".69" stop-color="#5789be" stop-opacity=".13"/><stop offset=".86" stop-color="#5b90c3" stop-opacity=".03"/><stop offset="1" stop-color="#5d92c4" stop-opacity="0"/></linearGradient><linearGradient id="n" gradientUnits="userSpaceOnUse" x1="879.118" x2="860.526" xlink:href="#m" y1="248.965" y2="265.823"/><linearGradient id="o" gradientUnits="userSpaceOnUse" x1="895.733" x2="944.869" y1="177.136" y2="262.242"><stop offset="0" stop-color="#fff"/><stop offset=".13" stop-color="#fff" stop-opacity=".98"/><stop offset=".26" stop-color="#fff" stop-opacity=".94"/><stop offset=".39" stop-color="#feffff" stop-opacity=".85"/><stop offset=".53" stop-color="#fefeff" stop-opacity=".74"/><stop offset=".66" stop-color="#fdfeff" stop-opacity=".6"/><stop offset=".8" stop-color="#fcfdfe" stop-opacity=".42"/><stop offset=".94" stop-color="#fbfcfe" stop-opacity=".21"/><stop offset="1" stop-color="#fbfcfe" stop-opacity=".1"/></linearGradient><linearGradient id="p" gradientUnits="userSpaceOnUse" x1="888.301" x2="937.437" y1="181.427" y2="266.533"><stop offset="0" stop-color="#fff"/><stop offset=".06" stop-color="#fcfdff" stop-opacity=".99"/><stop offset=".13" stop-color="#f1f5ff" stop-opacity=".97"/><stop offset=".19" stop-color="#e0e9ff" stop-opacity=".93"/><stop offset=".26" stop-color="#c7d9ff" stop-opacity=".88"/><stop offset=".32" stop-color="#a8c3ff" stop-opacity=".81"/><stop offset=".39" stop-color="#82a9ff" stop-opacity=".73"/><stop offset=".45" stop-color="#558aff" stop-opacity=".63"/><stop offset="1" stop-color="#fff"/></linearGradient><linearGradient id="q" gradientUnits="userSpaceOnUse" x1="901.522" x2="949.079" y1="218.984" y2="218.984"><stop offset="0" stop-color="#fff"/><stop offset=".14" stop-color="#fbfcff"/><stop offset=".29" stop-color="#eff4ff"/><stop offset=".43" stop-color="#dbe7ff"/><stop offset=".57" stop-color="#bed5ff"/><stop offset=".72" stop-color="#9abdff"/><stop offset=".86" stop-color="#6ea0ff"/><stop offset=".99" stop-color="#3f81ff"/></linearGradient><linearGradient id="r"><stop offset="0" stop-color="#fff"/><stop offset="1" stop-color="#bfdfff"/></linearGradient><linearGradient id="s" gradientUnits="userSpaceOnUse" x1="913.935" x2="847.805" xlink:href="#r" y1="251.383" y2="251.383"/><linearGradient id="t" gradientUnits="userSpaceOnUse" x1="911.66" x2="927.175" y1="242.509" y2="215.637"><stop offset="0" stop-color="#2dba2d" stop-opacity="0"/><stop offset=".21" stop-color="#2dba2d" stop-opacity=".02"/><stop offset=".36" stop-color="#2dba2d" stop-opacity=".06"/><stop offset=".49" stop-color="#2dba2d" stop-opacity=".15"/><stop offset=".61" stop-color="#2dba2d" stop-opacity=".27"/><stop offset=".72" stop-color="#2dba2d" stop-opacity=".42"/><stop offset=".83" stop-color="#2dba2d" stop-opacity=".61"/><stop offset=".93" stop-color="#2dba2d" stop-opacity=".83"/><stop offset=".99" stop-color="#2dba2d"/></linearGradient><linearGradient id="u" gradientUnits="userSpaceOnUse" x1="109582" x2="115515" xlink:href="#r" y1="38692.5" y2="37937.7"/><linearGradient id="v" gradientUnits="userSpaceOnUse" x1="829.809" x2="836.63" y1="259.188" y2="265.185"><stop offset="0" stop-color="#dbecff"/><stop offset=".01" stop-color="#aad3ff"/><stop offset=".99" stop-color="#94c8ff"/></linearGradient><linearGradient id="w" gradientUnits="userSpaceOnUse" x1="38172.9" x2="38172.9" xlink:href="#r" y1="21016.7" y2="20319.6"/><linearGradient id="x" gradientUnits="userSpaceOnUse" x1="830.014" x2="805.395" y1="259.718" y2="259.718"><stop offset="0" stop-color="#6aa9ff"/><stop offset=".99" stop-color="#d4e9ff"/></linearGradient><linearGradient id="y"><stop offset="0" stop-color="#2b4a96"/><stop offset=".98" stop-color="#5d92c4"/></linearGradient><linearGradient id="z" gradientUnits="userSpaceOnUse" x1="628.441" x2="611.847" xlink:href="#y" y1="188.7" y2="193.94"/><linearGradient id="A"><stop offset="0" stop-color="#006837"/><stop offset=".33" stop-color="#00b949"/><stop offset=".52" stop-color="#00b949"/><stop offset="1" stop-color="#006837"/></linearGradient><linearGradient id="B" gradientUnits="userSpaceOnUse" x1="630.222" x2="626.416" xlink:href="#A" y1="195.928" y2="183.874"/><linearGradient id="C" gradientUnits="userSpaceOnUse" x1="-8900.18" x2="-9581.72" xlink:href="#A" y1="7544" y2="6149.95"/><linearGradient id="D" gradientUnits="userSpaceOnUse" x1="17518.6" x2="17518.6" xlink:href="#A" y1="9274.61" y2="7210.18"/><linearGradient id="E" gradientUnits="userSpaceOnUse" x1="-15073.8" x2="-16475.3" xlink:href="#A" y1="5693.46" y2="3330.14"/><linearGradient id="F" gradientUnits="userSpaceOnUse" x1="-13881.7" x2="-14906.8" xlink:href="#A" y1="3903.91" y2="2259.94"/><linearGradient id="G" gradientUnits="userSpaceOnUse" x1="-20938.7" x2="-21858.5" xlink:href="#A" y1="4418.96" y2="3373.64"/><linearGradient id="H" gradientUnits="userSpaceOnUse" x1="-20495.2" x2="-21134.5" xlink:href="#A" y1="5436.63" y2="4841.14"/><linearGradient id="I" gradientUnits="userSpaceOnUse" x1="-2871.76" x2="-3190.59" xlink:href="#A" y1="-8572.27" y2="-8674.09"/><linearGradient id="J" gradientUnits="userSpaceOnUse" x1="-1321.7" x2="-1543.62" xlink:href="#A" y1="-4991.21" y2="-5098.97"/><linearGradient id="K" gradientUnits="userSpaceOnUse" x1="-3275.93" x2="-3651.72" xlink:href="#A" y1="-10258.9" y2="-10378.9"/><linearGradient id="L" gradientUnits="userSpaceOnUse" x1="-2044.15" x2="-2433.49" xlink:href="#A" y1="-5779.51" y2="-6008.39"/><linearGradient id="M" gradientUnits="userSpaceOnUse" x1="-1531.59" x2="-1811.71" xlink:href="#A" y1="-4992.96" y2="-5168"/><linearGradient id="N" gradientUnits="userSpaceOnUse" x1="-2906.22" x2="-3207.56" xlink:href="#A" y1="-3063.67" y2="-3329.8"/><linearGradient id="O" gradientUnits="userSpaceOnUse" x1="-2647.24" x2="-2870.85" xlink:href="#A" y1="-2144.64" y2="-2382.67"/><linearGradient id="P" gradientUnits="userSpaceOnUse" x1="212052" x2="312523" xlink:href="#r" y1="80447.4" y2="80447.4"/><linearGradient id="Q" gradientUnits="userSpaceOnUse" x1="45881.4" x2="49119.4" xlink:href="#r" y1="33712.5" y2="33712.5"/><linearGradient id="R" gradientUnits="userSpaceOnUse" x1="44958.5" x2="48511.7" xlink:href="#r" y1="34650.5" y2="34650.5"/><linearGradient id="S" gradientUnits="userSpaceOnUse" x1="39718.1" x2="42848.9" xlink:href="#r" y1="34131.9" y2="34131.9"/><linearGradient id="T" gradientUnits="userSpaceOnUse" x1="657.179" x2="657.179" y1="155.49" y2="135.411"><stop offset="0" stop-color="#2d702d"/><stop offset=".23" stop-color="#2d742d"/><stop offset=".46" stop-color="#2d802d"/><stop offset=".69" stop-color="#2d942d"/><stop offset=".92" stop-color="#2db02d"/><stop offset=".99" stop-color="#2dba2d"/></linearGradient><linearGradient id="U"><stop offset="0" stop-color="#7fc7ff"/><stop offset=".22" stop-color="#96d0fa"/><stop offset=".49" stop-color="#acd8f6"/><stop offset=".75" stop-color="#b9ddf3"/><stop offset="1" stop-color="#bddff2"/></linearGradient><linearGradient id="V" gradientUnits="userSpaceOnUse" x1="703.948" x2="737.405" xlink:href="#U" y1="230.905" y2="230.905"/><linearGradient id="W" gradientUnits="userSpaceOnUse" x1="68389.3" x2="73226" xlink:href="#U" y1="74548.9" y2="74548.9"/><linearGradient id="X" gradientUnits="userSpaceOnUse" x1="726.615" x2="726.615" y1="237.948" y2="221.657"><stop offset="0" stop-color="#7fc7ff"/><stop offset=".43" stop-color="#a5d8f8"/><stop offset=".78" stop-color="#bde3f4"/><stop offset="1" stop-color="#c6e7f2"/></linearGradient><linearGradient id="Y" gradientUnits="userSpaceOnUse" x1="94964.5" x2="105460" xlink:href="#r" y1="46202.5" y2="46202.5"/><linearGradient id="Z" gradientUnits="userSpaceOnUse" x1="718.909" x2="718.909" y1="244.155" y2="209.831"><stop offset="0" stop-color="#6ab8ff"/><stop offset=".09" stop-color="#78bffd"/><stop offset=".33" stop-color="#96cdf8"/><stop offset=".56" stop-color="#acd7f5"/><stop offset=".79" stop-color="#b9ddf3"/><stop offset="1" stop-color="#bddff2"/></linearGradient><linearGradient id="aa"><stop offset="0" stop-color="#94c8ff"/><stop offset=".99" stop-color="#94c8ff"/></linearGradient><linearGradient id="ab" gradientUnits="userSpaceOnUse" x1="892.781" x2="922.109" xlink:href="#aa" y1="138.385" y2="138.385"/><linearGradient id="ac" gradientUnits="userSpaceOnUse" x1="892.19" x2="922.492" y1="153.433" y2="123.129"><stop offset="0" stop-color="#94c8ff"/><stop offset=".15" stop-color="#94c8ff" stop-opacity=".93"/><stop offset=".19" stop-color="#94c8ff" stop-opacity=".84"/><stop offset=".32" stop-color="#94c8ff" stop-opacity=".62"/><stop offset=".44" stop-color="#94c8ff" stop-opacity=".43"/><stop offset=".56" stop-color="#94c8ff" stop-opacity=".28"/><stop offset=".68" stop-color="#94c8ff" stop-opacity=".16"/><stop offset=".79" stop-color="#94c8ff" stop-opacity=".07"/><stop offset=".9" stop-color="#94c8ff" stop-opacity=".02"/><stop offset="1" stop-color="#94c8ff" stop-opacity="0"/></linearGradient><linearGradient id="ad"><stop offset="0" stop-color="#89badb" stop-opacity="0"/><stop offset=".14" stop-color="#89badb" stop-opacity=".02"/><stop offset=".27" stop-color="#89badb" stop-opacity=".07"/><stop offset=".4" stop-color="#89badb" stop-opacity=".17"/><stop offset=".54" stop-color="#89badb" stop-opacity=".3"/><stop offset=".67" stop-color="#89badb" stop-opacity=".46"/><stop offset=".81" stop-color="#89badb" stop-opacity=".67"/><stop offset=".94" stop-color="#89badb" stop-opacity=".9"/><stop offset=".99" stop-color="#89badb"/></linearGradient><linearGradient id="ae" gradientUnits="userSpaceOnUse" x1="673.472" x2="650.374" xlink:href="#ad" y1="280.545" y2="240.539"/><linearGradient id="af" gradientUnits="userSpaceOnUse" x1="119636" x2="111924" xlink:href="#ad" y1="94508.5" y2="78800.9"/><linearGradient id="ag" gradientUnits="userSpaceOnUse" x1="125122" x2="117265" xlink:href="#ad" y1="93535" y2="77744.6"/><linearGradient id="ah" gradientUnits="userSpaceOnUse" x1="761.438" x2="741.718" y1="154.574" y2="100.394"><stop offset="0" stop-color="#a2fcfe"/><stop offset=".08" stop-color="#a0f9fc" stop-opacity=".98"/><stop offset=".15" stop-color="#9af1f8" stop-opacity=".94"/><stop offset=".22" stop-color="#8fe3f0" stop-opacity=".86"/><stop offset=".3" stop-color="#81cfe5" stop-opacity=".75"/><stop offset=".37" stop-color="#6eb6d7" stop-opacity=".6"/><stop offset=".45" stop-color="#5796c6" stop-opacity=".43"/><stop offset=".52" stop-color="#3d72b2" stop-opacity=".22"/><stop offset=".59" stop-color="#204b9d" stop-opacity="0"/></linearGradient><linearGradient id="ai" gradientUnits="userSpaceOnUse" x1="404556" x2="440507" xlink:href="#f" y1="48705" y2="122305"/><linearGradient id="aj" gradientUnits="userSpaceOnUse" x1="118451" x2="108356" xlink:href="#m" y1="18638.9" y2="18021.5"/><linearGradient id="ak" gradientUnits="userSpaceOnUse" x1="303674" x2="240968" xlink:href="#r" y1="37771.5" y2="37771.5"/><linearGradient id="al" gradientUnits="userSpaceOnUse" x1="735.187" x2="735.187" y1="112.99" y2="98.9355"><stop offset="0" stop-color="#5d92c4" stop-opacity=".2"/><stop offset="1" stop-color="#5d92c4" stop-opacity=".2"/></linearGradient><linearGradient id="am" gradientUnits="userSpaceOnUse" x1="736.327" x2="733.615" y1="112.991" y2="97.611"><stop offset=".01" stop-color="#004c94" stop-opacity=".4"/><stop offset=".09" stop-color="#497fb2" stop-opacity=".29"/><stop offset=".23" stop-color="#9ab8d5" stop-opacity=".16"/><stop offset=".39" stop-color="#d4e1ed" stop-opacity=".07"/><stop offset=".6" stop-color="#f5f8fb" stop-opacity=".02"/><stop offset=".99" stop-color="#fff" stop-opacity="0"/></linearGradient><linearGradient id="an" gradientUnits="userSpaceOnUse" x1="734.155" x2="734.155" y1="111.219" y2="98.222"><stop offset="0" stop-color="#5dedc4" stop-opacity=".9"/><stop offset=".15" stop-color="#54e3c9" stop-opacity=".91"/><stop offset=".38" stop-color="#3bc6d6" stop-opacity=".95"/><stop offset=".6" stop-color="#1aa0e8"/><stop offset=".65" stop-color="#1d9fe7" stop-opacity=".97"/><stop offset=".71" stop-color="#249ee3" stop-opacity=".88"/><stop offset=".79" stop-color="#309bdc" stop-opacity=".73"/><stop offset=".88" stop-color="#4198d3" stop-opacity=".53"/><stop offset=".97" stop-color="#5793c7" stop-opacity=".27"/><stop offset="1" stop-color="#5d92c4" stop-opacity=".2"/></linearGradient><linearGradient id="ao"><stop offset="0" stop-color="#5d92c4" stop-opacity=".9"/><stop offset="1" stop-color="#5d92c4" stop-opacity=".2"/></linearGradient><linearGradient id="ap" gradientUnits="userSpaceOnUse" x1="766.403" x2="766.403" xlink:href="#ao" y1="113.09" y2="107.555"/><linearGradient id="aq" gradientUnits="userSpaceOnUse" x1="34918.30000000001" x2="34918.30000000001" xlink:href="#ao" y1="3483.48" y2="3373.6"/><linearGradient id="ar" gradientUnits="userSpaceOnUse" x1="44534.6" x2="44534.6" xlink:href="#ao" y1="4374.65" y2="4175.07"/><linearGradient id="as" gradientUnits="userSpaceOnUse" x1="729.165" x2="729.165" y1="99.2405" y2="109.228"><stop offset="0" stop-color="#fff"/><stop offset=".47" stop-color="#fff" stop-opacity=".5"/><stop offset=".83" stop-color="#fff" stop-opacity=".14"/><stop offset=".99" stop-color="#fff" stop-opacity="0"/></linearGradient><linearGradient id="at" gradientUnits="userSpaceOnUse" x1="739.208" x2="739.208" y1="100.054" y2="110.042"><stop offset="0" stop-color="#fff"/><stop offset=".05" stop-color="#fff" stop-opacity=".82"/><stop offset=".1" stop-color="#fff" stop-opacity=".65"/><stop offset=".16" stop-color="#fff" stop-opacity=".49"/><stop offset=".22" stop-color="#fff" stop-opacity=".36"/><stop offset=".28" stop-color="#fff" stop-opacity=".25"/><stop offset=".36" stop-color="#fff" stop-opacity=".16"/><stop offset=".44" stop-color="#fff" stop-opacity=".09"/><stop offset=".54" stop-color="#fff" stop-opacity=".04"/><stop offset=".68" stop-color="#fff" stop-opacity=".01"/><stop offset=".99" stop-color="#fff" stop-opacity="0"/></linearGradient><linearGradient id="au" gradientUnits="userSpaceOnUse" x1="22149" x2="22578" xlink:href="#f" y1="20854.8" y2="21177.7"/><linearGradient id="av" gradientUnits="userSpaceOnUse" x1="742.141" x2="803.601" y1="296.822" y2="296.822"><stop offset="0" stop-color="#006cd4"/><stop offset=".6" stop-color="#b9d4ff"/><stop offset=".64" stop-color="#b1d0fd"/><stop offset=".71" stop-color="#9cc4f8"/><stop offset=".79" stop-color="#7ab1f0"/><stop offset=".88" stop-color="#4a96e5"/><stop offset=".98" stop-color="#0e74d7"/><stop offset="1" stop-color="#006cd4"/></linearGradient><linearGradient id="aw" gradientUnits="userSpaceOnUse" x1="769.072" x2="777.901" y1="314.963" y2="282.013"><stop offset="0" stop-color="#3fb1ff"/><stop offset=".01" stop-color="#41b2ff"/><stop offset=".16" stop-color="#68c1ff"/><stop offset=".31" stop-color="#89ceff"/><stop offset=".47" stop-color="#a2d8ff"/><stop offset=".63" stop-color="#b4dfff"/><stop offset=".8" stop-color="#bfe4ff"/><stop offset="1" stop-color="#c2e5ff"/></linearGradient><linearGradient id="ax" gradientUnits="userSpaceOnUse" x1="733.709" x2="806.541" y1="297.311" y2="297.311"><stop offset="0" stop-color="#fff"/><stop offset=".33" stop-color="#fdfeff"/><stop offset=".51" stop-color="#f5faff"/><stop offset=".64" stop-color="#e7f3ff"/><stop offset=".76" stop-color="#d4e9ff"/><stop offset=".87" stop-color="#bbdcff"/><stop offset=".96" stop-color="#9dcdff"/><stop offset=".99" stop-color="#94c8ff"/></linearGradient><linearGradient id="ay" gradientUnits="userSpaceOnUse" x1="907.045" x2="910.613" y1="114.605" y2="118.175"><stop offset="0" stop-color="#c2e5ff"/><stop offset=".29" stop-color="#bee2ff"/><stop offset=".58" stop-color="#b2dbff"/><stop offset=".87" stop-color="#9eceff"/><stop offset=".98" stop-color="#94c8ff"/></linearGradient><linearGradient id="az" gradientUnits="userSpaceOnUse" x1="-53077.7" x2="-55082.4" xlink:href="#A" y1="16378.8" y2="14337.7"/><linearGradient id="aA"><stop offset="0" stop-color="#006837"/><stop offset=".33" stop-color="#00b949"/></linearGradient><linearGradient id="aB" gradientUnits="userSpaceOnUse" x1="904.147" x2="897.795" xlink:href="#aA" y1="112.909" y2="101.907"/><linearGradient id="aC" gradientUnits="userSpaceOnUse" x1="-64340.2" x2="-62734.4" xlink:href="#aA" y1="15649.8" y2="14009.3"/><linearGradient id="aD" gradientUnits="userSpaceOnUse" x1="-47360.7" x2="-47878.3" xlink:href="#y" y1="21511.7" y2="21511.7"/><linearGradient id="aE" gradientUnits="userSpaceOnUse" x1="-27464.8" x2="-27464.8" xlink:href="#y" y1="14840.6" y2="12781"/><linearGradient id="aF" gradientUnits="userSpaceOnUse" x1="-41293.2" x2="-41687.7" xlink:href="#y" y1="9326.67" y2="9326.67"/><linearGradient id="aG" gradientUnits="userSpaceOnUse" x1="30554.8" x2="30554.8" xlink:href="#f" y1="7034.27" y2="7498"/><linearGradient id="aH" gradientUnits="userSpaceOnUse" x1="12589.5" x2="12589.5" xlink:href="#aa" y1="7029.73" y2="7492.81"/><linearGradient id="aI" gradientUnits="userSpaceOnUse" x1="910.47" x2="910.47" y1="145.251" y2="140.921"><stop offset="0" stop-color="#c7d9e8"/><stop offset=".26" stop-color="#c2d6ea"/><stop offset=".58" stop-color="#b2cdf1"/><stop offset=".94" stop-color="#99bffd"/><stop offset="1" stop-color="#94bcff"/></linearGradient><linearGradient id="aJ"><stop offset="0" stop-color="#fff"/><stop offset="1" stop-color="#fff" stop-opacity="0"/></linearGradient><linearGradient id="aK" gradientUnits="userSpaceOnUse" x1="918.047" x2="918.047" xlink:href="#aJ" y1="136.487" y2="148.322"/><linearGradient id="aL" gradientUnits="userSpaceOnUse" x1="-59081.3" x2="-59081.3" xlink:href="#aJ" y1="18057.8" y2="20575.7"/><linearGradient id="aM"><stop offset="0" stop-color="#61c2ff" stop-opacity="0"/><stop offset="1" stop-color="#83ffff"/></linearGradient><linearGradient id="aN" gradientUnits="userSpaceOnUse" x1="704.662" x2="719.793" xlink:href="#aM" y1="175.754" y2="175.754"/><linearGradient id="aO" gradientUnits="userSpaceOnUse" x1="1325.13" x2="1325.53" xlink:href="#aM" y1="26166" y2="26166"/><linearGradient id="aP" gradientUnits="userSpaceOnUse" x1="1348.49" x2="1438.17" xlink:href="#aM" y1="134152" y2="134152"/><linearGradient id="aQ" gradientUnits="userSpaceOnUse" x1="53300" x2="56215.1" xlink:href="#aM" y1="41259.2" y2="41259.2"/><linearGradient id="aR"><stop offset="0" stop-color="#62c3ff" stop-opacity=".02"/><stop offset=".01" stop-color="#68ceff" stop-opacity=".2"/><stop offset=".03" stop-color="#6ed9ff" stop-opacity=".37"/><stop offset=".05" stop-color="#73e2ff" stop-opacity=".52"/><stop offset=".06" stop-color="#77eaff" stop-opacity=".65"/><stop offset=".08" stop-color="#7bf0ff" stop-opacity=".76"/><stop offset=".1" stop-color="#7ef6ff" stop-opacity=".85"/><stop offset=".13" stop-color="#80faff" stop-opacity=".92"/><stop offset=".16" stop-color="#82fdff" stop-opacity=".97"/><stop offset=".2" stop-color="#83ffff" stop-opacity=".99"/><stop offset=".31" stop-color="#83ffff"/><stop offset="1" stop-color="#83ffff"/></linearGradient><linearGradient id="aS" gradientUnits="userSpaceOnUse" x1="735.948" x2="735.948" xlink:href="#aR" y1="239.993" y2="224.86"/><linearGradient id="aT" gradientUnits="userSpaceOnUse" x1="1384.34" x2="1384.34" xlink:href="#aR" y1="14297.8" y2="13920.2"/><linearGradient id="aU"><stop offset="0" stop-color="#61c2ff" stop-opacity="0"/><stop offset=".03" stop-color="#62c4ff" stop-opacity=".03"/><stop offset=".07" stop-color="#65c9ff" stop-opacity=".11"/><stop offset=".12" stop-color="#69d0ff" stop-opacity=".24"/><stop offset=".17" stop-color="#6fdbff" stop-opacity=".42"/><stop offset=".23" stop-color="#77e9ff" stop-opacity=".65"/><stop offset=".29" stop-color="#80faff" stop-opacity=".92"/><stop offset=".31" stop-color="#83ffff"/><stop offset=".66" stop-color="#83ffff"/><stop offset=".68" stop-color="#7df4ff" stop-opacity=".82"/><stop offset=".72" stop-color="#77e9ff" stop-opacity=".63"/><stop offset=".75" stop-color="#71deff" stop-opacity=".46"/><stop offset=".78" stop-color="#6cd6ff" stop-opacity=".32"/><stop offset=".82" stop-color="#68ceff" stop-opacity=".2"/><stop offset=".86" stop-color="#65c9ff" stop-opacity=".11"/><stop offset=".9" stop-color="#63c5ff" stop-opacity=".05"/><stop offset=".94" stop-color="#61c3ff" stop-opacity=".01"/><stop offset="1" stop-color="#61c2ff" stop-opacity="0"/></linearGradient><linearGradient id="aV" gradientUnits="userSpaceOnUse" x1="773.023" x2="794.262" xlink:href="#aU" y1="281.274" y2="281.274"/><linearGradient id="aW" gradientUnits="userSpaceOnUse" x1="98764.3" x2="103734" xlink:href="#aU" y1="35038.5" y2="35038.5"/><linearGradient id="aX" gradientUnits="userSpaceOnUse" x1="184144" x2="216207" xlink:href="#aU" y1="16425.9" y2="16425.9"/><linearGradient id="aY" gradientUnits="userSpaceOnUse" x1="1826.19" x2="1878.31" xlink:href="#aU" y1="50697.9" y2="50697.9"/><clipPath id="aZ"><path d="m0 0h1600v300h-1600z"/></clipPath><g clip-path="url(#aZ)"><path d="m0 0h1600v300h-1600z" fill="#ebeef2"/><path d="m539.207 241.985 652.793-4.261s-44.99-43.304-65.1-72.552c-19.24-27.99-31.02-31.647-45.28-21.417-16.58 11.89-23.21 20.656-32.83-1.906-9.42-22.068-45.41-109.27-100.764-45.8343-7.266 8.3283-14.559 24.3823-33.964-12.7572-31.238-59.7813-79.252-94.7265-126.21-46.7883-44.926 45.8622-29.035 55.6302-94.948 48.6546-22.465-2.378-38.129-23.9962-72.093-8.5399-20.847 9.4881-29.485 24.7691-44.399 56.3111-16.994 35.937-24.243-7.889-65.388-3.883-24.907 1.806-30.491 28.578-58.279 56.81-7.987 8.114-38.18 44.729-44.745 56.163z" fill="url(#a)" opacity=".1"/><path d="m728.543 310.456c-4.172-.012-8.326-.556-12.36-1.617-7.827-2.044-14.472-5.777-18.72-10.512l-102.932-119.257c-3.946-4.398-5.4-9.255-4.092-13.674.736-2.482 2.281-4.698 4.595-6.589 2.388-1.953 5.469-3.448 9.158-4.443l215.862-56.3907c6.818-1.8403 14.882-1.7289 22.703.314 7.822 2.0427 14.472 5.7767 18.721 10.5117l120.986 118.249c3.952 4.404 5.405 9.26 4.097 13.679-.735 2.483-2.281 4.699-4.594 6.59-2.389 1.952-5.47 3.447-9.159 4.443l-233.922 57.394c-3.223.869-6.723 1.302-10.343 1.302zm101.818-213.5754c-3.541 0-7.017.4144-10.256 1.2883l-215.861 56.3911c-3.66.987-6.717 2.469-9.084 4.404-2.28 1.864-3.805 4.047-4.528 6.491-1.287 4.349.151 9.138 4.051 13.483l102.93 119.257c8.72 9.717 27.211 14.549 41.22 10.764l233.925-57.394c3.66-.988 6.716-2.469 9.082-4.404 2.281-1.864 3.806-4.048 4.529-6.491 1.287-4.35-.15-9.138-4.051-13.484l-120.984-118.248c-6.71-7.475-19.194-12.0574-30.973-12.0574z" fill="#9ac8d8"/><path d="m744.619 195.987c.788-.545 1.667-.945 2.596-1.179l60.62-15.477c4.44-1.198 10.28.329 13.044 3.412l25.486 28.396c2.254-1.62 2.556-4.208.438-6.568l-25.924-28.889c-2.764-3.08-8.604-4.606-13.044-3.411l-60.62 15.475c-4.44 1.199-5.798 4.668-3.033 7.748z" fill="#9de2ed"/><path d="m783.15 227.795 60.625-15.476c.929-.234 1.808-.634 2.595-1.179l-25.486-28.396c-2.764-3.08-8.604-4.607-13.044-3.412l-60.625 15.48c-.929.234-1.808.634-2.596 1.179l25.486 28.401c2.765 3.076 8.605 4.602 13.045 3.403z" fill="url(#b)"/><path d="m840.062 205.578-55.979 14.293c-4.101 1.103-9.493-.301-12.047-3.148l-23.937-26.677c-1.595-1.778-1.266-7.239-1.266-10.061 0-1.112 2.53 3.321 4.068 2.91l55.98-14.292c4.1-1.104 9.493.301 12.046 3.147l25.262 23.008c0 2.608.057 5.853-.006 6.891-.107 1.728-1.555 3.238-4.121 3.929z" fill="#6ff"/><path d="m840.062 204.976-55.979 14.293c-4.101 1.103-9.493-.301-12.047-3.148l-23.937-26.677c-1.595-1.778-1.266-7.239-1.266-10.061 0-1.112 2.53 3.321 4.068 2.909l55.98-14.291c4.1-1.104 9.493.301 12.046 3.147l25.262 23.008c0 2.608.057 5.853-.006 6.891-.107 1.728-1.555 3.238-4.121 3.929z" fill="#204b9d"/><path d="m844.189 194.153-66.949 16.987-5.201 4.981c2.554 2.845 7.946 4.254 12.047 3.148l55.976-14.293c2.563-.691 4.014-2.201 4.114-3.932.063-1.038.006-4.287.006-6.891" fill="url(#c)"/><path d="m840.062 198.539-55.979 14.292c-4.101 1.104-9.493-.301-12.047-3.147l-23.94-26.678c-2.553-2.845-1.299-6.048 2.802-7.154l55.98-14.292c4.1-1.103 9.493.301 12.046 3.147l23.948 26.677c2.548 2.845 1.293 6.049-2.81 7.155z" fill="url(#d)"/><path clip-rule="evenodd" d="m786.136 181.585c.721-4.178 9.34-6.875 16.006-5.612 12.567 2.375 11.751 20.176-2.578 18.563-.354-.037-.702-.074-1.081-.138-4.758-.825-9.532-2.735-12.236-11.16-.193-.567-.18-1.117-.111-1.653z" fill="#1aa0e8" fill-rule="evenodd"/><path clip-rule="evenodd" d="m786.136 181.585c6.722-5.82 22.128-3.7 18.817 6.343-.784 2.332-2.8 4.891-5.39 6.612-1.869 1.247-4.075 2.042-6.321 1.969-5.356-.127-10.79-5.693-9.985-10.071.396-1.983 1.435-3.597 2.879-4.853z" fill="#0b63ce" fill-rule="evenodd"/><path d="m804.953 187.928c3.311-10.043-12.097-12.166-18.817-6.343-.069.535-.082 1.084.111 1.657 2.709 8.428 7.478 10.335 12.236 11.16.374.064.727.101 1.081.138 2.589-1.721 4.605-4.28 5.389-6.612z" fill="#134194"/><path d="m970.171 197.072-64.673 17.459c-3.311.894-7.667-.244-9.732-2.542l-56.756-54.477c-2.062-2.298-1.049-4.885 2.262-5.779l64.674-17.459c3.311-.894 7.667.245 9.733 2.542l56.757 54.477c2.061 2.298 1.048 4.886-2.265 5.779z" fill="#000" opacity=".1"/><path d="m970.172 182.375-64.672 17.459c-3.312.894-7.668-.245-9.733-2.542l-56.756-54.477c-2.062-2.298-1.049-4.886 2.262-5.779l64.674-17.459c3.311-.894 7.667.244 9.733 2.542l56.757 54.477c2.061 2.298 1.048 4.885-2.265 5.779z" fill="#204b9d"/><path d="m970.172 182.375-64.672 17.459c-3.312.894-7.668-.245-9.733-2.542l-56.756-54.477c-2.062-2.298-1.049-4.886 2.262-5.779l64.674-17.459c3.311-.894 7.667.244 9.733 2.542l56.757 54.477c2.061 2.298 1.048 4.885-2.265 5.779z" fill="url(#e)"/><path d="m970.145 180.602-64.674 17.459c-3.311.893-7.668-.245-9.733-2.543l-56.757-54.477c-2.062-2.297-1.048-4.885 2.263-5.779l64.674-17.459c3.311-.894 7.667.244 9.733 2.542l56.759 54.478c2.06 2.298 1.046 4.885-2.265 5.779z" fill="url(#g)"/><path d="m897.386 128.198s-.742-3.84-1.736-4.214c-.383-.144-1.827-.727-2.137-.416l-1.677.88z" fill="#2dba2d"/><path d="m891.621 124.976s2.619-.961 1.622-3.018c0 0-1.397-2.445 1.398-2.795 2.794-.35 2.272 4.576 1.223 4.475-.614-.059-.634.522-.371.757.172.153.695.345.837.666.824 1.868 3.751 5.526 3.751 5.526s-3.289-1.543-3.992-3.181" fill="#c7d9e8"/><path d="m896.363 120.041s.211-.433-.659-1.044c-.869-.611-1.067-.562-1.666-.401h-.47l-.23.119-.968.43-.216.866s.201 2.569 1.311 2.977c0 0-.33-2.325.38-1.855l.212.436s.708-.378.708-1.204c.503-.224 1.048-.335 1.598-.324z" fill="#0a628e"/><path d="m894.637 120.933c0 .83-.58.633-.58.633l-.212-.436c-.71-.47-.38 1.855-.38 1.855-1.112-.408-1.264-2.589-1.264-2.589s.194-.73.748-.396.252.523.308.738c.056.216.234.072.311-.142.078-.215.634-.43.703-.215.068.215.366.552.366.552z" fill="#0a4177"/><path d="m894.359 128.175s-1.432 1.786-1.269 2.504l-.936-.576s1.275-2.218 2.205-1.928z" fill="#1d5577"/><path d="m896.052 130.415.281.876.218 1.24c-.602 1.131-4.935 1.017-4.935 1.017.588-5.533-.444-7.712-.444-7.712 1.706-1.729 1.486-1.699 1.486-1.699l2.42 1.103.418-.853.629.092.591 1.283-.502 2.876s-.463 1.375-.162 1.777z" fill="#2dba2d"/><path d="m893.805 128.551c-.154.301-.361.923-1.113 1.59-.283.252.329.836.18 1.204-.141.343-.502.591-.627.903-.17.451-.381.885-.632 1.297 0 0 .15-1.619.15-2.308 0-.662-.109-1.083-.316-2.394-.29-1.845-.389-1.264.1-3.525z" fill="#000" opacity=".1"/><path d="m890.828 126.643s-.333 2.439 3.851 8.496c0 0-1.312-2.841-1.587-7.303 0 0-.158-2.749-2.264-1.193z" fill="#c7d9e8"/><path d="m892.64 124.809.496 2.382s-1.687-1.304-2.313 0c0 0-.111-1.605.984-2.709-.001.001.394-.227.833.327z" fill="#2dba2d"/><path d="m895.704 123.634c.006-.148-1.157.072-1.592-.809 0 0-.778-.896-.473.617.306 1.513 1.188 3.082 1.565 2.636.339-.401.417-.567.48-1.942.005-.106-.334-.246-.272-.349.131-.216.29-.098.292-.153zm.626 2.522c.306.423.572.873.796 1.345.558 1.13 2.389 2.486 2.955 3.081 0 0-1.882-1.176-3.155-2.069 0 0-.837-1.233-.864-1.315s-.039-1.337.268-1.042zm-5.295.916s.1.372.27.977c.44 1.599 1.204 3.658 3.092 6.648 0 0-1.533-3.533-1.696-5.607 0 0-.493-1.629-.545-1.733-.332-.676-.952-.75-1.121-.285z" fill="#000" opacity=".1"/><path d="m896.064 146.558s-.149-.797 0-.745c.588.201 1.074.624 1.352 1.18 0 0-.397 0-1.352-.435zm-3.494-.222s-.114-.693.023-.617c.55.29.963.785 1.152 1.377 0 0-.835.217-1.175-.76z" fill="#1f9ce8"/><path d="m896.385 132.154s1.123 3.791-.018 7.156c-.587 1.733-.68 4.744-.569 5.944 0 0-1.305-2.762-.884-5.448 0 0-.277-2.362-.426-3.412 0 0 .076 2.353-.274 3.5-.349 1.147-2.207 3.953-1.712 5.56 0 0-1.188-3.374-.414-5.875 0 0-.107-2.007-.473-2.947-.472-1.213-.496-3.281.006-3.959.964-1.309 3.587.875 4.764-.519z" fill="#1d5577"/><path d="m894.747 128.496s-1.33.803-1.737-1.512zm1.342-2.996s2.18 3.298-.236 3.136c-2.416-.163.236-3.136.236-3.136z" fill="#2dba2d"/><path d="m892.285 119.523c.367 0 .664-.267.664-.596s-.297-.596-.664-.596-.664.267-.664.596.297.596.664.596z" fill="#0a628e"/><path d="m892.383 121.001s.191 1.359-.476 1.787c0 0 .989-.407.732-1.098 0 0 .268 1.193-.113 1.456 0 0 .489-.31.423-.81 0 0 .162.715 0 .81 0 0 .562-.409.308-.896 0 0-.66-1.798-.874-1.249z" fill="#0a4177"/><path d="m894.637 136.452s.344-2.175 1.067.368c.396 1.386-.659 1.864 0 2.2 0 0-.694 1.383-.251 2.308 0 0 .544.572-.092 2.765l-.523-3.6.076-.691z" fill="#12435b"/><path d="m936.724 168.667-29.901 8.072c-1.531.413-3.546-.114-4.499-1.175l-26.244-25.192c-.953-1.061-.486-2.258 1.047-2.672l29.901-8.071c1.531-.413 3.546.114 4.499 1.176l26.245 25.185c.952 1.068.483 2.264-1.048 2.677z" fill="#000" opacity=".1"/><path d="m936.724 160.64-29.901 8.072c-1.531.413-3.546-.114-4.499-1.175l-26.244-25.192c-.953-1.061-.486-2.258 1.047-2.672l29.901-8.071c1.531-.413 3.546.113 4.499 1.176l26.245 25.185c.952 1.068.483 2.264-1.048 2.677z" fill="url(#h)"/><path d="m608.947 225.341c2.969 0 5.376-1.279 5.376-2.857 0-1.577-2.407-2.856-5.376-2.856s-5.376 1.279-5.376 2.856c0 1.578 2.407 2.857 5.376 2.857z" fill="#d5e8ef"/><path d="m928.817 162.774s-3.323-.995-5.551-3.322c0 0 6.313 2.38 9.202.859s-1.872 1.983-1.872 1.983z" fill="#12435b" opacity=".11"/><path d="m933.411 161.855s-3.322-.995-5.551-3.321c0 0 4.496 3.374 7.385 1.852 2.889-1.521-.055.99-.055.99z" fill="#12435b" opacity=".12"/><path d="m954.384 108.754 20.495 20.335c1.907 1.606 4.222-.042 4.222-3.09v-22.163c0-3.227-1.82-5.9812-4.222-8.3834l-20.495-20.3348c-2.773-1.9927-4.222-.1505-4.222 3.0905v21.2429c0 3.4408.876 5.9578 4.222 9.3028z" fill="#89badb"/><path d="m943.729 112.982 20.495 20.335c2.331.624 4.222-.76 4.222-3.091v-22.162c0-3.227-1.82-5.981-4.222-8.383l-20.495-20.3348c-2.773-1.9927-4.222-.1505-4.222 3.0905v21.2433c0 3.44.877 5.957 4.222 9.302z" fill="#c2e5ff"/><path d="m948.23 102.98c.837-.294 1.09-1.746.564-3.2446-.525-1.4982-1.63-2.4746-2.467-2.181-.838.2937-1.09 1.7463-.565 3.2446.526 1.498 1.631 2.474 2.468 2.181z" fill="#4393c9"/><path d="m953.475 108.225c.838-.293 1.09-1.746.565-3.244-.526-1.498-1.631-2.475-2.468-2.181s-1.09 1.746-.564 3.244c.525 1.499 1.63 2.475 2.467 2.181z" fill="#4393c9"/><path d="m958.974 113.771c.837-.294 1.089-1.747.564-3.245-.526-1.498-1.63-2.474-2.468-2.181-.837.294-1.089 1.746-.564 3.245.526 1.498 1.63 2.474 2.468 2.181z" fill="#4393c9"/><path d="m968.446 128.279v12.269l-5.313-9.343z" fill="#c2e5ff"/><path d="m923.846 280.884-84.606 20.802c-5.392 1.455-12.484-.401-15.841-4.139l-31.48-35.083c-3.357-3.742-1.706-7.954 3.685-9.409l80.39-21.304c5.392-1.456 12.485.401 15.841 4.138l35.699 35.582c3.357 3.745 1.708 7.958-3.688 9.413z" fill="#000" opacity=".1"/><path d="m923.846 275.19-84.606 20.802c-5.392 1.455-12.484-.401-15.841-4.139l-31.48-35.084c-3.357-3.741-1.706-7.953 3.685-9.409l80.39-21.304c5.392-1.455 12.485.401 15.841 4.139l35.699 35.586c3.357 3.741 1.708 7.953-3.688 9.409z" fill="#204b9d"/><path d="m923.846 275.19-84.606 20.802c-5.392 1.455-12.484-.401-15.841-4.139l-31.48-35.084c-3.357-3.741-1.706-7.953 3.685-9.409l80.39-21.304c5.392-1.455 12.485.401 15.841 4.139l35.699 35.586c3.357 3.741 1.708 7.953-3.688 9.409z" fill="url(#i)"/><path d="m924.161 273.726-84.601 20.802c-5.392 1.455-12.485-.401-15.842-4.139l-31.488-35.084c-3.357-3.741-1.706-7.953 3.685-9.409l80.391-21.304c5.391-1.455 12.484.401 15.841 4.139l35.698 35.586c3.357 3.743 1.708 7.957-3.684 9.409z" fill="url(#j)"/><path d="m843.439 278.045-10.194 2.53c-2.656.718-6.15-.196-7.803-2.038l-15.509-17.282c-1.653-1.843-.841-3.914 1.815-4.635l8.354-2.22c2.656-.717 6.149.2 7.803 2.038l16.456 16.407c1.656 1.842 1.734 4.483-.922 5.2zm-86.55-2.04-89.518 23.722c-6.005 1.621-13.902-.443-17.641-4.608l-62.569-72.934c-3.738-4.166-1.906-8.856 4.102-10.477l86.107-21.716c6.004-1.621 13.902.442 17.64 4.608l65.984 70.927c3.735 4.168 1.898 8.857-4.105 10.478z" fill="#000" opacity=".1"/><path d="m756.89 257.694-89.518 23.722c-6.005 1.62-13.902-.443-17.641-4.609l-62.569-72.933c-3.738-4.167-1.906-8.857 4.102-10.478l86.107-21.715c6.004-1.621 13.902.442 17.64 4.608l65.984 70.927c3.735 4.166 1.898 8.856-4.105 10.478z" fill="#204b9d"/><path d="m756.89 257.694-89.518 23.722c-6.005 1.62-13.902-.443-17.641-4.609l-62.569-72.933c-3.738-4.167-1.906-8.857 4.102-10.478l86.107-21.715c6.004-1.621 13.902.442 17.64 4.608l65.984 70.927c3.735 4.166 1.898 8.856-4.105 10.478z" fill="url(#k)"/><path d="m756.833 255.632-89.517 23.723c-6.005 1.62-13.902-.444-17.64-4.609l-62.57-72.934c-3.738-4.166-1.906-8.856 4.103-10.477l86.102-21.716c6.005-1.621 13.902.443 17.641 4.608l65.981 70.928c3.741 4.165 1.905 8.857-4.1 10.477z" fill="url(#l)"/><path d="m891.022 231.774c-2.185-.589-4.408-1.034-6.652-1.333-18.398-2.453-34.601 5.218-36.191 17.142-1.589 11.925 12.041 23.573 30.436 26.027 16.982 2.263 32.093-4.101 35.569-14.468l-11.303-2.588c-2.91 6.415-12.662 10.247-23.566 8.794-12.382-1.651-21.553-9.494-20.483-17.516 1.069-8.022 11.974-13.187 24.356-11.539 1.919.254 3.813.67 5.662 1.242" fill="#000" opacity=".1"/><path d="m902.633 248.115c-2.905 6.415-12.662 10.248-23.567 8.794-12.382-1.651-21.552-9.492-20.482-17.515 1.069-8.023 11.974-13.188 24.356-11.539 1.919.254 3.813.669 5.661 1.242l2.173-5.763c-2.186-.59-4.408-1.035-6.652-1.333-18.398-2.452-34.602 5.223-36.19 17.143-1.589 11.92 12.041 23.572 30.435 26.025 16.981 2.264 32.092-4.101 35.568-14.468z" fill="#94c8ff"/><path d="m847.932 238.143c1.588-11.921 17.792-19.596 36.19-17.144 2.244.298 4.466.744 6.652 1.334l-2.173 5.762c-1.848-.572-3.742-.988-5.661-1.242-12.382-1.65-23.287 3.512-24.356 11.539z" fill="#bfdfff"/><path d="m883.587 252.025s-12.575 9.461-13.303 10.027c-.727.566 6.17-3.939.047-.734-6.124 3.205-8.555 3.984-8.555 3.984s-5.731-5.819-.281-9.182c5.449-3.362 4.704-2.709 7.797-3.059 3.493-.396 9.438-3.395 9.438-3.395l-8.717 7.256z" fill="url(#n)" opacity=".44"/><path d="m885.26 226.063-8.657 2.145s.434-5.21 2.609-5.619c.463-.087 1.605.028 1.956.392 0 0 3.293 1.143 4.088 3.081" fill="#2dba2d"/><path d="m884.34 235.397c.283-4.423 1.166-10.099-1.029-10.75 0 0-2.987-1.17-1.788-3.512 0 0 1.601-2.441-1.535-3.248-1.23-.316-2.286.475-2.199 1.584.074.961-.201 1.223-.155 1.806.075.97.391 1.756.835 1.723.703-.052.715.616.401.879-.2.173-.802.379-.978.744 0 0-.731 4.637-1.321 4.786-.59.148-2.419.182-3.813.957 0 0 2.423.461 3.774.977 1.35.515 1.937-.242 1.937-.242" fill="#c7d9e8"/><path d="m878.875 223.88c-.2.173-.802.379-.978.744 0 0-.731 4.637-1.321 4.786-.59.148-2.791-.844-4.187-.069 0 0 2.794 1.487 4.145 2.007 1.35.519 1.937-.242 1.937-.242" fill="#d0e7ef"/><path d="m882.824 218.927s-.293 2.949-1.581 3.39c0 0 .438-2.665-.391-2.143l-.254.496s-.802-.452-.782-1.404c-.573-.266-1.197-.403-1.828-.402 0 0-.189-1.319.06-1.439.219-.1-.088-.366.049-.508.115-.122.489-.127.695-.266.077-.05-.08-.138.215-.14.991-.01 1.056.567 1.69.749l.536.159h.263s1.349.253 1.328 1.508z" fill="#0a628e"/><path d="m882.762 219.374s-.231 2.502-1.519 2.943c0 0 .438-2.665-.391-2.143l-.254.496s-.671.211-.65-.742c0 0 1.118-.602.602-1.083-.516-.48 1.215.329 1.215.329s-.209-.511.274-.453c.484.058.723.653.723.653z" fill="#0a4177"/><path d="m877.69 249.755s.651-.572 1.091-.424c.441.149.143 1.124-1.091.424zm5.229 2.318s1.461.401 1.328-.375c-.134-.775-.847-.672-1.328.375z" fill="#1f9ce8"/><path d="m877.319 233.887s-.618 6.522 1.344 15.064l1.764-9.643s1.657 4.67 3.34 11.694c0 0 .746-9.786 1.606-15.615-.003-.003-7.505.195-8.054-1.5zm2.764-5.629s1.599 2.09 1.394 2.91l1.089-.637s-1.408-2.583-2.483-2.273z" fill="#1d5577"/><path d="m877.677 234.532s1.806 2.981 7.344 3.146c0 0 .301-1.584.282-2.118z" fill="#12435b"/><path d="m878.273 230.059c.063.276-.115.711-.115.711l-.839 3.117c1.706 3.791 8.315 2.82 8.315 2.82-.879-7.765-.374-10.644-.374-10.644-.777-1.515-3.116-2.402-3.116-2.402l-2.81 1.211-.458-.992-.961-.058-.713 1.46-.602 2.926s2.022 1.395 1.673 1.851z" fill="#2dba2d"/><path d="m882.077 226.409c.555 1.156-.206 9.321-.206 9.321s4.219-2.283 2.69-10.284z" fill="#000" opacity=".1"/><path d="m882.515 229.866s2.997 4.473 3.288 1.627c0 0 .244-1.339-3.288-1.627z" fill="#1d5577"/><path d="m881.904 224.971s1.578 7.606 1.234 10.12c0 0 3.232-2.399 1.739-7.396 0 0 .238-5.047-2.973-2.724z" fill="#c7d9e8"/><path d="m881.709 224.431.915 5.432s2.786.329 3.198 1.687c0 0 .691-2.604-.562-5.487 0 0-1.673-3.193-3.551-1.632z" fill="#2dba2d"/><path d="m880.427 239.308s-1.524-3.064-1.695-1.416c-.171 1.647-.246 2.23-.275 3.537 0 0-.228.551.01 2.146 0 0 .474 3.502.196 5.376z" fill="#12435b"/><path d="m878.652 223.007c-.167-.032 1.329.114 1.85-.889 0 0 .917-1.009.529.722-.389 1.731-1.445 3.512-1.867 2.989-.36-.448-.455-.642-.496-2.022 0-.088.159-.26.157-.359-.002-.1.139-.185.137-.301-.001-.063-.115-.105-.31-.14z" fill="#000" opacity=".1"/><path d="m883.214 235.059s1.748-2.181 1.131-4.761c0 0 .944.321.914.547-.091.691-.232 1.882-2.045 4.214z" fill="#000" opacity=".1"/><path d="m877.869 225.887s-.735.301-.673 1.748.629 1.913.788 3.784c-.034-.008-.046-.386.527-2.121 0 0-.395-2.108-.361-2.208s.079-1.534-.281-1.203zm1.819 2.451c.472.811 1.207 1.435 2.083 1.768 0 0-.837 1.193-2.083-1.768z" fill="#000" opacity=".1"/><path d="m937.006 264.48-41.632-41.357c-1.666-1.654-3.332-3.863-2.975-6.051l8.059-42.16c.833-1.286 1.391-1.715 3.057-.063l41.632 41.357c1.666 1.654 3.453 3.827 2.975 6.051l-8.058 42.159c-.192 1.387-1.912 1.537-3.058.064z" fill="url(#o)" opacity=".78"/><path d="m938.01 263.476-41.632-41.357c-1.667-1.653-3.333-3.863-2.975-6.05l8.058-42.16c.02-.032.041-.063.061-.094-.38.127-.695.529-1.064 1.098l-8.059 42.159c-.357 2.188 1.305 4.397 2.975 6.051l41.632 41.357c1.122 1.439 2.794 1.327 3.044.02-.626.096-1.417-.224-2.04-1.024z" fill="url(#p)" opacity=".195"/><path d="m946.15 216.006-41.632-41.357c-1.623-1.612-1.757-1.233-2.996-.834.481-.161 1.065.113 1.993 1.034l41.632 41.357c1.666 1.654 3.453 3.827 2.975 6.051l-8.057 42.159c0 .029-.01.057-.015.084.523-.081.93-.454 1.018-1.087l7.871-41.182c.594-2.585-.738-4.102-2.789-6.225z" fill="url(#q)" opacity=".63"/><path d="m847.932 238.143c-1.59 11.92 12.04 23.571 30.435 26.025 16.981 2.263 32.092-4.101 35.568-14.468l-11.302-2.588c-2.905 6.415-12.662 10.248-23.567 8.794-12.382-1.651-21.552-9.492-20.482-17.516" fill="url(#s)"/><path d="m923.187 230.024c-.698.015-1.385-.164-1.986-.517-3.152-1.914-2.451-8.521-2.186-11.008.033-.317.061-.567.069-.715.162-2.959-.306-4.859-1.288-5.218-.793-.286-2.394.25-5.498 4.435-1.616 2.178-2.789 3.211-3.647 3.211-.109 0-.217-.017-.32-.052-1.4-.486-1.293-4.199-1.181-8.128.025-.884.051-1.799.056-2.635.009-1.505-.275-2.354-.844-2.536-1.56-.502-5.087 3.903-6.315 5.642l-.246-.174c.186-.263 4.568-6.422 6.653-5.755.718.23 1.063 1.155 1.053 2.825-.005.839-.031 1.756-.056 2.642-.1 3.479-.212 7.425.98 7.835.716.25 1.935-.781 3.625-3.059 2.582-3.479 4.547-5.007 5.843-4.538.802.289 1.705 1.48 1.485 5.512-.008.156-.035.41-.07.731-.258 2.435-.946 8.904 2.043 10.718 1.733 1.053 4.469.357 8.128-2.07.371-.301 7.425-5.876 10.911-4.079l-.138.266c-3.337-1.717-10.517 3.994-10.59 4.052l-.011.008c-2.6 1.738-4.773 2.606-6.47 2.607z" fill="#2dba2d"/><path d="m940.33 223.233c-3.461-1.783-10.752 4.068-10.752 4.068-13.284 8.802-10.297-7.626-10.344-9.509-.133-5.218-.935-8.912-7.057-.876-6.453 8.469-4.856-1.313-4.816-7.509.044-7.566-7.432 3.017-7.432 3.017l-2.054 7.827s35.282 35.013 35.62 34.858c.338-.156 6.835-31.876 6.835-31.876z" fill="url(#t)" opacity=".3"/><path d="m837.499 265.114c.134 0 1.233 0 1.456 1.605.224 1.606-1.337 6.445-.949 7.348 0 0-2.691-5.631-2.38-7.087 0-.001-.079-1.868 1.873-1.866z" fill="#174c66"/><path d="m930.967 227.395c.497-.041.858-.59.806-1.226-.052-.637-.497-1.119-.995-1.079-.498.041-.859.59-.807 1.226.052.637.498 1.119.996 1.079z" fill="#2dba2d"/><path d="m817.097 255.51-3.591 3.045 14.334 16.078c1.204 1.179 2.174.643 2.174.643l6.908-2.828s1.232-.446.688-2.026l-18.362-14.788s-.627-.748-2.151-.124z" fill="#94c8ff"/><path d="m816.248 253.79-4.091 2.53 15.569 16.976c1.205 1.18 2.176.645 2.176.645l6.907-2.829s1.761-.412.219-1.61l-16.375-16.293s-2.881-.044-4.405.581z" fill="url(#u)"/><path d="m825.627 260.512s7.801-3.01 6.472-4.754c0 0-1.081-1.377-5.574-.502 0 0 2.785-1.251 2.414-1.739 0 0-.021-1.469-4.565-.874l-6.002 2.446s2.741 5.044 7.255 5.423z" fill="#1d5577"/><path d="m822.378 252.638s.374.371-.97-1.31c0 0-1.578-4.403-1.578-5.126 0-.724-.354-1.847-.354-1.847l.084-1.075c.764-.345 1.521.201 2.035-.719.34-.607.2-2.038-.101-3.331-.756-3.243-3.781-1.894-4.284-.927-.504.967.084 3.813.42 4.338s-3.444 2.686-3.276 4.389c.169 1.702-1.429 8.629 1.512 10.779" fill="#dfeaef"/><path d="m816.842 243.487s2.252.443 3.306 2.531c1.053 2.088 1.894 4.608 1.894 4.608l-2.55 1.549s1.039 2.735 2.551 3.492l-.924 5.357-7.613-8.718s.354-5.659 1.523-6.852z" fill="#2dba2d"/><path d="m820.126 251.791-1.505.852s-.863-2.297-.851-4.201c0 0 .639-1.492-1.053-2.24 0 0-1.624-.84-1.568.28 0 0 3.218 2.8-.43 2.054 0 0 1.382 2.463-.406 3.489l6.622 7.125.741-4.917" fill="#000" opacity=".1"/><path d="m831.898 265.075s3.582-1.914 2.801-2.968c-1.133-1.53-2.233-1.438-5.304.134 0 0-.147-.608-1.49-2.288 0 0-1.26-4.587-1.26-5.311 0-.723-.673-1.663-.673-1.663l.085-1.075c.252-.056 1.267.072 1.782-.521.514-.593.527-1.906.149-3.529-.755-3.243-3.78-1.894-4.284-.926-.505.968.084 3.813.42 4.338s-3.444 2.685-3.276 4.388-1.428 8.629 1.512 10.779" fill="#e8f2f7"/><path d="m838.404 265.512s-2.473-3.648-8.78-1.521l3.672-.709.164 1.182 1.46.035-.05-4.193s-1.042-1.985-6.3 1.983c-5.258 3.969-6.135 3.49-2.116 6.91 0 0 3.803.401 8.747-2.481" fill="#1d5577"/><path d="m838.025 263.638-4.615 1.569c-.122.039-.252.047-.377.023-.126-.025-.243-.08-.342-.161l-4.377-3.692c-.16-.156-.1-.349.138-.429l4.615-1.571c.122-.038.252-.046.377-.021.126.024.243.079.342.161l4.377 3.69c.16.158.099.351-.138.431z" fill="#204b9d"/><path d="m838.017 263.509-4.615 1.57c-.122.039-.252.046-.378.022s-.243-.079-.342-.161l-4.376-3.691c-.16-.157-.1-.35.138-.43l4.615-1.57c.122-.039.252-.046.377-.022.126.025.243.08.342.161l4.377 3.691c.16.157.101.35-.138.43z" fill="url(#v)"/><path d="m842.233 259.149-3.362 3.976c-.254.195-.558.018-.718-.138l-4.377-3.692c-.161-.156-.101-.349.137-.429l3.363-3.978c.121-.038.251-.046.376-.022.126.025.243.08.342.161l4.308 3.528c.16.156.191.362-.069.594z" fill="#204b9d"/><path d="m842.197 259.02-3.362 3.977c-.254.206-.558.018-.719-.139l-4.375-3.691c-.161-.157-.101-.35.137-.43l3.363-3.977c.121-.039.251-.046.376-.022.126.024.243.079.342.16l4.311 3.529c.156.156.108.402-.073.593z" fill="url(#w)"/><path d="m823.274 252.126-.213 1.806s1.847-1.066 2.909-.954c0 0 1.334.111 1.334 3.276 0 .672.502 1.446.644 2.375 0 0-.301.702-1.425.992 0 0 3.211.972 4.067 2.317 0 0 1.792 5.077-4.515 5.04l-5.853-7.832s.502-4.346.896-4.917c0-.003 1.829-2.103 2.156-2.103z" fill="#0a4177"/><path d="m825.523 273.729-13.546-13.972c-1.189-1.24-1.224-2.026-2.67-4.851l-3.84-8.977c-.419-1.649 1.104-2.199 2.297-.959l15.859 17.069c1.19 1.24 2.295 3.232 3.15 5.526l3.241 6.683c0 2.065-3.297.72-4.491-.519z" fill="#94c8ff"/><path d="m826.773 267.564c-.855-2.294-1.961-4.286-3.151-5.526l-15.86-17.068c-1.119-1.166-2.537-.748-2.35.678.401.018.873.231 1.297.673l15.862 17.07c1.189 1.238 2.296 3.231 3.151 5.525l2.909 5.969c.795.492 1.366.283 1.385-.638z" fill="url(#x)"/><path d="m820.564 239.574-.152 1.211s-.507-.725-.797-.688c-.909.118-.335 1.419 0 1.755 0 0-1.204 1.387-1.987.789l-1.738-2.726s-.838-1.773-.307-2.207c0 0 .261-.413.933-.525 0 0 .374-.445-.186-.521 0 0 .463-.447 1.744-.26 0 0 .571-.523 1.131-.449 0 0 1.494.112 2.277.56 0 0 .224.968.822.67 0 0-.187.87-.602.959.004 0 .147.835-1.138 1.432z" fill="#0a628e"/><path d="m820.564 239.574-.152 1.211s-.519-.776-.797-.688c-.76.244-.078 1.181.258 1.517 0 0-1.461 1.625-2.245 1.027l-1.738-2.726s-.184-.635 0-1.017c0 0 .587.727.884.471 0 0-.127-.365.149-.471 0 0 .301.452.552.471 0 0-.178-.471.229-.768 0 0 .216.301.365.34 0 0-.101-.148.361-.148.461 0 .36.1.658.339s1.061.063 1.146-.149c.224-.102.46-.173.702-.212 0 0 .044.546-.372.803z" fill="#0a4177"/><path d="m817.205 243.587 2.598.707.419 1.124-.504.39z" fill="#2dba2d"/><path d="m819.934 245.641s-.356-.965-1.014-1.273l.709-.121.174.047.419 1.124zm-5.537.953s1.611.924 1.485 1.287c0 0-.028.402-.966.183l-.819-.223z" fill="#000" opacity=".1"/><path d="m826.22 249.342c.134-.044 1.013-.284 1.086-1.211 0 0 1.231.013 1.275-.768 0 0 .402-3.01-3.474-1.941l-1.292.478s.356-.893-.757-.708c-1.114.186-1.688.703-1.688 1.598 0 1.017 1.288 1.832 1.779 1.297 0 0-.843 1.791.781 2.709 0 0 .692.289.979.201s1.311-1.655 1.311-1.655z" fill="#0a628e"/><path d="m823.381 247.91s.622-.031.903-.547c0 0 .308.458 0 .768 0 0 .419.731.979.339 0 0 .757-.634 1.373-.339s.272.837.272.837l-.687.374s-.854 2.048-1.956 1.568c-.001 0-2.234-.872-.884-3z" fill="#0a4177"/><path d="m827.839 251.383s-1.111.602-2.082 0c0 0-.691-.308-.502.27s-.187 1.419-.727 1.717l1.446-.391.047-.859.038-.216s1.229.068 1.78-.521zm-7.617-11.189s-.952.208-.651.814c0 0 .335.798-.377 1.231l-.822 1.666 1.055.287.133-.912c.289-.067.582-.113.878-.138 0 0 .802.035 1.157-.581 0 0-.692-.056-.841-.579-.15-.522.523-.764.429-1.103 0 0 .355-.43-.802-.915z" fill="#000" opacity=".1"/><path d="m828.523 261.981c3.211.502 7.818.845 7.818.845-.734-.972-7.858-2.967-7.858-2.967l-.758-.903-1.204.663 1.316 1.884s.285.415.686.478z" fill="#e8f2f7"/><path d="m839.405 274.2s-.813-.301-1.171 0 .274 1.095 1.171 0z" fill="#1f9ce8"/><path d="m873.811 231.254-4.459-17.752z" fill="#d0e7ef"/><path d="m869.258 213.513.195-.049 4.458 17.752-.194.049z" fill="#1c5575"/><path d="m869.319 213.386-.054-.238z" fill="#d0e7ef"/><path d="m869.173 213.14.197-.045.054.239-.196.045z" fill="#1c5575"/><path d="m703.845 234.196 13.703 11.873s2.549 2.936 8.37 1.046c4.327-1.405 16.045-4.886 16.045-4.886s3.612-1.26 0-4.201-21.866-23.269-21.866-23.269l-18.456 7.472s-6.248 2.181-1.78 8.822z" fill="#000" opacity=".1"/><path d="m670.757 237.065-2.689-.6v-2.397zm-15.361 4.5-2.689-.6v-2.397z" fill="#317ead" opacity=".37"/><path d="m634.932 216.932c-.032-.077-3.259-7.663-8.811-16.921-3.259-5.433-6.668-10.371-10.134-14.674-4.33-5.374-8.76-9.769-13.167-13.062l.301-.402c4.442 3.319 8.903 7.744 13.26 13.153 3.482 4.322 6.907 9.28 10.178 14.735 5.569 9.285 8.806 16.899 8.839 16.975z" fill="url(#z)"/><path d="m626.471 199.85s3.947-1.682 1.642-13.847c0-.003-2.878 12.138-1.642 13.847z" fill="url(#B)"/><path d="m623.519 194.671s3.406-2.207 0-13.144c-.001-.004-1.311 11.758 0 13.144z" fill="url(#C)"/><path d="m620.118 189.63s4.284-1.825 1.783-15.036c-.004 0-3.133 13.181-1.783 15.036z" fill="url(#D)"/><path d="m617.146 186.082s4.299-3.391-1.132-17.559c0 0-.712 15.878 1.132 17.559z" fill="url(#E)"/><path d="m613.079 181.235s3.552-2.947-1.204-14.736c-.002 0-.369 13.362 1.204 14.736z" fill="url(#F)"/><path d="m610.108 177.902s2.629-3.185-2.772-12.493c0 .003 1.289 11.594 2.772 12.493z" fill="url(#G)"/><path d="m606.23 174.471s1.906-2.823-2.977-9.857c0-.004 1.739 9.267 2.977 9.857z" fill="url(#H)"/><path d="m627.543 202.101s-1.33 4.874-11.232 2.148c.003 0 9.836-3.66 11.232-2.148z" fill="url(#I)"/><path d="m624.638 197.054s-1.762 4.215-10.677.118c0 0 9.539-1.719 10.677-.118z" fill="url(#J)"/><path d="m620.811 192.119s-1.444 5.292-12.194 2.332c0 0 10.675-3.973 12.194-2.332z" fill="url(#K)"/><path d="m618.199 187.845s-2.714 5.324-14.266-1.236c0 0 12.886-1.023 14.266 1.236z" fill="url(#L)"/><path d="m614.514 183.186s-2.361 4.401-11.978-1.351c0 0 10.849-.569 11.978 1.351z" fill="url(#M)"/><path d="m611.441 179.893s-2.562 3.265-10.169-3.301c0 0 9.426 1.483 10.169 3.301z" fill="url(#N)"/><path d="m607.22 176.048s-2.275 2.367-8.027-3.577c-.004 0 7.537 2.058 8.027 3.577z" fill="url(#O)"/><path d="m710.147 216.429-71.367 19.265c-3.654.987-8.461-.27-10.736-2.809l-15.434-17.337c-2.275-2.536-1.157-5.39 2.497-6.377l71.367-19.265c3.655-.986 8.462.269 10.737 2.805l15.434 17.337c2.275 2.539 1.157 5.395-2.498 6.381z" fill="#89badb"/><path d="m710.147 187.672-71.367 19.265c-3.654.986-8.461-.269-10.736-2.81l-15.434-17.337c-2.275-2.536-1.157-5.391 2.497-6.377l71.367-19.265c3.655-.986 8.462.269 10.737 2.809l15.434 17.338c2.275 2.536 1.157 5.389-2.498 6.377z" fill="#9abed8"/><path d="m633.48 235.747v-31.768l80.33-20.767v29.589z" fill="#89badb"/><path d="m640.036 235.095-6.221-5.915.015-24.849-14.538-16.556-7.863-3.735v28.758c0 1.82 1.179 2.748 1.179 2.748l14.161 15.908c3.332 3.634 7.581 8.366 7.875 8.694l5.39 6.006z" fill="#bddff2"/><path d="m635.703 210.465 81.848-22.376s3.389-.667 1.654-3.583l-14.601-20.398-85.31 23.67 12.985 21.319s1.198 1.97 3.424 1.368z" fill="url(#P)"/><path d="m670.781 237.066 12.671-3.903v-9.706l-7.121-2.327-5.55 4.235z" fill="#accfe5"/><path d="m670.781 226.005v11.061l-8.363-9.319v-9.697z" fill="#bddff2"/><path d="m669.617 228.697 8.143-6.138-10.134-10.135-7.891 6.056z" fill="url(#Q)"/><path d="m677.748 222.486 7.253 1.713-9.566-8.839-7.774-2.936z" fill="#92b6cc"/><path d="m672.084 236.665v-8.445l10.425-3.437v8.679z" fill="#89badb"/><path d="m682.509 231.423-4.749-5.074 4.749-1.566v8.679z" fill="#305368"/><path d="m681.856 224.999.653-.216v8.679l-.715-.693" fill="#4d7e96"/><path d="m655.396 241.565 12.672-3.903v-9.706l-7.122-2.328-5.55 4.236z" fill="#accfe5"/><path d="m655.396 230.504v11.061l-8.362-9.319v-9.697z" fill="#bddff2"/><path d="m654.256 233.29 8.119-6.233-10.133-10.133-8.749 6.42z" fill="url(#R)"/><path d="m662.364 226.986 7.253 1.712-9.882-10.218-7.459-1.556z" fill="#92b6cc"/><path d="m656.699 241.164v-8.445l10.425-3.437v8.679z" fill="#89badb"/><path d="m667.124 235.921-4.749-5.073 4.749-1.566v8.679z" fill="#305368"/><path d="m666.472 229.497.652-.215v8.679l-.715-.693" fill="#4d7e96"/><path d="m640.036 246.157 12.671-3.904v-9.705l-7.121-2.327-5.55 4.234z" fill="#accfe5"/><path d="m638.97 237.311 8.045-5.662-10.134-10.134-7.59 4.952z" fill="url(#S)"/><path d="m647.003 231.577 7.253 1.713-10.763-9.946-6.577-1.829z" fill="#92b6cc"/><path d="m641.339 245.755v-8.444l10.425-3.437v8.678z" fill="#89badb"/><path d="m651.764 240.513-4.749-5.074 4.749-1.565v8.678z" fill="#305368"/><path d="m651.111 234.09.653-.216v8.678l-.715-.692" fill="#4d7e96"/><path d="m665.089 141.481c0-4.367-3.541-6.96-7.91-5.789s-7.908 5.66-7.908 10.034c0 1.505.421 2.802 1.153 3.806.225.308.482.592.768.845h-.013l5.993 5.118 5.749-7.987c1.346-1.783 2.168-3.918 2.168-6.027z" fill="url(#T)"/><path d="m665.612 141.914c0-4.368-3.541-6.961-7.91-5.79s-7.909 5.66-7.909 10.028c0 1.505.422 2.804 1.153 3.807.226.309.483.592.769.846h-.013l5.993 5.117 5.748-7.987c1.344-1.778 2.169-3.914 2.169-6.021z" fill="#89badb"/><path d="m714.39 242.859s4.156.414 3.919-2.64c0 0-3.368-3.882-4.762-2.162s.843 4.802.843 4.802zm-9.361-9.164s4.156.414 3.919-2.639c0 0-3.368-3.883-4.762-2.163-1.393 1.72.843 4.802.843 4.802z" fill="#4d7e96"/><path d="m724.685 243.922 12.72-3.942v-2.769l-7.531-11.88-12.184-7.441-13.746 4.963 7.058 10.402s11.078 9.159 13.683 10.667z" fill="url(#V)"/><path d="m736.777 239.63-12.232-18.339-8.318-17.242 16.177 16.556s.714.781 1.16 4.598c0 0 3.956 7.141 4.147 8.859l.546 2.91s.076 4.035-1.48 2.658z" fill="url(#W)"/><path d="m719.715 234.62s4.765 3.627 7.017 3.311c0 0 8.172-1.782 8.55-2.864 0 0 1.272-.954.602-4.58 0 0-2.354-4.486-2.769-5.472 0 0-.085-1.38-.588-3.356l-15.381 5.872.647 2.413z" fill="url(#X)"/><path d="m716.227 204.049s-1.098-1.069-2.485-.45l-12.523 3.534s-1.756.391-1.756 2.698c0 1.081 16.179 16.55 16.179 16.55l16.273-6.108z" fill="url(#Y)"/><path d="m718.864 229.025 13.023-4.716 3.203 5.698-13.598 4.932z" fill="#fff"/><path d="m705.104 233.707c.77-.19 1.017-1.877.552-3.768s-1.467-3.271-2.237-3.082c-.77.19-1.017 1.876-.551 3.768.465 1.891 1.466 3.271 2.236 3.082z" fill="#fff"/><path d="m714.385 242.869c.77-.189 1.017-1.876.552-3.768-.465-1.891-1.467-3.271-2.237-3.082-.77.19-1.017 1.877-.552 3.768.466 1.892 1.467 3.271 2.237 3.082z" fill="#fff"/><path d="m719.567 234.62c.148 0 5.03 3.73 7.382 3.328 0 0 0 1.856-1.083 1.969l-4.454-.843zm16.391-3.715s.469 3.713-1.137 4.586c0 0 .775 1.149 1.594 1.093l1.125-1.964s-.492-2.961-1.582-3.715z" fill="#fff"/><path d="m728.47 238.521 6.347-1.79.028.097-6.348 1.79z" fill="#99bcce"/><path d="m728.737 239.418 6.004-1.693.027.096-6.004 1.694z" fill="#99bcce"/><path d="m728.909 240.315 6.348-1.79.027.096-6.348 1.79z" fill="#99bcce"/><path d="m737.716 234.063s-1.204 8.328-16.103 5.097l-.077-.118c-.191-1.718-3.999-8.574-3.999-8.574-.383-3.848-1.305-4.882-1.305-4.882l-16.762-15.753v11.87s.185 4.045 2.523 6.115l16.136 14.288s3.163 2.868 6.563 1.814l12.72-3.942c.721-.445 1.548-3.124.304-5.915z" fill="url(#Z)"/><path d="m892.781 154.024v-23.69l29.328-7.588v23.275z" fill="url(#ab)" opacity=".16"/><path d="m892.781 154.024v-23.69l29.328-7.588v23.275z" fill="url(#ac)" opacity=".16"/><path d="m609.211 183.154 10.083 4.624 85.31-23.67-14.55-3.429c-1.131-.2-2.239.122-2.239.122l-78.96 21.504s-.886.281.356.849z" fill="#adcfe0"/><path d="m641.339 245.755 29.442 32.681 11.728-3.108-30.745-32.776z" fill="url(#ae)" opacity=".27"/><path d="m656.648 241.164 30.84 32.845 11.556-3.063-31.97-32.985z" fill="url(#af)" opacity=".27"/><path d="m672.067 236.7 31.512 33.044 10.546-2.794-31.633-33.453z" fill="url(#ag)" opacity=".27"/><path d="m643.682 193.529 2.651-.736 1.183 1.712-2.727.751zm1.476-2.509 2.651-.734 1.182 1.711-2.727.752zm22.91-.013 2.651-.735 1.182 1.711-2.726.752z" fill="#000" opacity=".1"/><path d="m691.54 175.329 2.652-.735 1.182 1.712-2.727.752z" fill="#f3fbff" opacity=".38"/><path d="m674.415 178.426 2.651-.735 1.182 1.713-2.727.75zm-37.499 24.483 2.651-.734 1.182 1.712-2.727.751zm-7.625-12.665 2.651-.735 1.182 1.713-2.726.75z" fill="#000" opacity=".1"/><path d="m704.427 178.079 2.651-.734 1.182 1.712-2.726.751zm-1.452 2.947 2.651-.734 1.182 1.711-2.726.752zm-36.824 13.149 2.652-.735 1.182 1.712-2.727.752zm-11.49-7.477 2.651-.734 1.183 1.712-2.727.751z" fill="#f3fbff" opacity=".38"/><path d="m760.081 80.0666-50.378 13.5027c-2.093.5619-3.791-.6813-3.791-2.7743v-22.6266c0-2.0941 1.698-4.2464 3.791-4.8073l50.378-13.4987c2.095-.5619 3.792.6813 3.792 2.7754v22.6226c0 2.0931-1.697 4.2454-3.792 4.8062z" fill="#c2e5ff"/><path d="m812.898 143.761-86.707 23.403c-4.44 1.198-10.281-.327-13.044-3.411l-25.924-28.889c-2.765-3.08-1.405-6.549 3.034-7.747l86.707-23.403c4.441-1.198 10.28.327 13.045 3.411l25.924 28.889c2.764 3.08 1.405 6.551-3.035 7.747z" fill="#000" opacity=".1"/><path d="m812.899 135.804-86.707 23.403c-4.44 1.198-10.281-.327-13.044-3.411l-25.924-28.889c-2.764-3.08-1.405-6.549 3.034-7.747l86.708-23.4033c4.44-1.1981 10.279.3271 13.044 3.4115l25.924 28.8888c2.764 3.08 1.405 6.551-3.035 7.747z" fill="#204b9d"/><path d="m812.899 135.804-86.707 23.403c-4.44 1.198-10.281-.327-13.044-3.411l-25.924-28.889c-2.764-3.08-1.405-6.549 3.034-7.747l86.708-23.4033c4.44-1.1981 10.279.3271 13.044 3.4115l25.924 28.8888c2.764 3.08 1.405 6.551-3.035 7.747z" fill="url(#ah)"/><path d="m812.899 133.797-86.707 23.404c-4.44 1.198-10.281-.328-13.044-3.412l-25.924-28.889c-2.764-3.08-1.405-6.549 3.034-7.747l86.708-23.4032c4.44-1.198 10.279.3272 13.044 3.4116l25.924 28.8886c2.764 3.081 1.405 6.551-3.035 7.747z" fill="url(#ai)"/><path d="m780.094 114.828s-5.689.744-6.634.755-4.265-.65-11.227.688c-6.963 1.339-7.909 4.284-7.909 4.284s2.184 7.49 8.704 6.707c6.521-.782 12.133-5.631 15.172-6.612s8.15-4.716 8.15-4.716l-17.73 3.76z" fill="url(#aj)" opacity=".44"/><path d="m778.554 92.0992s.586-3.7456 1.789-4.2012c.464-.1756 2.709-.881 3.089-.5017l2.734.8348z" fill="#05a"/><path d="m787.053 100.392c.2-4.6634.992-10.6607-1.334-11.2948 0 0-3.173-1.1629-1.965-3.6534 0 0 1.691-2.961-1.692-3.3834-3.384-.4225-2.75 5.5397-1.48 5.4183.742-.0722.767.6311.448.9161-.208.1856-.592.0191-1.012-.0391-3.742-.5208-8.837-3.4728-8.837-3.4728s7.558 8.1205 10.212 7.5867" fill="#c7d9e8"/><path d="m779.978 83.126s-.257-.5238.797-1.2633c1.053-.7395 1.292-.6793 2.017-.4897h.568l.279.1455 1.172.5188.261 1.0485s-.24 3.1106-1.586 3.6052c0 0 .401-2.8155-.461-2.2466l-.256.5278s-.857-.4575-.857-1.4619c-.609-.2681-1.269-.3993-1.934-.3843z" fill="#0a628e"/><path d="m785.017 83.5564s-.185 2.6409-1.531 3.1346c0 0 .401-2.8155-.461-2.2466l-.256.5278s-.702.2388-.702-.7666" fill="#0a4177"/><path d="m778.235 113.422s.733.544 1.183.352c.449-.193.049-1.192-1.183-.352zm6.813 2.854s1.233.46 1.328-.36c.096-.82-.53-.554-1.328.36z" fill="#1f9ce8"/><path d="m779.627 98.9645c-1.262 8.3825-.529 5.5515-.186 13.7615l3.584-8.127s.41 5.646 3.194 10.782c0 0 .834-9.507 2.228-15.8054 0 .001-8.203 1.1614-8.82-.6111zm2.776-5.9902s1.734 2.1623 1.537 3.0302l1.132-.6963s-1.542-2.6871-2.669-2.3339z" fill="#1d5577"/><path d="m780.018 99.6358s1.967 3.0952 7.806 3.1392c0 0 .341-1.32.312-1.882z" fill="#12435b"/><path d="m779.951 94.076c0 .5348-.065 1.8984-.065 1.8984l-.259 2.9901c.602 2.4625 8.82 2.7745 8.82 2.7745.71-7.3319-1.264-12.3137-1.264-12.3137-.081-1.3095-2.721-1.3406-2.721-1.3406l-2.93 1.3406-.502-1.0325-.766-.4496-1.907.0562-.632 3.9745s2.055 1.5954 2.226 2.1021z" fill="#05a"/><path d="m784.461 90.9805c.165 1.7901 2.065 9.4105 2.065 9.4105s2.325-2.0948.527-10.4841z" fill="#000" opacity=".1"/><path d="m786.007 94.6028s3.452 3.9363 3.692.9341c0 0 0-1.2602-3.692-.9341z" fill="#1d5577"/><path d="m784.501 90.1628s4.362 8.1917 4.806 10.8272c0 0 1.362-4.6152-.662-9.1104 0 0-1.646-5.0612-4.144-1.7168z" fill="#c7d9e8"/><path d="m783.724 89.2697 2.283 5.333s2.933-.3552 3.692.9342c0 0-.785-4.8163-3.01-6.9174-.002 0-.952-1.2603-2.965.6502z" fill="#05a"/><path d="m783.025 104.6s-1.677-3.19-1.818-1.451.282 3.323-.517 3.729c0 0-.456-.948-.672 1.044-.206 3.934-.1 2.722-.577 4.804z" fill="#12435b"/><g fill="#000"><path d="m780.774 87.4757c-.007-.1776 1.405.0883 1.928-.9783 0 0 .942-1.0847.573.7475s-1.439 3.7306-1.894 3.1908c-.456-.5398-.519-.7265-.607-2.96z" opacity=".1"/><path d="m789.237 100.654s-1.364-4.1498-2.526-6.0944c0 0 1.729 0 1.66.1546-.358.8308.785 1.9656.866 5.9398z" opacity=".1"/><path d="m780.018 90.529-.853 1.4449c-.116.2006-1.44-1.1188-1.44 0 0 0 2.632 1.7479 2.293 3.0924 0 0 .291-3.1757.324-3.275.033-.0994.047-1.6195-.324-1.2623zm1.375 1.9365s.127 1.7379 1.771 2.3731c0 .002-1.355.9853-1.771-2.3731zm-8.271-5.613s4.185 3.0243 4.931 3.0544l-.168 1.0636s-3.315-2.663-4.763-4.118z" opacity=".1"/><path d="m788.547 123.628-52.277 14.109c-2.676.722-6.197-.201-7.864-2.054l-15.629-17.416c-1.666-1.857-.847-3.949 1.83-4.671l52.276-14.1087c2.678-.7225 6.198.2006 7.865 2.0537l15.627 17.414c1.667 1.859.848 3.95-1.828 4.673z" opacity=".1"/></g><path d="m788.547 116.604-52.277 14.109c-2.676.722-6.197-.201-7.864-2.054l-15.626-17.416c-1.666-1.857-.847-3.948 1.83-4.671l52.277-14.1085c2.677-.7224 6.198.2007 7.864 2.054l15.624 17.4135c1.667 1.86.848 3.951-1.828 4.673z" fill="url(#ak)"/><path d="m722.766 76.8678c.943-1.0782 1.038-2.5376.213-3.2597-.826-.7221-2.259-.4334-3.202.6448-.944 1.0781-1.039 2.5375-.214 3.2596.826.7221 2.259.4334 3.203-.6447z" fill="#000" opacity=".1"/><path d="m732.386 74.2892c.943-1.0782 1.038-2.5376.213-3.2597-.825-.722-2.259-.4334-3.202.6448-.944 1.0781-1.039 2.5375-.214 3.2596.826.7221 2.259.4335 3.203-.6447z" fill="#000" opacity=".1"/><path d="m742.006 71.7108c.943-1.0782 1.039-2.5375.214-3.2596-.826-.7221-2.26-.4335-3.203.6447s-1.038 2.5376-.213 3.2596c.825.7221 2.259.4335 3.202-.6447z" fill="#000" opacity=".1"/><path d="m749.567 70.6035c-.467.0078-.923-.1397-1.298-.4194-.513-.3934-.796-1.0085-.796-1.7289 0-1.4489 1.13-2.8858 2.572-3.2721.736-.2006 1.459-.0782 1.986.3261.527.4044.797 1.0034.797 1.7299 0 1.4479-1.13 2.8848-2.572 3.2711-.225.061-.456.0923-.689.0933zm1.174-4.6989c-.164.001-.327.0236-.485.0672-1.066.286-1.966 1.4228-1.966 2.4834 0 .4616.169.8459.476 1.0817.329.2518.783.318 1.279.1846 1.066-.285 1.967-1.4228 1.967-2.4824 0-.4616-.169-.8459-.477-1.0827-.23-.1697-.509-.2583-.794-.2518z" fill="#4393c9"/><path d="m721.109 77.1989-1.752-2.1904.637-.5097.981 1.2271 2.804-5.2066.718.3873zm9.918-2.8898-1.752-2.1914.637-.5097.982 1.2271 2.803-5.2066.719.3873zm9.532-2.5105-1.752-2.1904.638-.5097.981 1.2261 2.803-5.2056.719.3863z" fill="#1c5575"/><path d="m717.797 103.25s.628-3.101-.466-3.4807c-.423-.1465-2.464-.7255-2.793-.3773l-2.429 1.05z" fill="#0b63ce"/><path d="m711.601 111.175c-.292-4.19-1.158-9.566.919-10.195 0 0 2.824-1.1244 1.676-3.3349 0 0-2.219-3.3544 1.428-3.4407 1.315-.0311 2.079.5429 2.221 2.0871.05.5408-.154 1.0917-.214 1.6054-.1.8499-.122 1.5312-.531 1.5051-.669-.0461-.674.587-.38.835.192.162.544-.172.91-.06 1.381.42 9.26.133 9.26.133s-4.716 3.145-9.858 2.075" fill="#e8f2f7"/><path d="m717.63 100.171c1.38.42 9.26.133 9.26.133s-4.716 3.145-9.858 2.075" fill="#e8f2f7"/><path d="m713.191 95.7969s.616 1.9485 1.277 2.964c0 0-.429-2.5226.359-2.0319l.243.4686s.76-.4335.735-1.3375c1.027-.3011 1.777-.4907 1.745-.7967-.08-.7476-1.262-1.0185-1.262-1.0185s-1.522-.3261-2.264.5368c0 0-.828.4767-.833 1.2152" fill="#0a628e"/><path d="m715.682 96.4901c0 .3442.07.9934-.009 1.1569-.121.2479-.543-.026-.543-.026l-.301-.8921c-.647-.1826-.359.5328-.273 1.0787.101.6131-.086.9532-.086.9532-1.657-1.1459-1.277-2.964-1.277-2.964s.994-.8379 1.495.1575c.261.5188.441-.1615.532.2157.022.102.082.1918.168.2512s.191.084.294.0689z" fill="#0a4177"/><path d="m712.437 126.694s-1.424.182-1.198-.525c0 0 .884-.52 1.198.525zm4.015-3.271s-1.424.182-1.198-.525c0 0 .883-.52 1.198.525z" fill="#1f9ce8"/><path d="m718.128 110.025s.711 6.072-2.642 12.531l-.056-7.695s-.818 6.764-3.813 10.648c0 0 .969-9.131-.442-14.759-.003-.004 6.441.88 6.953-.725zm-2.529-5.639s-1.505 1.99-1.304 2.765l-1.036-.602s1.319-2.451 2.34-2.163z" fill="#1d5577"/><path d="m718.127 110.025s-.856 2.035-4.103 2.852c-.345.087-.864 5.848-1.264 5.904-.399.055-.826-.803-1.146-5.579 0 0-.267-1.086-.602-1.678z" fill="#12435b"/><path d="m717.511 103.55.427 3.473.308 2.683c-.483 2.23-7.344 1.859-7.344 1.859-.266-2.127.129-3.411 0-5.031-.27-3.367.641-5.217.641-5.217.258-1.274 2.078-1.274 2.078-1.274l2.669 1.133.43-.942.686-.3965 1.176.0773 2.815.3172s1.805 3.019-3.886 3.318z" fill="#2dba2d"/><path d="m717.104 104.843s-.866-3.334-1.577-3.182c0 0-3.577 1.063 1.577 3.182z" fill="#000" opacity=".1"/><path d="m715.842 104.023s-.355 1.034-1.817 1.647c-.001 0 1.743.065 1.817-1.647z" fill="#000" opacity=".1"/><path d="m714.066 101.906c3.919 2.014-1.521 7.504-1.521 7.504s-.931-.211-.436-1.439c.185-.46-1.104-.544-.64-1.377.64-1.147.288-2.534.386-4.214z" fill="#000" opacity=".1"/><path d="m716.253 105.18s-1.645 4.148-1.935 1.452c0 0-.89-1.223 1.935-1.452z" fill="#0d374c"/><path d="m717.753 100.934s.386-.156 1.169.718c.917 1.022 4.571-.535 6.021-.346-.609.297-1.244.536-1.897.713-.551.151-1.288.082-1.84.421-.401.249-.889.602-1.316.724-1.265.367-2.247.408-2.379.386 0 0 .014-1.384-.018-1.472s-.082-1.456.26-1.144z" fill="#000" opacity=".1"/><path d="m714.49 101.351s4.883 5.865 8.063 6.987c0 0-5.848-.23-8.521-3.601.004 0-3.635-2.595.458-3.386z" fill="#e8f2f7"/><path d="m714.812 101.375 2.1 2.553s-2.107 2.081-2.494 3.371c0 0-4.375-3.196-2.062-5.67 0 0 1.053-1.207 2.456-.254z" fill="#2dba2d"/><path d="m715.423 114.86s.67.042 1.058.897c.648 1.43-1.131 3.435-.049 3.023 0 0 .401 1.103-.481 2.176 0 0-.395-.317-.465 1.596z" fill="#12435b"/><path d="m716.927 99.4c.159-.0221-1.259.1144-1.758-.8318 0 0-.392-.9924-.497.6863-.03.4736-.844.5248-1.124.6492-.261.1163-.792.2003-.829.3383-.088.34 1.547 1.19 1.85 1.288.363.118-.22-1.204.697-1.432.1-.026 1.334-.3639 1.335-.4853.001-.0522.063-.1756.326-.2127zm-4.382 11.075s.638-.456 1.821-2.13c0 0 1.687.2-1.821 2.13z" fill="#000" opacity=".1"/><path d="m711.614 125.505c1.045-1.866 1.54-1.977 3.057-6.801 0 0-1.156 3.092-2.738-.784-.004 0-.105 5.192-.319 7.585z" fill="#12435b"/><path d="m715.842 105.048s2.975 2.526 5.017 3.092c0 0-3.204-.383-5.637-2.267z" fill="#000" opacity=".1"/><path d="m726.355 109.909c-.207 0-.408-.075-.565-.212-.156-.137-.257-.327-.283-.533-.027-.206.023-.414.14-.587.116-.172.291-.295.493-.347l14.013-3.67c.109-.028.221-.035.333-.019.111.015.218.052.314.108.097.057.182.132.249.221.068.09.118.192.146.3s.035.221.02.332c-.015.112-.052.218-.109.315-.056.097-.132.182-.221.249-.089.068-.191.118-.299.146l-14.014 3.67c-.071.018-.144.027-.217.027z" fill="#1c5575" opacity=".07"/><path d="m729.536 114.681c-.207 0-.408-.076-.563-.213-.156-.138-.256-.327-.282-.533-.027-.206.023-.414.14-.586.116-.172.291-.295.492-.347l22.315-5.753c.109-.031.223-.039.336-.024.112.014.22.051.318.107.098.057.184.133.253.223.068.09.118.193.146.303s.035.224.018.336c-.016.112-.055.22-.113.317-.059.097-.136.181-.227.248-.092.067-.195.115-.306.141l-22.313 5.754c-.07.017-.142.026-.214.027zm27.102-1.418c-.208 0-.408-.076-.563-.214-.156-.137-.256-.326-.282-.532s.024-.414.141-.586c.116-.172.291-.295.492-.347l18.917-4.856c.219-.056.452-.023.646.092.195.115.336.303.392.522.056.22.023.452-.092.647-.115.194-.303.335-.522.391l-18.916 4.856c-.07.018-.141.027-.213.027zm13.175 2.719c-.207 0-.408-.075-.564-.213-.155-.137-.256-.326-.282-.532s.023-.414.14-.586c.116-.172.292-.296.493-.348l9.482-2.451c.219-.057.451-.024.646.091s.337.302.393.521c.057.219.024.452-.09.647-.115.195-.303.336-.522.393l-9.484 2.451c-.069.018-.14.027-.212.027z" fill="#1c5575" opacity=".13"/><path d="m746.975 110.226.502-6.843s.201-2.794-2.883-2.988c-3.496-.22-17.7-1.4264-17.7-1.4264s-2.884-.4586-3.199 2.3014l-.784 8.369s-.353 2.775 3.448 2.833l9.973.522z" fill="url(#al)"/><path d="m746.975 110.226.502-6.843s.201-2.794-2.883-2.988c-3.496-.22-17.7-1.4264-17.7-1.4264s-2.884-.4586-3.199 2.3014l-.784 8.369s-.353 2.775 3.448 2.833l9.973.522z" fill="url(#am)"/><path d="m722.907 109.635.784-8.369c.315-2.76 3.199-2.3014 3.199-2.3014s14.204 1.2044 17.7 1.4264c.559.02 1.106.173 1.593.448-.401-.575-1.112-1.0828-2.364-1.162-3.496-.2208-17.699-1.4269-17.699-1.4269s-2.884-.4585-3.2 2.3019l-.784 8.368s-.188 1.477 1.187 2.299c-.312-.467-.459-1.025-.416-1.584z" fill="url(#an)"/><path d="m757.455 113.09s-.13-1.249 1.652-1.705l14.869-3.802s1.085-.274 1.377.876z" fill="url(#ap)"/><path d="m770.314 115.859s-.13-1.25 1.652-1.706l6.307-1.586s1.084-.274 1.376.876z" fill="url(#aq)"/><path d="m726.892 109.734s-.345-1.396 1.653-1.706l10.447-2.74s1.085-.275 1.377.876z" fill="url(#ar)"/><path d="m730.171 99.2405-6.804 5.4795-.422 4.508 12.439-9.5541z" fill="url(#as)" opacity=".64"/><path d="m740.214 100.054-6.804 5.48-.421 4.508 12.438-9.554z" fill="url(#at)" opacity=".64"/><path d="m709.579 124.862s-1.784 4.453 4.28 3.276c0 0 3.363-.748 5.288-4.08.748-1.296 1.628-2.273-2.152-2.608-3.781-.336-4.388-1.544-7.416 3.412z" fill="#000" opacity=".1"/><path d="m693.139 225.986 6.454 1.907s-.396-4.274-2.308-4.633c-.407-.076-1.45.022-1.757.343 0 0-1.797.571-2.496 2.276" fill="#2dba2d"/><path d="m694.369 219.959c-.054.018-.368.235-.114 2.449.254 2.215-.436 3.052-.436 3.052s3.15-1.898 2.633-3.185z" fill="#0a4177"/><path d="m694.703 234.068c.502-4.037-2.037-8.498-.1-9.071 0 0 1.721-1.267.665-3.326 0 0-1.405-2.149 1.351-2.858 1.082-.279 2.012.418 1.935 1.394-.065.845.175 1.076.137 1.588-.065.853-.343 1.545-.735 1.516-.622-.046-.629.542-.358.774.178.151.71.333.861.654 0 0 .644 4.081 1.163 4.214.519.134 2.129.16 3.358.842 0 0-2.132.402-3.32.86-1.188.459-1.706-.214-1.706-.214" fill="#e8f2f7"/><path d="m694.219 220.129s.157 2.193 1.291 2.58c0 0-.386-2.345.344-1.886l.223.437s.708-.401.689-1.238c0 0 .85-.378 1.706-.356 0 0 .066-1.162-.154-1.266-.192-.093.078-.322-.043-.449-.1-.106-.429-.111-.612-.234-.067-.044.071-.12-.188-.122-.872-.009-.93.502-1.487.658l-.472.141h-.233c-.506.471-.874 1.07-1.064 1.735z" fill="#0a628e"/><path d="m694.173 220.119s.201 2.208 1.337 2.59c0 0-.247-.737.344-1.585l.223.136s.591.186.573-.653c0 0-.984-.533-.534-.952.451-.42-1.069.289-1.069.289s.185-.451-.24-.401c-.426.049-.634.576-.634.576z" fill="#0a4177"/><path d="m698.634 246.854s-.574-.502-.962-.372c-.387.129-.121.989.962.372zm-4.599 2.041s-1.285.35-1.169-.329c.116-.68.746-.592 1.169.329z" fill="#1f9ce8"/><path d="m697.781 246.148c1.726-7.516 1.182-13.257 1.182-13.257-.483 1.492-6.305 2.048-6.305 2.048-.025 1.845.789 3.931.789 5.793 0 1.305-.248 2.17-.269 3.19-.046 2.27.11 4.028.11 4.028 1.481-6.183 2.939-10.288 2.939-10.288l.742 2.408s.214.588.214.924-.624.688.598 5.154zm-1.25-18.21s-1.404 1.839-1.228 2.561l-.958-.562s1.239-2.273 2.186-1.999z" fill="#1d5577"/><path d="m698.648 233.459s-1.118 2.383-5.996 2.528c0 0 .087-1.265.101-1.736z" fill="#12435b"/><path d="m698.038 229.459c.045.234.107.464.186.688l.739 2.744c-1.505 3.336-6.305 2.048-6.305 2.048-.281-.317.564-2.499.741-2.947 1.421-3.625-.248-6.113-.248-6.113.684-1.334 1.566-1.787 1.566-1.787l2.473.865.401-.872.746-.051.627 1.284.627 2.575s-1.773 1.034-1.553 1.566z" fill="#2dba2d"/><path d="m693.546 225.879s1.659 2.729 1.052 4.839c0 0-1.04 1.391-.253 2.173 0 0 1.268.58.358 1.177 0 0-1.416.535-.702 1.116l-1.344-.245s0-1.305.532-2.402c0 0 1.234-2.758.712-4.274z" fill="#000" opacity=".1"/><path d="m694.345 226.937s-1.53 1.652-1.441-.151c0 0-.425-.48 1.441.151z" fill="#1d5577"/><path d="m695.065 225.285s-.136-.006-.892 1.263c-.582.979-1.146 1.672-1.796 3.076-.511 1.103.941 3.77.932 4.444 0 0-4.226-2.445-1.834-6.615 0 0 2.206-3.975 3.59-2.168z" fill="#e8f2f7"/><path d="m695.422 224.57-.377 2.618s-3.01-1.257-3.374-.061c0 0 .502-.877.787-1.248.005 0 1.715-2.644 2.964-1.309z" fill="#2dba2d"/><path d="m697.781 246.148c-.245-1.65.172-4.731.172-4.731.209-1.405-.677-1.74-.677-1.74-.026-1.15.594-1.811.443-3.261-.15-1.45-1.492 1.246-1.492 1.246l.914 2.91s.132.462-.035.779c-.05.667-.037 1.338.04 2.002.133.935.635 2.795.635 2.795z" fill="#12435b"/><path d="m697.791 223.314c.146-.027-1.17.101-1.63-.781 0 0-.803-.889-.464.635.338 1.524 1.271 3.089 1.642 2.63.317-.394.402-.565.437-1.779 0-.079-.14-.229-.138-.316.002-.088-.122-.163-.121-.269.001-.05.101-.087.274-.12zm.692 2.537s.619.328.565 1.605c-.054 1.278-.527 1.62-.666 3.265.029-.006-.181-.365-.465-1.866 0 0 .348-1.858.319-1.941-.029-.082-.074-1.355.247-1.063zm-3.277 3.062s1.884.803 2.07-.65c.003 0-.333 2.184-2.07.65z" fill="#000" opacity=".1"/><path d="m701.715 229.802 2.732-5.316 3.579 2.126-4.089 7.598-3.229-2.431z" fill="url(#au)"/><path d="m865.536 113.804c.944 0 1.709-.496 1.709-1.108s-.765-1.108-1.709-1.108c-.943 0-1.708.496-1.708 1.108s.765 1.108 1.708 1.108z" fill="#9ac8d8"/><path d="m616.032 152.613c.944 0 1.709-.496 1.709-1.108 0-.611-.765-1.107-1.709-1.107s-1.709.496-1.709 1.107c0 .612.765 1.108 1.709 1.108z" fill="#9ac8d8"/><path d="m966.23 254.241c.944 0 1.709-.496 1.709-1.108s-.765-1.107-1.709-1.107-1.709.495-1.709 1.107.765 1.108 1.709 1.108z" fill="#9ac8d8"/><path d="m804.542 307.469-48.665 13.133c-2.492.673-5.769-.183-7.325-1.912l-14.549-16.212c-1.551-1.729-.789-3.675 1.706-4.348l48.665-13.134c2.491-.672 5.768.185 7.324 1.912l14.55 16.213c1.544 1.729.781 3.676-1.706 4.348z" fill="#000" opacity=".1"/><path d="m802.301 301.673-45.498 12.281c-2.33.629-5.394-.172-6.844-1.788l-13.603-15.159c-1.451-1.616-.738-3.436 1.592-4.065l45.497-12.281c2.33-.628 5.395.173 6.846 1.789l13.603 15.159c1.451 1.619.737 3.439-1.593 4.064z" fill="#f0f5f7"/><path d="m803.438 304.684-47.103 12.713c-2.408.651-5.583-.178-7.085-1.852l-14.082-15.691c-1.505-1.673-.763-3.557 1.649-4.208l47.097-12.712c2.408-.651 5.584.178 7.085 1.851l14.082 15.691c1.501 1.674.765 3.558-1.643 4.208z" fill="#204b9d"/><path d="m761.168 312.845 40.089-10.82c2.33-.629 3.042-2.449 1.592-4.065l-13.603-15.158c-1.451-1.617-4.515-2.418-6.845-1.789l-40.26 10.866z" fill="url(#av)"/><path d="m802.849 301.119-13.603-15.159c-1.451-1.616-4.515-2.417-6.845-1.788l-37.957 10.245 16.724 18.428 40.089-10.82c.697-.188 1.25-.483 1.643-.848z" fill="url(#aw)"/><path d="m755.095 316.067c-.852-.002-1.699-.112-2.523-.328-1.648-.43-3.077-1.249-4.024-2.308l-13.603-15.159c-1.09-1.214-1.485-2.692-1.081-4.054.437-1.477 1.746-2.609 3.59-3.11l45.498-12.281c1.44-.388 3.118-.371 4.725.048 1.648.431 3.077 1.25 4.024 2.308l13.604 15.162c1.09 1.216 1.484 2.693 1.081 4.054-.438 1.477-1.747 2.609-3.59 3.111l-45.498 12.279c-.719.189-1.46.282-2.203.278zm-17.595-20.77c0 .037.047.201.267.446l13.603 15.162c.967 1.077 3.321 1.66 4.94 1.224l45.498-12.281.493 1.83-.493-1.83c.685-.184.916-.456.941-.52 0-.039-.046-.201-.267-.448l-13.603-15.16c-.966-1.078-3.321-1.662-4.939-1.224l-45.498 12.279c-.685.186-.917.458-.942.522z" fill="url(#ax)"/><path d="m779.584 301.129c-.1 0-.2 0-.301-.006-1.415-.058-2.744-.511-3.741-1.279-1.096-.844-1.696-2.013-1.648-3.211.048-1.197.741-2.314 1.901-3.067 1.055-.684 2.416-1.03 3.833-.973 1.416.057 2.744.512 3.74 1.279 1.096.843 1.697 2.013 1.649 3.211l-1.126-.045 1.126.045c-.048 1.196-.742 2.314-1.902 3.066-.98.637-2.224.98-3.531.98zm-.248-6.288c-1.681 0-3.149.852-3.191 1.884-.043 1.072 1.466 2.076 3.229 2.146s3.348-.803 3.391-1.879c.043-1.077-1.466-2.075-3.229-2.147-.067-.003-.133-.004-.2-.004z" fill="#fff"/><path d="m776.17 296.65c-.177-.151-.394-.247-.625-.275-.23-.029-.464.011-.672.114-.252.087-.469.252-.621.47s-.232.478-.228.744c0 0-.058.948 1.39 2.071 0 0-.501-.992.703-1.505 0 0 .687-.348 1.316.108.001-.001-1.394-.838-1.263-1.727zm7.779-2.312s1.368 1.461 1.058 2.898c0 0-.287-1.012-1.448-.644-.232.052-.445.169-.614.336-.169.168-.287.38-.341.611 0 0 .162-1.533-.865-2.054 0 0 .342-1.929 2.21-1.147z" fill="#204b9d"/><path d="m762.573 314.35-4.365 1.112c-2.527.94-7.209.326-8.659-1.29l-14.604-15.896c-1.451-1.615-2.42-5.688 1.872-6.934l4.193-1.065" fill="#fff"/><path d="m776.493 297.651c.023.037-1.998-2.402 1.59-3.345 3.589-.944 4.756 1.466 4.917 1.957.075.315.048.646-.077.945s-.342.551-.619.719c0 0 1.568-2.193-1.991-2.978 0 0-2.402-.502-3.789.958.001 0-.727.582-.031 1.744z" fill="#204b9d" opacity=".14"/><path d="m750.617 295.954s.602.648 2.087.078-.155-1.203-2.087-.078zm2.505-3.158s-.356 1.004 1.381 1.289c1.736.285 7.907-1.148 8.07-2.296.162-1.148-8.984.643-9.451 1.007z" fill="#204b9d" opacity=".09"/><path d="m766.039 283.171 1.904-.381 1.307-3.228-1.863.335z" fill="#204b9d"/><path d="m754.28 282.084s.559 1.99 0 3.111c-.559 1.12 3.149 1.048 3.149 1.048l.346-4.157z" fill="#c7d9e8"/><path d="m753.41 277.983s2.68-2.483 4.708.053c1.104 1.382.935 5.92.026 5.92-.593 0-2.678.269-3.705-1.324-.165-.261-.293-.545-.379-.842-.251-.838-1.494-.987-.65-3.807zm1.085 6.452s-3.752 1.974-4.187 3.158c-.434 1.184 2.093 2.078 2.093 2.078l1.223 3.487s2.107 1.719 8.255-1.153c0 0 .427-.038-.125-1.654 0 0-.822-1.864-.75-2.443.071-.579-.119-1.815-.632-2.328-.512-.513-1.653-1.697-5.877-1.145z" fill="#c7d9e8"/><path d="m750.747 286.972s-4.608 2.483-4.716 3.305 4.735 3.484 4.716 3.795.619 1.88.432 1.935c-.186.055 1.419.019 1.643-.466.224-.486-1.633-4.48-2.678-5.264l3.424-1.494s.793-3.342-2.821-1.811zm8.14-2.205s2.358.319 3.15 1.067c.792.747 2.82 1.129 2.82 1.129l2.452-3.22s.187-1.792.709-2.016c.523-.224.762.264.673.622-.09.358-.56 1.627-.56 1.627s-.859 4.396-2.725 5.442l-5.118-1.549z" fill="#c7d9e8"/><path d="m768.324 283.01.644-1.597s-.033-.185-.279-.168c-.247.017-.993.041-.993.041s-.159.026-.279.358c-.106.352-.194.71-.262 1.071 0 0 .88.405 1.169.295z" fill="#e8f2f7"/><path d="m758.313 278.336s-1.405.768-2.873.74c-.676-.013.087 2.186-.28 1.988-.49-.265-1.195.443-.816 1.285s-1.858-2.079-1.706-3.01c.153-.931.262-1.232.262-1.232l-.485.45s.413-1.047.71-1.047-.147-.396-.147-.396.669-.022.93 0c.26.022 3.413-1.622 4.405 1.222z" fill="#0a628e"/><path d="m757.618 283.976s-1.323.047-2.164-1.073-.523-.084-.335.537c.187.621 1.769 1.988 1.994 2.368.226.379.634-.572.502-.945-.064-.156-.108-.319-.129-.485zm-7.36 6.251c-.333-.148-.689-.239-1.052-.27-.524-.026 2.15-.944 2.543-1.154.394-.21.99-.161 1.373.615s1.563 1.352 1.957 1.246c.393-.105 1.299-.394 1.068.013-.231.408-1.488 1.115-1.41 1.482.079.367.814 1.367 1.535 1.505 0 0-1.575.201-2.629-.378l-1.231-3.591-.502-.241zm10.326-3.443s.052 2.331-.236 2.634.566.554.52.566.66 1.706.633 2.201c0 0 .584-.159.531-.487 0 0 .027-.656-.372-1.587l-.567-1.568-.082-.455 4.428 1.297s1.468-.685 2.336-4.079l.448-1.68.306-1.126.414-1.03s.141-.259-.373-.229-.739.037-.739.037-.336-.1-.42.472l-.256.962.311.116.043.994s-1.876 4.074-2.198 4.214l-.462.518zm-9.666 7.163s1.279.287 1.326-.276c0 0 .602 1.313.602 1.873 0 0-.702.468-1.344.486z" fill="#000" opacity=".1"/><path d="m751.196 296.891c-.381 0-.657-.079-.825-.239-.064-.058-.112-.132-.14-.213-.028-.082-.035-.17-.021-.255.001-.007.004-.013.008-.018.004-.006.009-.011.014-.014.006-.004.012-.007.019-.008.006-.001.013-.001.02 0 .006.002.013.004.018.008.006.004.011.009.014.014.004.006.006.012.008.019.001.007.001.013-.001.02-.01.069-.003.139.02.205s.062.124.114.171c.219.201.786.362 2.251-.043.009 0 1.244-.444 1.282-.952.014-.182-.137-.358-.448-.524-.005-.003-.011-.007-.015-.012s-.007-.011-.009-.017c-.002-.007-.002-.013-.002-.02.001-.006.003-.012.006-.018s.007-.011.012-.015c.005-.005.011-.008.017-.01.007-.002.013-.003.02-.002.006.001.013.003.018.006.35.185.518.394.502.62-.043.573-1.304 1.02-1.352 1.039-.497.152-1.011.239-1.53.258z" fill="#fff"/><path d="m751.146 297.593c-.885 0-1.451-.19-1.685-.566-.284-.456.031-1.004.045-1.026.007-.011.018-.019.03-.022.013-.003.027-.001.038.005.011.007.019.018.023.031.003.012.001.026-.005.037 0 .005-.301.519-.046.923.255.403 1.003.584 2.171.494.013-.001.027.004.037.012.01.009.016.022.017.035s-.004.026-.012.036c-.009.01-.022.017-.035.018-.206.016-.398.023-.578.023zm2.135-.173c-.013.001-.026-.003-.036-.012s-.016-.021-.017-.035c-.001-.013.003-.026.012-.036s.021-.016.034-.017c.01 0 1.065-.171 1.294-.717.002-.006.005-.013.01-.018.004-.005.01-.009.016-.012.007-.003.014-.005.021-.005s.013.001.02.004c.006.002.012.006.017.011s.009.011.011.018c.002.006.003.013.003.02-.001.007-.003.014-.006.02-.25.602-1.325.771-1.371.778zm1.762-1.574c-.008-.001-.017-.003-.025-.008-.007-.005-.013-.011-.018-.019-.004-.008-.006-.016-.006-.025s.003-.018.007-.026c0 0 .248-.407.081-.802-.141-.33-.526-.565-1.144-.697-.007-.001-.013-.004-.018-.007-.006-.004-.011-.009-.014-.014-.004-.006-.006-.012-.008-.018-.001-.007-.001-.013.001-.02.003-.013.011-.024.022-.031.011-.008.025-.01.038-.008.652.14 1.061.393 1.215.757.188.443-.076.876-.087.894-.005.007-.011.013-.019.017s-.016.007-.025.007zm1.976-1.178h-.075c-.013 0-.026-.006-.036-.015-.009-.009-.014-.022-.014-.035 0-.014.005-.027.014-.036.01-.009.023-.015.036-.015h.064c.545 0 4.502-.068 6.452-1.967.516-.502.713-.937.588-1.293-.143-.401-.654-.574-.815-.589-.006 0-.013-.002-.019-.005s-.011-.007-.015-.012-.007-.011-.009-.017c-.002-.007-.003-.013-.002-.02 0-.006.002-.013.005-.019s.007-.011.012-.015.011-.008.018-.01c.006-.002.013-.003.019-.002.177.017.742.21.903.656.14.396-.066.866-.612 1.398-1.104 1.079-2.84 1.563-4.099 1.78-.798.137-1.605.209-2.415.216zm1.561 1.38c-.777.007-1.554-.06-2.318-.2-.007-.001-.013-.004-.019-.008-.005-.003-.01-.008-.014-.014-.003-.005-.006-.011-.007-.018-.001-.006-.001-.013 0-.019.003-.013.012-.025.023-.032s.025-.009.038-.007c.024.005 2.478.52 5.068-.114.013-.003.026-.001.038.006.011.007.019.018.022.031.002.006.002.013.001.02-.001.006-.003.012-.006.018-.004.005-.008.01-.014.014-.005.004-.011.007-.017.008-.916.216-1.854.321-2.795.315zm4.293-.98c-.013.002-.027-.001-.038-.009s-.018-.02-.02-.033.001-.027.009-.038.02-.018.033-.02c.025-.009 2.47-.841 2.443-2.05 0-.013.005-.026.014-.036.01-.009.022-.015.035-.015s.026.005.035.014c.01.009.015.022.015.035.012.543-.409 1.069-1.253 1.566-.401.231-.822.426-1.258.581zm9.476 2.291c-.012 0-.024-.004-.033-.012s-.015-.018-.017-.03c-.449-2.942 2.468-3.981 2.497-3.991.013-.004.027-.003.039.003s.021.016.025.028c.005.013.004.026-.002.038s-.016.021-.029.026c-.029.01-2.867 1.023-2.431 3.881.002.013-.002.026-.009.037-.008.01-.02.018-.033.02zm5.45 4.874c-4.013-.226-5.258-3.311-5.27-3.339-.005-.012-.005-.026 0-.038.005-.013.015-.022.028-.027.012-.005.026-.005.038 0 .012.006.022.016.027.028.012.031 1.232 3.053 5.183 3.276.007 0 .013.002.019.005s.012.007.016.012.008.01.01.017c.002.006.003.013.003.019-.001.007-.002.013-.005.019s-.007.011-.012.016c-.005.004-.011.008-.017.01s-.013.003-.02.002zm-5.497-.407c-.012 0-.024-.004-.033-.012-3.363-2.91-1.033-6.952-1.009-6.992.004-.005.008-.011.013-.015s.011-.007.018-.008c.006-.002.013-.002.019-.001.007.001.013.003.019.006.011.007.019.018.023.031.003.013.001.027-.005.038-.025.04-2.308 4.014.988 6.865.01.009.016.021.017.034.001.014-.003.027-.012.037-.005.005-.011.009-.017.012-.007.003-.014.005-.021.005zm13.935-2.539c-.008 0-.016-.002-.023-.006-.012-.006-.021-.017-.025-.029-.003-.013-.002-.027.004-.039 1.533-2.883-.53-4.936-.551-4.957-.009-.009-.014-.022-.014-.035s.005-.026.014-.035c.005-.005.01-.008.016-.011.006-.002.013-.004.02-.004.006 0 .013.002.019.004.006.003.012.006.016.011.022.02 2.137 2.127.57 5.075-.004.008-.011.015-.019.02-.008.004-.018.007-.027.006zm1.867-4.619c-.011 0-.022-.004-.031-.011s-.015-.016-.018-.027c-.435-1.736-2.374-2.39-2.393-2.398-.006-.001-.012-.005-.017-.009s-.009-.009-.012-.015-.005-.013-.006-.019c0-.007.001-.013.003-.02.004-.012.013-.023.025-.029s.025-.007.038-.003c.02.007 2.007.679 2.459 2.469.002.006.002.012.002.019-.001.006-.004.013-.007.018-.003.006-.008.011-.013.015-.005.003-.011.006-.018.008zm-3.085 7.754c-.011 0-.021-.003-.03-.01-.008-.006-.014-.015-.017-.025-.002-.006-.003-.013-.003-.019.001-.007.003-.013.006-.019s.007-.011.012-.015.011-.007.017-.009c1.839-.574 2.678-1.535 3.058-2.239.242-.429.376-.912.388-1.405 0-.006.001-.013.004-.019.002-.006.005-.012.01-.017.004-.005.01-.009.016-.011.006-.003.012-.005.019-.005.006-.001.013 0 .019.002.007.002.012.006.017.01s.009.01.012.016c.002.006.004.013.004.019 0 .026.076 2.626-3.517 3.746-.005.001-.01.001-.015 0z" fill="#fff"/><path d="m911.63 117.101-3.233.873c-.085.021-.174.02-.259-.002-.085-.023-.163-.066-.227-.126l-1.996-1.878c-.1-.115-.052-.245.113-.289l3.233-.873c.086-.021.174-.02.259.002.085.023.163.066.227.126l1.996 1.878c.103.115.053.245-.113.289z" fill="url(#ay)"/><path d="m896.383 88.7982c1.79-6.1087 7.374.028 7.374.028 1.815 2.2788 2.194 2.641 1.698 5.1364l-.478.2168h.434c-.03.1445-.063.296-.1.4545-.024.1084-.046.2117-.066.3131l-.27.0782.231.1154c-.059.301-.101.5679-.132.8138l-1.545.4184s.924.1063 1.499.1856c-.036 1.4519.573 2.069 1.633 4.1206 1.43 2.77-2.258 3.72-2.258 3.72-2.609.449-3.311-2.654-4.076-4.4832-.773-1.8633-2.068-3.537-2.068-3.537-.525-1.1689-.929-2.1362-1.234-2.952l1.036-.7024-1.245.1235c-.1-.289-.187-.5566-.26-.8028l1.672-.8579-1.848.1887c-.271-1.177-.2-1.8854.003-2.5777z" fill="url(#az)"/><path d="m896.86 102.455c1.018-.123 1.787.084 2.366.428l-.248.783.578-.559c1.016.789 1.298 1.976 1.298 1.976 1.052 2.408 3.469 2.885 3.469 2.885 2.766 1.281.878 4.142.878 4.142-2.864 2.509-4.433 1.214-5.191-.033l1.806-1.204-2.131.581c-.109-.244-.199-.497-.269-.755l.98-.575-1.054.132c-.416-1.697-2.292-4.027-2.292-4.027-1.84-3.2-.19-3.774-.19-3.774z" fill="url(#aB)"/><path d="m910.25 106.571s-1.997-2.681.028-4.76c2.025-2.0789 3.383-.714 3.482-4.3285.098-3.6142 2.632-5.2618 4.35-4.6247 0 0 1.19.7847 1.009 2.5687-.182 1.7841-.612 4.2464-.724 6.5475-.13 2.706-4.222 11.785-8.145 4.597z" fill="url(#aC)"/><path d="m908.532 117.599c-.012 0-.024-.005-.033-.013-.009-.009-.015-.02-.015-.033 0-.064-.402-7.084-2.725-12-2.563-5.432-4.039-9.2254-4.384-11.2754-.002-.0062-.001-.0125 0-.0187s.004-.012.008-.0171c.003-.0052.008-.0095.013-.0129.006-.0033.012-.0055.018-.0065.012-.002.025.0009.036.0082.01.0073.018.0184.02.031.344 2.0409 1.817 5.8264 4.378 11.2504 2.329 4.933 2.729 11.971 2.732 12.04.001.007 0 .013-.002.019s-.005.012-.01.017c-.004.004-.009.008-.015.011s-.012.004-.018.005z" fill="url(#aD)"/><path d="m910.941 116.869c-.013 0-.025-.005-.034-.014s-.014-.021-.014-.034c0-.018-.008-1.837.502-4.496.47-2.455 1.491-6.148 3.682-9.808.003-.006.008-.011.013-.014.005-.004.011-.007.017-.008.006-.002.012-.002.019-.001.006.001.012.003.017.006.011.007.019.018.022.03s.002.026-.005.037c-2.184 3.647-3.202 7.329-3.67 9.776-.509 2.65-.502 4.46-.502 4.477 0 .013-.005.025-.014.034-.009.01-.021.015-.034.015z" fill="url(#aE)"/><path d="m907.198 117.619c-.021 0-.078-.089-.084-.111-.283-1.077-.701-2.115-1.245-3.087-.816-1.442-2.327-3.665-4.897-6.068-.004-.004-.008-.009-.01-.015-.003-.006-.004-.012-.004-.019 0-.006.001-.013.004-.018.002-.006.006-.012.01-.016.009-.009.022-.014.034-.014.013 0 .025.005.035.014 2.579 2.413 4.097 4.646 4.916 6.095.557 1.004.99 2.072 1.291 3.18.001.007.002.013.001.019-.001.007-.003.013-.006.018-.003.006-.008.01-.013.014s-.01.007-.017.009z" fill="url(#aF)"/><path d="m911.799 116.928h-.008c-.014.034-.035.063-.064.086-.028.023-.061.038-.097.044l-3.233.873c-.085.021-.174.02-.259-.002-.085-.023-.163-.066-.227-.126l-1.996-1.878c-.019-.018-.033-.04-.042-.065-.009-.024-.012-.051-.009-.077h-.005v4.686c.004.043.022.083.052.115l1.996 1.878c.064.06.142.103.227.125s.174.023.259.001l3.233-.871c.154-.042.133-.136.133-.263z" fill="url(#aG)"/><path d="m908.216 117.94v4.658c-.113-.01-.22-.059-.301-.138l-1.996-1.878c-.03-.032-.048-.072-.052-.115v-4.686c-.007.113.16.241.16.241l1.892 1.78c.082.076.186.124.297.138z" fill="url(#aH)"/><path d="m892.53 130.334h.501v23.593h-.501z" fill="#fff"/><path d="m909.683 165.174-.02-.02-9.964-9.361 23.835-6.602.021.02 10.416 9.544-.088.023zm-9.785-9.332 9.813 9.22 24.056-6.357-10.26-9.402z" fill="#74baff" opacity=".57"/><path d="m892.014 150.082-.021-.019-9.964-9.361 23.835-6.602.021.019 10.416 9.545-.088.023zm-9.786-9.331 9.814 9.22 24.056-6.357-10.26-9.402z" fill="#fff" opacity=".57"/><path d="m909.942 143.021c-.027.009-1.971.539-3.621 1.404-3.271 1.706-4.367 7.097-4.367 7.097l15.251-4.162s-2.123-5.996-7.263-4.339z" fill="#2dba2d"/><path d="m908.486 141.423c-.143.065.509 1.964-.313 2.504 0 0 2.867 2.793 4.596.267 0 0-.749-.869-.946-3.273z" fill="url(#aI)"/><path d="m908.826 130.988s-4.045 1.579-3.76 5.017c.285 3.437 2.332 6.347 3.76 6.187 1.428-.161 3.997-.061 4.807-2.629s2.141-10.986-4.807-8.575z" fill="#c7d9e8"/><path d="m905.663 138.699c-.029-.079-1.734-.72-1.026.587.707 1.307 2.107 2.188 2.074 1.451zm8.426-1.594c.017-.09 1.598-1.347 1.076.191-.521 1.538-1.773 2.917-1.836 2.186z" fill="#c7d9e8"/><path d="m906.094 139.537s-1.724-2.308-1.629-3.262-.083-1.883.38-2.998c.464-1.116 1.652-1.44 1.652-1.44s-.349-1.777 1.552-2.225c1.902-.447 6.291-.523 6.684-1.003 0 0-.643 1.003-1.072 1.059-.428.057 1.152.22 1.393.241s-1.081.502-1.112.524.896.448 1.129.418c0 0-.026.402-.772.417-.745.015 1.611 2.72.29 5.171l-.795 1.385s.367-4.065-.025-4.165c0 0-1.004-1.204-1.214-1.57 0 0-2.463 1.729-3.926 1.767l.781-1.143-2.137.546s-.017 2.038-.776 2.762c0 .004-.654 2.381-.403 3.516z" fill="#1a6aa0"/><path d="m910.735 144.25.481 1.011v-1.106l.696-.006.402 1.216-1.472.656-1.076-.778.314-.699z" fill="#2dba2d"/><path d="m912.096 142.702s.216.188-.18.702c-.289.375-.719.75-.702.751.518.039.895.546 1.013 1.079 0 0 1.099-1.777.647-2.316.003-.002-.386-.241-.778-.216zm-3.567.435s1.242 1.204 2.229 1.113c.039 0-.501.888-.618 1.45 0 0-1.972-1.174-2.091-1.874 0 .003 0-.508.48-.689z" fill="#4cd64c"/><path d="m907.273 133.263c.035.057-.066.849-.217 1.225-.29.714.987 1.349.993 1.863.009.815-1.064 1.168-.134 1.739s1.399.444 1.08 1.436c-.318.991.407 2.557 1.476 2.393 0 0-1.752.46-2.573-.122-.432-.289-.812-.65-1.123-1.067 0 0-.281-.797-.578-.993-.257-.168-2.262-5.286-.852-6.402.222-.176.928-1.708 1.928-.072z" fill="#351910" opacity=".12"/><path d="m906.964 131.804s-.929-1.751 2.95-2.092l-.509.731s.71-.053 1.811-.223l-1.659.873 2.647.163-2.29.709-1.333.493s-1.297.479-1.617-.654zm3.979 4.397s1.414-1.282 3.01-.527c0 0 .266 1.946-.709 2.214-1.671.458-2.194-.044-2.301-1.687zm-3.954.715s1.806-1.419 3.131-.548c0 0 .253 1.913-.738 2.308-1.957.77-2.279-.054-2.393-1.76z" fill="#000" opacity=".1"/><path d="m911.44 136.681c-.192-.193-.394-.276-.602-.247-.345.047-.607.389-.61.393l-.213-.152c.014-.018.344-.451.817-.518.291-.04.565.066.812.314z" fill="#5aabe2"/><path d="m911.177 136.177s1.471-1.333 3.13-.548c0 0 .278 2.025-.737 2.307-1.738.474-2.282-.048-2.393-1.759zm-3.964.754s1.807-1.419 3.132-.548c0 0 .253 1.913-.739 2.308-1.959.773-2.28-.049-2.393-1.76z" fill="#fff"/><path d="m935.419 154.403s-5.464 2.217-7.479 3.972c0 0 2.271-4.154 6.685-6.342 0 0 1.368-.987.794 2.37z" fill="#c7d9e8"/><path d="m937.578 154.128-5.713 1.004s-1.305-2.649-2.802-2.578c0 0 4.461-1.98 7.438-1.266 0 .004 1.574.109 1.077 2.84z" fill="#05a"/><path d="m928.206 158.16s3.689-2.342 5.82-3.111c0 0-.673-.903-.721-.737-.25.871-2.517.831-5.099 3.848z" fill="#000" opacity=".1"/><path d="m932.813 161.237c.854-.834 1.46 11.47 3.103 13.075 0 0 .683-6.716 1.172-8.622.588-2.287 1.076-3.512.095-5.719z" fill="#12435b"/><path d="m936.541 160.195c-1.827-4.563 1.834-8.109-.492-8.743 0 0-3.173-1.163-1.965-3.653 0 0 1.692-2.961-1.691-3.385-3.384-.423-2.752 5.541-1.481 5.419.743-.073 1.169 1.032.849 1.317-.208.186-2.048 1.094-2.258 1.462-1.53 2.686-7.992 5.318-7.992 5.318s6.882-.941 10.212-3.11" fill="#c7d9e8"/><path d="m935.485 145.445s-.24 3.11-1.585 3.605c0 0 .401-2.816-.462-2.248" fill="#0a628e"/><path d="m935.485 145.445s-.63-1.185-1.433-1.567l-.278-.146h-.568c-.725-.191-.966-.251-2.018.489-1.053.739-.796 1.264-.796 1.264 1.026-.049 1.281.474 1.281.474-.439 1.288 1.447.336 1.447.336l1.587.635s.903-.768.778-1.485" fill="#0a628e"/><path d="m932.14 147.8c.245 1.749 1.756 1.247 1.756 1.247 1.345-.492 1.589-3.602 1.589-3.602-.153-.389-.502.14-.816.374s-.728.111-1.372-.14c-.644-.252-.886.01-.933.383-.048.373-.748.267-.748.267-.157 1.385.44.451.44.451s.392-.485.607.178c.214.663-.523.842-.523.842z" fill="#0a4177"/><path d="m928.682 175.541s.524.747 1.011.702c.488-.045.423-1.11-1.011-.702zm6.502-.936s.079.85.586.675c.507-.176.172-.467-.586-.675z" fill="#1f9ce8"/><path d="m935.245 160.386s-4.268.839-4.885-.934c-1.26 8.383-.853 7.425-.51 15.63 0 0 1.881-8.473 4.303-9.693 2.174-1.095 1.721-3.871 1.977-5.302zm-2.432-5.057s1.733 2.164 1.537 3.032l1.131-.697s-1.542-2.687-2.668-2.335z" fill="#1d5577"/><path d="m930.634 159.874s-.978 2.762 6.896 1.421c-.135-.359-.218-.736-.247-1.119z" fill="#12435b"/><path d="m929.658 155.87s.903-.457.703.562c0 .535-.064 1.898-.064 1.898l-.26.984c.602 2.462 7.525 1.103 7.525 1.103-1.144-2.043-.865-2.27-.301-4.346.813-3.01.138-4.291.138-4.291-.184-.897-2.522-1.34-2.522-1.34l-1.955.301h-1.481l-2.376 1.806s-.849 2.989.593 3.323z" fill="#05a"/><path d="m933.267 166.059s-1.489-1.961-1.631-.222c-.141 1.739.282 2.542-.715 2.693 0 0-.456-.948-.673 1.043-.205 3.935.083 3.427-.401 5.509.003 0 1.739-7.455 3.42-9.023z" fill="#12435b"/><path d="m930.521 154.521s-.364-3.317.839-3.772c.465-.176 2.428-.829 2.805-.453l2.432.736z" fill="#05a"/><path d="m930.151 155.552s-5.834 1.886-7.854 2.251c0 0 7.361-1.933 7.747-3.779 0 0 .272-.937.832-.209.559.729-.131 1.004 0 1.321.13.317.97 1.705.41 1.853-.56.147-.041.602-.17.928-.128.326-.549.803-.646.695-.097-.107 0-.653 0-.933s.283-2.07-.319-2.127z" fill="#000" opacity=".1"/><path d="m932.388 147.691s-.82.892-.747 1.625c0 0 2.719.983 5.003.037 0 0-.327-2.555-1.163-3.913l-1.906 1.522zm-.801-1.042s.185 1.158-.152 1.475c0 0 .729-.765.616-1.344 0-.003-.462-.396-.464-.131z" fill="#0a4177"/><path d="m932.92 150.744s2.501 1.204 1.143 2.623c-1.357 1.418-2.254 1.906-.985 3.024s.997 3.388-.61 3.92l-.252.352s2.845.188 4.635-.362c0 0-.969-1.551 0-4.075 0 0 1.275-4.083-.35-4.934 0 0-2.057-1.232-3.581-.548z" fill="#000" opacity=".1"/><path d="m905.202 157.223-1.154.361c-.317.1-.473-.019-.897-.35l-.649-.563c-.318-.283-.332-.549.252-.71l1.091-.309c.317-.1.635.009.96.301l.548.563c.289.292.387.516-.151.707z" fill="#cbe6f4"/><path d="m888.191 142.155-1.155.361c-.317.1-.471-.019-.896-.35l-.648-.564c-.318-.282-.332-.548.252-.709l1.09-.309c.318-.1.635.009.961.301l.548.563c.288.291.384.516-.152.707z" fill="#d2edf9"/><path d="m911.418 158.79-1.154.361c-.317.101-.473-.019-.897-.35l-.648-.564c-.319-.282-.333-.548.251-.708l1.091-.309c.317-.101.635.008.96.301l.548.563c.289.291.388.515-.151.706z" fill="#cbe6f4"/><path d="m901.069 145.027-1.154.361c-.317.1-.473-.018-.897-.351l-.648-.563c-.319-.282-.333-.548.251-.708l1.091-.31c.317-.1.635.009.96.301l.548.564c.285.291.382.515-.151.706zm2.481-3.495-1.155.36c-.317.1-.473-.019-.897-.35l-.648-.563c-.318-.283-.332-.549.252-.71l1.091-.309c.318-.1.635.009.96.301l.549.563c.289.287.387.507-.152.708z" fill="#d2edf9"/><path d="m914.352 157.909-1.154.361c-.317.101-.473-.019-.897-.35l-.649-.563c-.318-.283-.332-.549.252-.709l1.091-.309c.317-.101.635.009.96.301l.548.563c.289.292.387.515-.151.706zm6.553-4.794-1.155.36c-.317.1-.473-.019-.897-.35l-.648-.563c-.318-.283-.333-.549.251-.709l1.091-.31c.317-.1.635.009.96.301l.548.563c.29.292.388.516-.15.708zm-1.153 7.365-1.155.36c-.317.1-.473-.019-.897-.35l-.648-.563c-.318-.283-.331-.549.252-.71l1.091-.309c.317-.1.634.009.96.301l.548.563c.289.292.388.516-.151.708zm7.691-1.002-1.155.362c-.317.1-.473-.02-.897-.351l-.648-.563c-.318-.283-.331-.548.252-.709l1.091-.309c.317-.1.634.009.96.301l.548.563c.289.292.388.52-.151.706zm-.392-4.944-1.155.36c-.317.1-.472-.019-.896-.35l-.649-.563c-.318-.283-.332-.549.251-.71l1.092-.309c.317-.1.634.009.96.301l.548.563c.289.292.387.516-.151.708z" fill="#cbe6f4"/><path d="m922.109 143.966v-7.479l-8.124 11.835 6.601-1.87" fill="url(#aK)"/><path d="m892.781 130.334 12.271-3.143-11.917 15.895" fill="url(#aL)"/><path d="m697.491 229.098s2.876.176.422-3.29z" fill="#2dba2d"/><path d="m690.704 248.178s-1.885 4.453 4.18 3.277c0 0 2.952-1.249 8.096-2.074 2.693-.433 1.93-3.98-1.85-4.315s-7.398-1.844-10.426 3.112zm236.364-72.501s-1.54 4.098 4.525 2.922c0 0 2.865-.889 5.488-1.974 1.383-.572 1.428-2.875-2.353-3.211-3.78-.335-6.396.959-7.66 2.263z" fill="#000" opacity=".1"/><path d="m719.301 187.262-.136-.147c1.029-.952-.131-2.681-.143-2.698l-14.36-20.054.162-.117 14.363 20.055c.213.329.379.687.493 1.062.233.797.103 1.454-.379 1.899z" fill="url(#aN)"/><path d="m713.709 189.105h.201v14.301h-.201z" fill="url(#aO)"/><path d="m714.052 194.908.147-.136 44.692 48.044-.146.136z" fill="url(#aP)"/><path d="m733.425 224.887c-.019-.077-.472-1.867-.549-2.897-.072-.978-.802-1.58-.808-1.586l-.009-.008-15.543-15.902.143-.141 15.538 15.899c.501.442.815 1.058.878 1.724.074 1.012.538 2.842.543 2.861z" fill="url(#aQ)"/><path d="m737.604 239.993-.129-.154c.903-.759.771-2.856.681-4.243-.094-1.474-1.757-4.616-1.773-4.644l-2.91-6.005.181-.087 2.91 6.001c.067.127 1.697 3.205 1.795 4.722.09 1.428.23 3.585-.755 4.41z" fill="url(#aS)"/><path d="m731.802 224.327.175-.098 3.203 5.697-.175.099z" fill="url(#aT)"/><path d="m794.114 284.025-2.326-2.592s-.86-.837-2.833-2.012c-1.954-1.165-5.859-.518-5.898-.51l-9.982 2.695-.052-.195 9.991-2.696c.746-.115 1.5-.178 2.255-.191 1.664-.025 2.94.219 3.789.726 1.996 1.19 2.84 2.006 2.874 2.046l2.33 2.595z" fill="url(#aV)"/><path d="m848.152 237.204-.2-.038c.014-.067 1.404-6.778 7.896-10.896.06-.041 6.337-4.341 14.412-5.309l.023.201c-8.027.961-14.261 5.234-14.323 5.277-6.421 4.071-7.795 10.699-7.808 10.765z" fill="url(#aW)"/><path d="m735.124 131.217c-.898-.011-1.791-.127-2.662-.345l.052-.194c.028.007 2.85.745 4.56 0h.013l52.042-14.371.053.194-52.035 14.369c-.605.259-1.329.347-2.023.347z" fill="url(#aX)"/><path d="m876.429 142.838.139-.145 25.92 24.891-.139.145z" fill="url(#aY)"/></g></svg>