<svg fill="none" height="274" viewBox="0 0 495 274" width="495" xmlns="http://www.w3.org/2000/svg" xmlns:xlink="http://www.w3.org/1999/xlink"><linearGradient id="a" gradientUnits="userSpaceOnUse" x1="270.527" x2="224.51" y1="243.666" y2="117.235"><stop offset="0" stop-color="#a2fcfe"/><stop offset=".08" stop-color="#a0f9fc" stop-opacity=".98"/><stop offset=".15" stop-color="#9af1f8" stop-opacity=".94"/><stop offset=".22" stop-color="#8fe3f0" stop-opacity=".86"/><stop offset=".3" stop-color="#81cfe5" stop-opacity=".75"/><stop offset=".37" stop-color="#6eb6d7" stop-opacity=".6"/><stop offset=".45" stop-color="#5796c6" stop-opacity=".43"/><stop offset=".52" stop-color="#3d72b2" stop-opacity=".22"/><stop offset=".59" stop-color="#204b9d" stop-opacity="0"/></linearGradient><linearGradient id="b" gradientUnits="userSpaceOnUse" x1="942552" x2="1026440" y1="113539" y2="285290"><stop offset="0" stop-color="#fff"/><stop offset=".19" stop-color="#fbfdff"/><stop offset=".38" stop-color="#eff7ff"/><stop offset=".58" stop-color="#dbecff"/><stop offset=".77" stop-color="#bedeff"/><stop offset=".96" stop-color="#9acbff"/><stop offset=".99" stop-color="#94c8ff"/></linearGradient><linearGradient id="c" gradientUnits="userSpaceOnUse" x1="274906" x2="251350" y1="43378.1" y2="41937.30000000001"><stop offset="0" stop-color="#2b4a96"/><stop offset=".13" stop-color="#365aa0" stop-opacity=".78"/><stop offset=".32" stop-color="#446ead" stop-opacity=".5"/><stop offset=".51" stop-color="#4f7eb7" stop-opacity=".28"/><stop offset=".69" stop-color="#5789be" stop-opacity=".13"/><stop offset=".86" stop-color="#5b90c3" stop-opacity=".03"/><stop offset="1" stop-color="#5d92c4" stop-opacity="0"/></linearGradient><linearGradient id="d" gradientUnits="userSpaceOnUse" x1="707137" x2="560808" y1="88025" y2="88025"><stop offset="0" stop-color="#fff"/><stop offset="1" stop-color="#bfdfff"/></linearGradient><linearGradient id="e" gradientUnits="userSpaceOnUse" x1="209.269" x2="209.269" y1="146.627" y2="113.83"><stop offset="0" stop-color="#5d92c4" stop-opacity=".2"/><stop offset="1" stop-color="#5d92c4" stop-opacity=".2"/></linearGradient><linearGradient id="f" gradientUnits="userSpaceOnUse" x1="211.929" x2="205.6" y1="146.63" y2="110.739"><stop offset=".01" stop-color="#004c94" stop-opacity=".4"/><stop offset=".09" stop-color="#497fb2" stop-opacity=".29"/><stop offset=".23" stop-color="#9ab8d5" stop-opacity=".16"/><stop offset=".39" stop-color="#d4e1ed" stop-opacity=".07"/><stop offset=".6" stop-color="#f5f8fb" stop-opacity=".02"/><stop offset=".99" stop-color="#fff" stop-opacity="0"/></linearGradient><linearGradient id="g" gradientUnits="userSpaceOnUse" x1="206.86" x2="206.86" y1="142.495" y2="112.165"><stop offset="0" stop-color="#5dedc4" stop-opacity=".9"/><stop offset=".15" stop-color="#54e3c9" stop-opacity=".91"/><stop offset=".38" stop-color="#3bc6d6" stop-opacity=".95"/><stop offset=".6" stop-color="#1aa0e8"/><stop offset=".65" stop-color="#1d9fe7" stop-opacity=".97"/><stop offset=".71" stop-color="#249ee3" stop-opacity=".88"/><stop offset=".79" stop-color="#309bdc" stop-opacity=".73"/><stop offset=".88" stop-color="#4198d3" stop-opacity=".53"/><stop offset=".97" stop-color="#5793c7" stop-opacity=".27"/><stop offset="1" stop-color="#5d92c4" stop-opacity=".2"/></linearGradient><linearGradient id="h"><stop offset="0" stop-color="#5d92c4" stop-opacity=".9"/><stop offset="1" stop-color="#5d92c4" stop-opacity=".2"/></linearGradient><linearGradient id="i" gradientUnits="userSpaceOnUse" x1="282.113" x2="282.113" xlink:href="#h" y1="146.861" y2="133.944"/><linearGradient id="j" gradientUnits="userSpaceOnUse" x1="79977.8" x2="79977.8" xlink:href="#h" y1="8011.87" y2="7755.46"/><linearGradient id="k" gradientUnits="userSpaceOnUse" x1="102418" x2="102418" xlink:href="#h" y1="10091.5" y2="9625.75"/><linearGradient id="l" gradientUnits="userSpaceOnUse" x1="195.216" x2="195.216" y1="114.542" y2="137.849"><stop offset="0" stop-color="#fff"/><stop offset=".47" stop-color="#fff" stop-opacity=".5"/><stop offset=".83" stop-color="#fff" stop-opacity=".14"/><stop offset=".99" stop-color="#fff" stop-opacity="0"/></linearGradient><linearGradient id="m" gradientUnits="userSpaceOnUse" x1="218.651" x2="218.651" y1="116.441" y2="139.748"><stop offset="0" stop-color="#fff"/><stop offset=".05" stop-color="#fff" stop-opacity=".82"/><stop offset=".1" stop-color="#fff" stop-opacity=".65"/><stop offset=".16" stop-color="#fff" stop-opacity=".49"/><stop offset=".22" stop-color="#fff" stop-opacity=".36"/><stop offset=".28" stop-color="#fff" stop-opacity=".25"/><stop offset=".36" stop-color="#fff" stop-opacity=".16"/><stop offset=".44" stop-color="#fff" stop-opacity=".09"/><stop offset=".54" stop-color="#fff" stop-opacity=".04"/><stop offset=".68" stop-color="#fff" stop-opacity=".01"/><stop offset=".99" stop-color="#fff" stop-opacity="0"/></linearGradient><linearGradient id="n" gradientUnits="userSpaceOnUse" x1="428206" x2="503026" y1="38213.80000000001" y2="38213.80000000001"><stop offset="0" stop-color="#61c2ff" stop-opacity="0"/><stop offset=".03" stop-color="#62c4ff" stop-opacity=".03"/><stop offset=".07" stop-color="#65c9ff" stop-opacity=".11"/><stop offset=".12" stop-color="#69d0ff" stop-opacity=".24"/><stop offset=".17" stop-color="#6fdbff" stop-opacity=".42"/><stop offset=".23" stop-color="#77e9ff" stop-opacity=".65"/><stop offset=".29" stop-color="#80faff" stop-opacity=".92"/><stop offset=".31" stop-color="#83ffff"/><stop offset=".66" stop-color="#83ffff"/><stop offset=".68" stop-color="#7df4ff" stop-opacity=".82"/><stop offset=".72" stop-color="#77e9ff" stop-opacity=".63"/><stop offset=".75" stop-color="#71deff" stop-opacity=".46"/><stop offset=".78" stop-color="#6cd6ff" stop-opacity=".32"/><stop offset=".82" stop-color="#68ceff" stop-opacity=".2"/><stop offset=".86" stop-color="#65c9ff" stop-opacity=".11"/><stop offset=".9" stop-color="#63c5ff" stop-opacity=".05"/><stop offset=".94" stop-color="#61c3ff" stop-opacity=".01"/><stop offset="1" stop-color="#61c2ff" stop-opacity="0"/></linearGradient><clipPath id="o"><path d="m0 0h495v274h-495z"/></clipPath><g clip-path="url(#o)"><path d="m267.362 69.7985-117.562 31.5095c-4.884 1.311-8.846-1.59-8.846-6.4743v-52.8005c0-4.8867 3.962-9.9092 8.846-11.2181l117.562-31.500015c4.886-1.311235 8.848 1.58987 8.848 6.476555v52.79116c0 4.8843-3.962 9.9068-8.848 11.2157z" fill="#c2e5ff"/><path d="m390.612 218.434-202.337 54.612c-10.361 2.796-23.991-.763-30.439-7.961l-60.4948-67.413c-6.4508-7.189-3.2781-15.283 7.0808-18.079l202.337-54.613c10.361-2.795 23.989.764 30.439 7.961l60.497 67.414c6.449 7.188 3.278 15.288-7.083 18.079z" fill="#000" opacity=".1"/><path d="m390.615 199.866-202.337 54.612c-10.361 2.796-23.991-.763-30.44-7.961l-60.4942-67.413c-6.4508-7.189-3.2781-15.283 7.0802-18.079l202.338-54.613c10.361-2.795 23.988.764 30.439 7.961l60.497 67.414c6.448 7.188 3.278 15.288-7.083 18.079z" fill="#204b9d"/><path d="m390.615 199.866-202.337 54.612c-10.361 2.796-23.991-.763-30.44-7.961l-60.4942-67.413c-6.4508-7.189-3.2781-15.283 7.0802-18.079l202.338-54.613c10.361-2.795 23.988.764 30.439 7.961l60.497 67.414c6.448 7.188 3.278 15.288-7.083 18.079z" fill="url(#a)"/><path d="m390.615 195.183-202.337 54.612c-10.361 2.796-23.991-.763-30.44-7.961l-60.4942-67.413c-6.4508-7.189-3.2781-15.283 7.0802-18.079l202.338-54.613c10.361-2.7956 23.988.763 30.439 7.961l60.497 67.414c6.448 7.188 3.278 15.288-7.083 18.079z" fill="url(#b)"/><path d="m314.062 150.917s-13.276 1.735-15.482 1.76c-2.205.026-9.951-1.517-26.198 1.607-16.248 3.123-18.456 9.995-18.456 9.995s5.097 17.48 20.312 15.653c15.215-1.826 28.311-13.14 35.404-15.43 7.092-2.29 19.019-11.005 19.019-11.005l-41.374 8.773z" fill="url(#c)" opacity=".44"/><path d="m310.468 97.8774s1.368-8.7408 4.175-9.8038c1.082-.4098 6.322-2.0559 7.209-1.1708l6.379 1.9481z" fill="#05a"/><path d="m330.301 117.23c.468-10.883 2.315-24.8783-3.112-26.3581 0 0-7.404-2.7138-4.587-8.5254 0 0 3.947-6.9097-3.948-7.8955-7.895-.9857-6.418 12.9274-3.454 12.6441 1.733-.1686 1.792 1.4727 1.047 2.1377-.487.4332-1.381.0445-2.363-.0913-8.731-1.2152-20.621-8.1039-20.621-8.1039s17.636 18.9497 23.829 17.704" fill="#c7d9e8"/><path d="m313.791 76.9376s-.6-1.2222 1.859-2.9479c2.458-1.7257 3.016-1.5852 4.709-1.1427h1.325l.651.3396 2.735 1.2105.608 2.4469s-.559 7.2586-3.701 8.4129c0 0 .936-6.5702-1.075-5.2426l-.597 1.2317s-2-1.0678-2-3.4116c-1.421-.6256-2.962-.9317-4.514-.8968z" fill="#0a628e"/><path d="m325.55 77.942s-.431 6.1628-3.573 7.3148c0 0 .936-6.5702-1.075-5.2426l-.597 1.2317s-1.639.5572-1.639-1.7889" fill="#0a4177"/><path d="m309.724 147.636s1.711 1.269 2.76.82c1.049-.45.115-2.782-2.76-.82zm15.898 6.659s2.878 1.073 3.1-.84c.223-1.913-1.238-1.293-3.1.84z" fill="#1f9ce8"/><path d="m312.971 113.898c-2.943 19.561-1.234 12.955-.433 32.113l8.364-18.966s.958 13.176 7.453 25.162c0 0 1.946-22.186 5.2-36.883 0 .002-19.144 2.709-20.584-1.426zm6.479-13.9787s4.046 5.0457 3.587 7.0717l2.642-1.625s-3.599-6.2709-6.229-5.4467z" fill="#1d5577"/><path d="m313.885 115.464s4.589 7.224 18.216 7.327c0 0 .794-3.082.728-4.393z" fill="#12435b"/><path d="m313.727 102.49c0 1.248-.149 4.43-.149 4.43l-.607 6.978c1.405 5.746 20.584 6.474 20.584 6.474 1.656-17.109-2.95-28.7345-2.95-28.7345-.19-3.0557-6.35-3.1283-6.35-3.1283l-6.837 3.1283-1.171-2.4094-1.789-1.049-4.449.1311-1.475 9.2746s4.795 3.7232 5.193 4.9052z" fill="#05a"/><path d="m324.252 95.2666c.384 4.1772 4.819 21.9604 4.819 21.9604s5.425-4.889 1.229-24.4658z" fill="#000" opacity=".1"/><path d="m327.861 103.719s8.055 9.186 8.614 2.18c0 0 0-2.941-8.614-2.18z" fill="#1d5577"/><path d="m324.346 93.3583s10.179 19.1157 11.216 25.2667c0 0 3.177-10.771-1.545-21.2604 0 0-3.843-11.8105-9.671-4.0063z" fill="#c7d9e8"/><path d="m322.532 91.2743 5.329 12.4447s6.844-.829 8.614 2.18c0 0-1.831-11.2389-7.024-16.142-.005 0-2.22-2.9409-6.919 1.5173z" fill="#05a"/><path d="m320.902 127.048s-3.913-7.444-4.243-3.386.658 7.755-1.206 8.703c0 0-1.065-2.212-1.568 2.435-.48 9.181-.235 6.353-1.347 11.211z" fill="#12435b"/><g fill="#000"><path d="m315.65 87.0879c-.017-.4144 3.278.206 4.498-2.283 0 0 2.199-2.5311 1.337 1.7444-.862 4.2756-3.358 8.7057-4.421 7.446s-1.21-1.6953-1.414-6.9074z" opacity=".1"/><path d="m335.398 117.841s-3.184-9.685-5.896-14.222c0 0 4.037 0 3.875.36-.836 1.939 1.831 4.587 2.021 13.862z" opacity=".1"/><path d="m313.884 94.213-1.99 3.3717c-.271.4683-3.36-2.6107-3.36 0 0 0 6.142 4.0793 5.35 7.2163 0 0 .679-7.4106.757-7.6424.077-.2318.11-3.7792-.757-2.9456zm3.208 4.5191s.298 4.0559 4.133 5.5379c0 .004-3.161 2.299-4.133-5.5379zm-19.301-13.0983s9.767 7.0572 11.509 7.1275l-.394 2.4819s-7.734-6.2143-11.115-9.6094z" opacity=".1"/><path d="m333.787 171.452-121.991 32.923c-6.245 1.686-14.461-.468-18.351-4.793l-36.471-40.641c-3.889-4.334-1.978-9.214 4.269-10.9l121.991-32.923c6.247-1.686 14.464.468 18.353 4.793l36.466 40.636c3.89 4.339 1.979 9.219-4.266 10.905z" opacity=".1"/></g><path d="m333.787 155.061-121.991 32.924c-6.245 1.686-14.461-.468-18.35-4.793l-36.464-40.641c-3.89-4.334-1.979-9.214 4.268-10.9l121.992-32.9235c6.247-1.6859 14.463.4683 18.352 4.7935l36.459 40.636c3.89 4.339 1.979 9.218-4.266 10.904z" fill="url(#d)"/><path d="m180.283 62.3338c2.201-2.516 2.423-5.9216.497-7.6066s-5.272-1.0114-7.473 1.5046c-2.201 2.5159-2.424 5.9215-.497 7.6066 1.926 1.685 5.272 1.0114 7.473-1.5046z" fill="#000" opacity=".1"/><path d="m202.731 56.3165c2.201-2.5159 2.424-5.9215.498-7.6066-1.926-1.685-5.272-1.0114-7.473 1.5046-2.201 2.5159-2.424 5.9215-.497 7.6065 1.926 1.6851 5.271 1.0115 7.472-1.5045z" fill="#000" opacity=".1"/><path d="m225.182 50.2996c2.201-2.5159 2.424-5.9215.497-7.6065-1.926-1.6851-5.271-1.0115-7.473 1.5045-2.201 2.516-2.423 5.9216-.497 7.6066s5.272 1.0114 7.473-1.5046z" fill="#000" opacity=".1"/><path d="m242.825 47.7156c-1.09.0184-2.155-.3259-3.028-.9787-1.198-.9179-1.859-2.3532-1.859-4.0344 0-3.3811 2.637-6.7341 6.002-7.6356 1.718-.4683 3.406-.1826 4.636.761 1.229.9436 1.859 2.3415 1.859 4.0368 0 3.3787-2.637 6.7317-6.001 7.6332-.525.1423-1.066.2155-1.609.2177zm2.74-10.9651c-.383.0024-.763.0551-1.131.1569-2.489.6673-4.59 3.3202-4.59 5.7951 0 1.0771.396 1.9739 1.113 2.5241.768.5878 1.826.7423 2.983.4309 2.489-.665 4.591-3.3202 4.591-5.7928 0-1.0771-.395-1.9739-1.114-2.5265-.535-.3962-1.187-.603-1.852-.5877z" fill="#4393c9"/><path d="m176.416 63.1064-4.088-5.1115 1.486-1.1894 2.29 2.8636 6.543-12.15 1.676.9038zm23.145-6.7435-4.088-5.1138 1.487-1.1895 2.29 2.8637 6.542-12.15 1.677.9038zm22.245-5.8584-4.091-5.1114 1.489-1.1895 2.29 2.8613 6.542-12.1477 1.677.9015z" fill="#1c5575"/><path d="m168.689 123.898s1.463-7.237-1.089-8.122c-.986-.342-5.748-1.693-6.516-.881l-5.669 2.449z" fill="#0b63ce"/><path d="m154.23 142.392c-.681-9.778-2.704-22.322 2.143-23.79 0 0 6.591-2.625 3.912-7.783 0 0-5.179-7.828 3.332-8.029 3.068-.073 4.852 1.267 5.182 4.87.117 1.262-.358 2.548-.499 3.747-.234 1.983-.283 3.573-1.238 3.512-1.562-.108-1.574 1.37-.888 1.948.45.379 1.269-.4 2.124-.14 3.222.981 21.61.311 21.61.311s-11.005 7.338-23.006 4.842" fill="#e8f2f7"/><path d="m168.298 116.713c3.222.981 21.609.311 21.609.311s-11.005 7.338-23.005 4.842" fill="#e8f2f7"/><path d="m157.939 106.506s1.438 4.547 2.981 6.917c0 0-1.002-5.887.838-4.742l.567 1.094s1.772-1.012 1.714-3.122c2.397-.702 4.146-1.145 4.071-1.859-.184-1.744-2.943-2.376-2.943-2.376s-3.552-.761-5.285 1.252c0 0-1.931 1.113-1.943 2.836" fill="#0a628e"/><path d="m163.753 108.124c0 .803.164 2.318-.021 2.7-.283.578-1.267-.061-1.267-.061l-.702-2.082c-1.51-.426-.838 1.243-.637 2.517.234 1.431-.201 2.225-.201 2.225-3.868-2.674-2.981-6.917-2.981-6.917s2.32-1.955 3.489.367c.609 1.211 1.03-.377 1.241.504.052.238.192.447.392.586.201.139.446.196.687.161z" fill="#0a4177"/><path d="m156.181 178.607s-3.323.424-2.796-1.227c0 0 2.063-1.213 2.796 1.227zm9.368-7.633s-3.323.424-2.796-1.227c0 0 2.061-1.213 2.796 1.227z" fill="#1f9ce8"/><path d="m169.459 139.708s1.66 14.171-6.165 29.243l-.129-17.957s-1.91 15.784-8.897 24.848c0 0 2.259-21.308-1.033-34.441-.007-.01 15.03 2.053 16.224-1.693zm-5.9-13.159s-3.512 4.643-3.044 6.453l-2.416-1.405s3.076-5.72 5.46-5.048z" fill="#1d5577"/><path d="m169.459 139.708s-1.999 4.748-9.576 6.654c-.804.204-2.016 13.649-2.948 13.778-.932.128-1.93-1.873-2.674-13.019 0 0-.625-2.533-1.405-3.915z" fill="#12435b"/><path d="m168.021 124.599.995 8.103.719 6.262c-1.126 5.205-17.137 4.338-17.137 4.338-.62-4.964.302-7.961 0-11.74-.63-7.858 1.496-12.176 1.496-12.176.602-2.971 4.849-2.971 4.849-2.971l6.229 2.644 1.002-2.199 1.602-.925 2.744.18 6.568.74s4.212 7.046-9.067 7.744z" fill="#2dba2d"/><path d="m167.071 127.617s-2.021-7.781-3.681-7.428c0 0-8.347 2.482 3.681 7.428z" fill="#000" opacity=".1"/><path d="m164.125 125.701s-.829 2.414-4.24 3.845c-.002 0 4.067.152 4.24-3.845z" fill="#000" opacity=".1"/><path d="m159.981 120.763c9.146 4.7-3.55 17.51-3.55 17.51s-2.17-.492-1.016-3.358c.431-1.072-2.576-1.269-1.494-3.212 1.494-2.677.672-5.915.902-9.835z" fill="#000" opacity=".1"/><path d="m165.086 128.401s-3.841 9.68-4.517 3.39c0 0-2.077-2.854 4.517-3.39z" fill="#0d374c"/><path d="m168.586 118.494s.899-.365 2.728 1.674c2.14 2.386 10.665-1.248 14.049-.805-1.42.693-2.901 1.249-4.426 1.662-1.285.354-3.006.192-4.294.984-.937.58-2.075 1.405-3.07 1.688-2.952.857-5.245.953-5.551.901 0 0 .032-3.228-.043-3.435-.074-.206-.192-3.397.607-2.669z" fill="#000" opacity=".1"/><path d="m160.971 119.466s11.394 13.688 18.817 16.306c0 0-13.649-.536-19.887-8.404.01 0-8.481-6.055 1.07-7.902z" fill="#e8f2f7"/><path d="m161.723 119.522 4.901 5.959s-4.918 4.857-5.821 7.865c0 0-10.209-7.457-4.812-13.231 0 0 2.456-2.817 5.732-.593z" fill="#2dba2d"/><path d="m163.149 150.992s1.562.098 2.468 2.093c1.512 3.337-2.639 8.015-.115 7.053 0 0 .937 2.575-1.121 5.078 0 0-.923-.74-1.087 3.726z" fill="#12435b"/><path d="m166.659 114.914c.37-.052-2.939.267-4.105-1.941 0 0-.913-2.316-1.159 1.601-.07 1.106-1.969 1.225-2.622 1.515-.609.272-1.848.469-1.934.79-.206.793 3.61 2.777 4.318 3.006.845.274-.516-2.81 1.625-3.341.234-.061 3.114-.85 3.116-1.134.002-.121.145-.409.761-.496zm-10.228 25.845s1.49-1.065 4.25-4.971c0 0 3.939.466-4.25 4.971z" fill="#000" opacity=".1"/><path d="m154.261 175.833c2.437-4.356 3.592-4.615 7.132-15.871 0 0-2.698 7.214-6.39-1.831-.009 0-.244 12.117-.742 17.702z" fill="#12435b"/><path d="m164.125 128.094s6.943 5.894 11.708 7.214c0 0-7.477-.892-13.155-5.289z" fill="#000" opacity=".1"/><path d="m188.66 139.436c-.485.002-.954-.174-1.319-.494-.364-.319-.6-.761-.661-1.242-.062-.481.054-.968.326-1.37.272-.401.681-.69 1.15-.811l32.701-8.563c.253-.066.517-.082.776-.046s.509.122.735.254.423.307.581.516c.158.208.274.446.34.699s.082.516.046.776c-.035.259-.122.508-.254.734s-.307.424-.515.582c-.209.158-.446.273-.699.339l-32.702 8.566c-.165.041-.335.062-.505.06z" fill="#1c5575" opacity=".07"/><path d="m196.082 150.573c-.485 0-.952-.177-1.315-.498-.364-.32-.598-.762-.658-1.242-.061-.481.055-.967.327-1.368.272-.4.681-.688 1.149-.809l52.073-13.427c.254-.07.521-.089.783-.055.262.033.515.119.744.251s.429.309.589.519c.159.211.276.451.342.707s.08.523.042.784c-.039.262-.128.513-.265.74-.136.226-.316.423-.53.579-.213.156-.455.268-.712.33l-52.07 13.426c-.163.041-.331.062-.499.063zm63.243-3.309c-.484-.001-.951-.178-1.314-.498-.363-.321-.596-.763-.657-1.243-.06-.48.056-.966.328-1.367.272-.4.681-.688 1.149-.809l44.144-11.333c.512-.131 1.054-.053 1.508.216.455.269.784.707.915 1.218.131.512.053 1.054-.216 1.509-.269.454-.707.783-1.219.914l-44.141 11.33c-.162.043-.329.064-.497.063zm30.746 6.346c-.484 0-.952-.176-1.316-.497-.363-.32-.598-.762-.659-1.242-.061-.481.055-.967.327-1.368s.681-.689 1.15-.811l22.127-5.72c.511-.132 1.053-.056 1.508.212s.785.705.918 1.216c.132.512.056 1.054-.212 1.509s-.706.785-1.217.917l-22.132 5.72c-.161.042-.327.063-.494.064z" fill="#1c5575" opacity=".13"/><path d="m236.777 140.177 1.171-15.969s.468-6.519-6.727-6.971c-8.158-.515-41.304-3.33-41.304-3.33s-6.729-1.07-7.465 5.372l-1.831 19.528s-.824 6.476 8.048 6.612l23.272 1.218z" fill="url(#e)"/><path d="m236.777 140.177 1.171-15.969s.468-6.519-6.727-6.971c-8.158-.515-41.304-3.33-41.304-3.33s-6.729-1.07-7.465 5.372l-1.831 19.528s-.824 6.476 8.048 6.612l23.272 1.218z" fill="url(#f)"/><path d="m180.612 138.797 1.831-19.528c.735-6.441 7.465-5.371 7.465-5.371s33.146 2.81 41.303 3.33c1.306.044 2.581.403 3.719 1.044-.937-1.342-2.597-2.526-5.517-2.711-8.16-.516-41.304-3.33-41.304-3.33s-6.729-1.07-7.467 5.371l-1.828 19.528s-.438 3.447 2.77 5.365c-.729-1.089-1.071-2.391-.972-3.698z" fill="url(#g)"/><path d="m261.232 146.861s-.303-2.915 3.856-3.98l34.698-8.872s2.532-.639 3.213 2.044z" fill="url(#i)"/><path d="m291.24 153.322s-.304-2.916 3.854-3.981l14.719-3.702s2.529-.639 3.21 2.044z" fill="url(#j)"/><path d="m189.912 139.029s-.805-3.257 3.856-3.981l24.38-6.394s2.531-.642 3.213 2.044z" fill="url(#k)"/><path d="m197.564 114.542-15.877 12.787-.986 10.52 29.027-22.296z" fill="url(#l)" opacity=".64"/><path d="m221 116.441-15.878 12.787-.983 10.52 29.025-22.296z" fill="url(#m)" opacity=".64"/><path d="m149.51 174.332s-4.164 10.391 9.988 7.645c0 0 7.849-1.747 12.34-9.521 1.747-3.025 3.8-5.306-5.023-6.088-8.822-.782-10.239-3.601-17.305 7.964z" fill="#000" opacity=".1"/><path d="m209.122 189.16c-2.095-.025-4.18-.295-6.212-.805l.121-.452c.066.016 6.65 1.74 10.64 0h.03l121.444-33.535.124.452-121.427 33.53c-1.412.607-3.1.81-4.72.81z" fill="url(#n)"/></g></svg>