<svg fill="none" height="300" viewBox="0 0 1600 300" width="1600" xmlns="http://www.w3.org/2000/svg" xmlns:xlink="http://www.w3.org/1999/xlink"><linearGradient id="a"><stop offset="0" stop-color="#2b4a96"/><stop offset=".261" stop-color="#4068a9" stop-opacity=".739"/><stop offset=".53" stop-color="#507fb8" stop-opacity=".47"/><stop offset=".783" stop-color="#5a8dc1" stop-opacity=".217"/><stop offset="1" stop-color="#5d92c4" stop-opacity="0"/></linearGradient><linearGradient id="b" gradientUnits="userSpaceOnUse" x1="1018.4" x2="922.031" xlink:href="#a" y1="248.73" y2="231.58"/><linearGradient id="c" gradientUnits="userSpaceOnUse" x1="785.648" x2="959.02" y1="30.2355" y2="196.543"><stop offset="0" stop-color="#d6e9fd"/><stop offset="1" stop-color="#f8fcff" stop-opacity=".5"/></linearGradient><linearGradient id="d" gradientUnits="userSpaceOnUse" x1="767.715" x2="767.715" xlink:href="#a" y1="268.574" y2="252.309"/><linearGradient id="e"><stop offset="0" stop-color="#2b4a96"/><stop offset=".983" stop-color="#5d92c4"/></linearGradient><linearGradient id="f" gradientUnits="userSpaceOnUse" x1="938.44" x2="969.49" xlink:href="#e" y1="115.012" y2="133.964"/><linearGradient id="g"><stop offset="0" stop-color="#006837"/><stop offset=".328" stop-color="#00b949"/><stop offset=".523" stop-color="#00b949"/><stop offset="1" stop-color="#006837"/></linearGradient><linearGradient id="h" gradientUnits="userSpaceOnUse" x1="931.019" x2="944.897" xlink:href="#g" y1="128.887" y2="106.203"/><linearGradient id="i" gradientUnits="userSpaceOnUse" x1="940.107" x2="955.91" xlink:href="#g" y1="119.117" y2="100.052"/><linearGradient id="j" gradientUnits="userSpaceOnUse" x1="948.563" x2="963.625" xlink:href="#g" y1="110.959" y2="86.34"/><linearGradient id="k" gradientUnits="userSpaceOnUse" x1="956.005" x2="978.94" xlink:href="#g" y1="102.839" y2="79.2547"/><linearGradient id="l" gradientUnits="userSpaceOnUse" x1="967.687" x2="987.336" xlink:href="#g" y1="95.7733" y2="76.4162"/><linearGradient id="m" gradientUnits="userSpaceOnUse" x1="976.597" x2="995.857" xlink:href="#g" y1="90.1358" y2="76.7502"/><linearGradient id="n" gradientUnits="userSpaceOnUse" x1="983.884" x2="1000.13" xlink:href="#g" y1="87.3051" y2="78.1302"/><linearGradient id="o" gradientUnits="userSpaceOnUse" x1="933.234" x2="954.217" xlink:href="#g" y1="141.663" y2="140.185"/><linearGradient id="p" gradientUnits="userSpaceOnUse" x1="942.293" x2="961.845" xlink:href="#g" y1="132.008" y2="127.779"/><linearGradient id="q" gradientUnits="userSpaceOnUse" x1="951.908" x2="974.685" xlink:href="#g" y1="125.155" y2="123.55"/><linearGradient id="r" gradientUnits="userSpaceOnUse" x1="960.719" x2="986.635" xlink:href="#g" y1="117.716" y2="109.918"/><linearGradient id="s" gradientUnits="userSpaceOnUse" x1="970.339" x2="992.056" xlink:href="#g" y1="109.012" y2="101.968"/><linearGradient id="t" gradientUnits="userSpaceOnUse" x1="978.601" x2="996.778" xlink:href="#g" y1="102.692" y2="93.1274"/><linearGradient id="u" gradientUnits="userSpaceOnUse" x1="985.748" x2="999.967" xlink:href="#g" y1="97.6375" y2="88.374"/><linearGradient id="v" gradientUnits="userSpaceOnUse" x1="824.377" x2="824.377" xlink:href="#a" y1="232.205" y2="238.604"/><linearGradient id="w" gradientUnits="userSpaceOnUse" x1="824.266" x2="824.266" xlink:href="#a" y1="263.893" y2="259.016"/><linearGradient id="x" gradientUnits="userSpaceOnUse" x1="696.102" x2="943.079" y1="144.983" y2="144.983"><stop offset="0" stop-color="#fff"/><stop offset=".19" stop-color="#fbfdff"/><stop offset=".38" stop-color="#eff7ff"/><stop offset=".58" stop-color="#dbecff"/><stop offset=".77" stop-color="#bedeff"/><stop offset=".96" stop-color="#9acbff"/><stop offset=".99" stop-color="#94c8ff"/></linearGradient><linearGradient id="y" gradientUnits="userSpaceOnUse" x1="824.774" x2="824.774" xlink:href="#a" y1="263.893" y2="265.151"/><linearGradient id="z" gradientUnits="userSpaceOnUse" x1="695.454" x2="583.052" xlink:href="#a" y1="271.478" y2="204.579"/><linearGradient id="A" gradientUnits="userSpaceOnUse" x1="614.354" x2="525.492" xlink:href="#a" y1="251.406" y2="256.346"/><linearGradient id="B" gradientUnits="userSpaceOnUse" x1="703.1" x2="820.342" y1="117.88" y2="117.88"><stop offset="0" stop-color="#fff"/><stop offset=".99" stop-color="#94c8ff" stop-opacity=".2"/></linearGradient><linearGradient id="C" gradientUnits="userSpaceOnUse" x1="678.363" x2="644.867" xlink:href="#g" y1="208.62" y2="150.669"/><linearGradient id="D"><stop offset="0" stop-color="#006837"/><stop offset=".328" stop-color="#00b949"/></linearGradient><linearGradient id="E" gradientUnits="userSpaceOnUse" x1="668.267" x2="645.855" xlink:href="#D" y1="243.283" y2="204.511"/><linearGradient id="F" gradientUnits="userSpaceOnUse" x1="692.754" x2="722.495" xlink:href="#D" y1="226.947" y2="175.495"/><linearGradient id="G" gradientUnits="userSpaceOnUse" x1="683.885" x2="658.501" xlink:href="#e" y1="218.605" y2="218.605"/><linearGradient id="H" gradientUnits="userSpaceOnUse" x1="699.556" x2="699.556" xlink:href="#e" y1="257.248" y2="206.557"/><linearGradient id="I" gradientUnits="userSpaceOnUse" x1="678.777" x2="657.034" xlink:href="#e" y1="242.378" y2="242.378"/><path d="m0 0h1600v300h-1600z" fill="#ebeef2"/><path d="m995.545 265.853s-16.547-6.335-19.39-7.081c-2.808-.711-13.265-1.151-33.195-10.197-19.931-9.045-20.642-18.53-20.642-18.53s11.979-20.767 30.996-13.686c18.984 7.046 32.35 25.611 40.776 30.76 8.43 5.15 21.05 20.021 21.05 20.021l-50.524-24.154z" fill="url(#b)" opacity=".44"/><path d="m926.007 177.67c52.856 6.538 70.35-38.891 70.723-83.9487.271-32.3863-10.795-53.5938-38.204-70.8025-36.173-22.698823-69.844 7.1484-112.141 13.0084-42.976 5.9291-79.691-25.3748-108.962 6.6747-33.23 36.4168-8.797 83.1341 17.021 125.1421 27.24 44.345 78.54 89.944 127.2 71.617 30.86-11.654 11.675-65.756 44.363-61.691z" fill="url(#c)"/><path d="m774.816 268.563-61.588-12.67 28.323-3.591 80.672 7.181z" fill="url(#d)" opacity=".44"/><path clip-rule="evenodd" d="m910.239 162.416-.17-.126-1.207-.896.031-.044.092-.121.359-.476c.316-.414.784-1.023 1.394-1.804 1.737-2.217 3.508-4.407 5.313-6.569 6.129-7.356 12.562-14.454 19.281-21.275 16.128-16.354 38.203-35.3136 61.789-45.3709l1.18 2.7662c-23.044 9.8258-44.79 28.4537-60.826 44.7147-6.661 6.761-13.038 13.796-19.114 21.088-1.784 2.139-3.536 4.306-5.255 6.499-.579.739-1.15 1.483-1.716 2.232l-.087.114-.025.036-.002.002z" fill="url(#f)" fill-rule="evenodd"/><path d="m936.158 132.037s-7.173-5.387 3.519-29.033c0 0-.168 26.154-3.519 29.033z" fill="url(#h)"/><path d="m944.719 122.925s-5.819-6.167 6.498-26.7637c0 0-3.148 24.5947-6.498 26.7637z" fill="url(#i)"/><path d="m954.127 114.353s-7.817-5.827 3.823-31.5052c0 0-.168 28.3892-3.823 31.5052z" fill="url(#j)"/><path d="m961.91 108.595s-7.073-9.0453 10.997-35.1988c0 .0331-6.395 32.6918-10.997 35.1978z" fill="url(#k)"/><path d="m972.603 100.769s-5.786-7.7573 9.745-29.4053c0-.0346-5.887 27.3727-9.745 29.4053z" fill="url(#l)"/><path d="m980.284 95.4501s-3.756-7.7918 11.843-24.0533c-.033-.0346-8.392 22.9348-11.843 24.0533z" fill="url(#m)"/><path d="m986.51 91.994s-2.47-6.7079 10.93-18.5978c0 0-8.121 18.022-10.93 18.5978z" fill="url(#n)"/><path d="m932.841 136.069s.305 10.568 21.793 9.959c0-.033-18.206-12.33-21.793-9.959z" fill="url(#o)"/><path d="m941.267 127.228s1.49 9.451 21.658 5.521c-.035 0-18.577-8.199-21.658-5.523z" fill="url(#p)"/><path d="m951.487 119.063s.305 11.484 23.654 10.806c0 0-19.763-13.381-23.654-10.806z" fill="url(#q)"/><path d="m958.897 111.677s2.877 12.197 29.643 4.54c0 0-25.718-8.47-29.643-4.54z" fill="url(#r)"/><path d="m968.711 104.021s2.64 10.129 25.041 3.184c0 0-21.792-6.538-25.041-3.184z" fill="url(#s)"/><path d="m976.596 98.8386s3.587 7.9254 22.333-1.6958c0 0-19.931-1.6597-22.333 1.6943z" fill="url(#t)"/><path d="m983.837 94.7045s3.452 5.9295 18.103-3.3194c.04.0331-16.344.4736-18.103 3.3194z" fill="url(#u)"/><path d="m790.957 232.213h66.933l5.751 31.675h-78.743z" fill="#c7d9e8"/><path d="m859.04 238.548-1.15-6.335h-66.933l-1.219 6.403z" fill="url(#v)" opacity=".44"/><path d="m785.745 259.315-.847 4.573h78.743l-.879-4.878z" fill="url(#w)"/><path d="m873.218 265.615-5.346-.948-.238-.033-3.958-.713h-78.778l-9.576 1.694c-.143.026-.272.102-.364.213-.093.112-.143.253-.142.398v1.897c0 .237.203.44.439.44h97.997c.116-.002.227-.049.309-.131s.128-.193.13-.309v-1.897c.01-.072.006-.144-.013-.214-.018-.069-.051-.134-.095-.191s-.099-.105-.162-.14-.132-.057-.203-.066z" fill="#c7d9e8"/><path d="m946.175 55.3381h-254.028c-4.196 0-7.58 3.6937-7.58 8.2323v160.5126c0 4.538 3.383 8.232 7.58 8.232h254.028c4.195 0 7.579-3.694 7.579-8.232v-160.5126c0-4.5401-3.384-8.2323-7.579-8.2323z" fill="#77c3fc"/><path d="m945.531 56.8971h-251.896c-4.161 0-7.512 3.6245-7.512 8.0969v157.936c0 4.472 3.351 8.097 7.512 8.097h251.896c4.163 0 7.512-3.625 7.512-8.097v-157.936c0-4.4724-3.384-8.0969-7.512-8.0969z" fill="#2a6dc2"/><path d="m822.02 63.2668c.647-.0004 1.267-.2577 1.724-.7152.457-.4576.713-1.078.713-1.7247s-.258-1.2667-.715-1.7238c-.458-.457-1.078-.7135-1.725-.7131s-1.267.2577-1.724.7153c-.457.4575-.713 1.0779-.713 1.7246.001.6467.258 1.2668.716 1.7238.457.457 1.077.7135 1.724.7131z" fill="#fff"/><path d="m943.096 66.4163h-246.989v157.1237h246.989z" fill="url(#x)"/><path d="m778.841 264.972 6.057-1.084h78.743l7.039 1.254z" fill="url(#y)"/><path d="m701.52 261.212s-14.991-1.389-23.618-1.423c-8.63-.034-1.659 15.821-19.39 9.316-17.732-6.504-10.085-3.117-35.7-16.295-25.617-13.178-61.892-33.369-44.261-35.029 17.629-1.66 40.605 11.586 35.193 2.202-5.415-9.384-40.135-25.035-9.882-15.923 30.217 9.113 34.888 4.235 49.404 17.618 14.484 13.346 23.416 28.456 36.647 32.623 0 0-23.957-6.64-33.871-12.129 0 0 32.145 15.686 37.052 16.33l-32.824-6.911z" fill="url(#z)" opacity=".44"/><path d="m959.405 166.117h33.433c1.033.001 2.023.412 2.753 1.143.73.73 1.139 1.721 1.139 2.754v33.47c0 .512-.1 1.018-.295 1.491-.196.472-.482.902-.844 1.264-.361.362-.79.649-1.263.845-.472.196-.979.297-1.49.297h-33.433c-.511 0-1.018-.101-1.49-.297s-.902-.483-1.263-.845-.648-.792-.843-1.264c-.196-.473-.296-.979-.296-1.491v-33.47c.035-2.168 1.761-3.897 3.892-3.897z" fill="#1d5577" opacity=".2"/><path d="m984.682 169.607s1.693-19.784 6.803-21.749c1.962-.746 11.575-3.76 13.125-2.135l13.1 5.556z" fill="#19ab4f"/><path d="m1020.04 201.079c.85-19.852 4.23-45.395-5.68-48.107 0 0-13.5-4.946-8.36-15.549 0 0 6.94-11.111-7.173-14.432-5.549-1.32-10.219 2.372-9.677 7.318.439 4.303-.779 5.488-.508 8.13.441 4.338 1.929 7.827 3.925 7.657 3.181-.305 3.282 2.71 1.894 3.897-.879.778-3.585 1.761-4.296 3.421 0 0-2.808 20.868-5.448 21.581-2.605.711-10.829 1.049-16.988 4.673 0 0 10.896 1.83 16.988 3.998 6.09 2.169 8.662-1.287 8.662-1.287" fill="#c7d9e8"/><path d="m1011.62 127.363s-1.02 13.244-6.74 15.346c0 0 1.7-11.994-1.96-9.588l-1.08 2.237s-3.656-1.965-3.656-6.235c0 0-3.858-1.828-8.222-1.625 0 0-.982-5.894.135-6.47.947-.508-.44-1.627.169-2.305.508-.541 2.166-.609 3.113-1.254.338-.236-.371-.608.947-.643 4.468-.135 4.806 2.44 7.644 3.184l2.41.678 1.18-.033c-.03.033 6.06 1.082 6.06 6.708z" fill="#0a628e"/><path d="m1011.38 129.361s-.78 11.248-6.5 13.348c0 0 1.7-11.994-1.96-9.588l-1.08 2.237s-2.978 1.016-2.978-3.252c0 0 4.938-2.811 2.608-4.913-2.338-2.067 5.48 1.354 5.48 1.354s-.98-2.27 1.18-2.065c2.13.236 3.25 2.879 3.25 2.879z" fill="#0a4177"/><path d="m991.721 266.124s2.876-2.642 4.839-1.998c2.03.609.744 5.013-4.839 1.998zm26.529 4.437s6.6 1.662 5.92-1.795c-.67-3.456-3.85-2.946-5.92 1.795z" fill="#1f9ce8"/><path d="m988.439 194.981s-2.132 29.338 7.512 67.416l8.359-36.654s2.13 6.267 17.49 39.264c0 0-.44-37.875 2.85-64.097.03 0-33.571 1.626-36.211-5.929zm11.841-25.51s7.38 9.216 6.53 12.908l4.81-2.981s-6.57-11.417-11.34-9.927z" fill="#1d5577"/><path d="m990.13 197.862s8.359 13.178 33.2 13.381c0 0 1.18-7.148 1.05-9.519z" fill="#12435b"/><path d="m992.364 177.738c.304 1.219-.44 3.184-.44 3.184l-3.452 14.059c2.572 10.503 37.528 11.824 37.528 11.824-4.7-34.724-5.35-52.442-5.35-52.442-2.43-5.149-11.57-5.725-11.57-5.725l-12.487 5.689-2.132-4.405-4.296-.168-3.046 6.605-2.402 13.178c-.035.07 9.136 6.099 7.647 8.2z" fill="#19ab4f"/><path d="m998.522 169.879s2.948 5.454 9.508 7.724c0 0-3.62 5.419-9.508-7.724zm10.528-8.876c2.57 5.114 0 41.805 0 41.805s18.68-10.672 11.03-46.413z" fill="#351910" opacity=".23"/><path d="m1005.36 178.212s13.87 19.75 14.89 6.945c0 .035.95-5.997-14.89-6.945z" fill="#157d3c"/><path d="m1004.34 225.743s-8.559-20.327-9.168-12.943c-.608 7.386-.879 10.029-.879 15.889 0 0-.947 2.508.271 9.621 0 0 2.47 15.652 1.42 24.087z" fill="#12435b"/><path d="m990.13 159.071s-3.282 1.424-2.841 7.894c.439 6.504 3.011 8.538 3.925 16.871-.135-.033-.237-1.728 2.165-9.587 0 0-1.996-9.419-1.827-9.859.101-.373.169-6.843-1.422-5.319z" fill="#351910" opacity=".23"/><path d="m961.233 163.781h33.433c1.032.001 2.022.412 2.752 1.142.729.731 1.139 1.721 1.139 2.753v33.47c0 .512-.1 1.018-.296 1.491-.195.472-.481.902-.843 1.264-.361.361-.79.649-1.262.845-.473.196-.979.297-1.49.297h-33.433c-.511 0-1.018-.101-1.49-.297s-.902-.483-1.263-.845-.648-.791-.843-1.264c-.196-.473-.296-.979-.296-1.491v-33.47c.033-2.134 1.759-3.895 3.892-3.895z" fill="#77c3fc"/><path d="m991.789 192.779c1.354.204 5.753-3.625 7.749-5.589v6.064c-3.384.508-9.102-.678-7.749-.475z" fill="#12435b" opacity=".3"/><path d="m1008.13 154.531s.92 25.85-16.544 37.299c0 0 37.324-3.116 30.154-25.373-.04.033.54-22.63-13.61-11.926z" fill="#c7d9e8"/><path d="m1007.19 152.162-5.01 23.713s17.12 3.117 19.12 9.18c0 0 5.24-17.852-.68-30.659 0-.033-3.89-7.182-13.43-2.236z" fill="#19ab4f"/><path d="m993.346 146.063c-.746-.135 5.955.373 8.184-4.167 0 0 4-4.641 2.44 3.184-1.56 7.791-6.124 15.888-8.053 13.585-1.658-1.965-2.097-2.811-2.403-9.012-.033-.406.677-1.185.677-1.625-.033-.508.61-.848.576-1.389-.033-.271-.542-.441-1.421-.576z" fill="#351910" opacity=".23"/><path d="m1013.21 203.756s7.61-9.961 4.6-21.478c0 0 4.26 1.355 4.16 2.371-.37 3.083-.88 8.47-8.76 19.107z" fill="#12435b" opacity=".21"/><path d="m598.347 269.85s-16.074-1.049-18.747-1.084c-2.674-.034-12.115 1.762-31.842-2.1-19.728-3.862-22.368-12.162-22.368-12.162s6.329-21.072 24.805-18.767c18.476 2.303 34.311 16.024 42.94 18.835s22.3 16.532 22.3 16.532l-49.506-13.957z" fill="url(#A)" opacity=".44"/><path d="m619.631 218.357s2.099-18.802-2.402-24.595c-.847-1.084-5.382-1.66-6.43-.61l-8.527 3.591z" fill="#2dba2d"/><path d="m616.484 183.803s9.103-2.914 8.494 3.454c0 0-4.299 6.979-8.494-3.454z" fill="#1d5577"/><path d="m600.749 229.164c-.541-12.908 2.402-30.388 8.832-32.15 0 0-1.693-1.965-6.87-7.757 0 0-7.851-8.097 1.353-10.232 3.623-.846-.236-2.438 5.044.305 2.47 1.322 4.94 2.608 5.751 4.065 1.523 2.813-3.247 7.86-4.534 7.759-2.064-.205 6.194 3.963 7.072 4.743.576.508 2.335 1.151 2.81 2.235" fill="#c7d9e8"/><path d="m597.297 186.14s4.67 7.249 8.595 6.707c0 0-4.669-6.335-1.827-6.063l1.32.948s1.489-2.237.169-4.71c0 0 1.658-2.235 4.196-3.489 0 0-1.253-3.692-2.065-3.659-.711.035-.27-1.049-.811-1.252-.441-.17-1.421.305-2.165.236-.271-.033.033-.474-.746-.068-2.57 1.288-1.996 2.88-3.382 4.202l-1.186 1.117-.71.34c.033-.035-3.113 2.438-1.388 5.691z" fill="#0a628e"/><path d="m619.157 271.442s-1.861-1.727-3.148-1.286c-1.285.372-.473 3.251 3.148 1.286zm-17.258 2.881s-4.263 1.049-3.858-1.186c.474-2.203 2.538-1.898 3.858 1.186z" fill="#1f9ce8"/><path d="m611.746 196.608s8.9-20.835 9.373-28.221c0 0 7.852 8.741.711 22.156 0-.033-2.232 14.568-10.084 6.065z" fill="#c7d9e8"/><path d="m610.9 198.03 5.753-15.008s5.923 7.894 8.494 3.456c0 0-1.591 8.944-6.836 16.465 0 .033-1.861-.644-7.411-4.913z" fill="#2dba2d"/><path d="m614.217 186.343c.236.135-2.369 5.319-.17 7.792 2.2 2.473-.135 3.557-2.199 1.965-2.099-1.592-3.655-4.032-3.655-4.032s4.163-6.809 6.024-5.725z" fill="#c7d9e8"/><path d="m621.322 168.523s2.911 11.688-.338 18.701c0 0 2.369 4.031 3.757-5.454.27-2.034.406-5.556-3.419-13.247z" fill="#12435b" opacity=".21"/><path d="m621.288 225.2s1.389 19.073-4.871 43.837l-4.536-28.219s-6.936 9.519-12.282 29.913c0 0 .271-24.629-1.861-41.669 0-.033 21.858 1.051 23.551-3.862zm-7.681-16.6s-4.805 5.997-4.263 8.402l-3.112-1.932s4.262-7.452 7.375-6.47z" fill="#1d5577"/><path d="m620.205 227.064s-5.446 8.57-21.588 8.706c0 0-.778-4.641-.676-6.2z" fill="#12435b"/><path d="m618.752 213.986c-.203.814.27 2.067.27 2.067l2.233 9.147c-1.692 6.81-24.398 7.691-24.398 7.691 3.08-22.564 3.486-34.115 3.486-34.115 3.485-9.181 7.512-3.727 7.512-3.727l8.121 3.727 1.388-2.846.711-1.525 1.996 6.301-1.795 6.437c.035 0-.506 5.489.476 6.843z" fill="#2dba2d"/><path d="m605.724 186.343s9.102-2.913 8.493 3.455c0 0-4.299 6.945-8.493-3.455z" fill="#1d5577"/><path d="m611.881 240.818s4.636-8.843 5.042-4.032c.373 4.811.576 6.505.576 10.332 0 0 .642 1.627-.17 6.268 0 0-1.623 10.164-.914 15.686z" fill="#12435b"/><path d="m600.85 199.894s9.137-23.342 9.137-32.32c0 0 5.922 11.18.914 26.256 0 0-2.199 14.567-10.051 6.064z" fill="#c7d9e8"/><path d="m616.112 184.378s-8.392 20.631-6.396 23.646c1.997 3.049 4.297 3.524 6.057 1.457 1.794-2.033 0-2.575.339-4.032.338-1.457 1.117-.576.981-3.049-.135-2.473-2.029-9.045.913-10.908 2.91-1.795-1.894-7.114-1.894-7.114z" fill="#351910" opacity=".14"/><path d="m600.749 200.13 5.008-13.787s5.923 7.893 8.494 3.455c0 0-1.591 8.945-6.836 16.464-.033 0-1.117-1.862-6.666-6.132z" fill="#2dba2d"/><path d="m610.9 170.352s1.422 12.705-1.827 19.413c0 0 1.828 5.522 3.689-4.71.372-1.965.642-6.911-1.861-14.703z" fill="#12435b" opacity=".21"/><path d="m607.585 195.795c-.542 1.05-2.571 11.823-2.606 15.516 0 1.626 2.909.813 2.977 2.608.035 1.524-3.62 6.843-3.587 8.334.068 1.525 3.858-.745 3.925.609.035.983-.947 3.557-.777 4.37.642 2.948 1.894 4.065 1.894 4.065s-9.238 2.305-11.302.306c-1.826-1.762 1.117-9.487 1.488-13.754.542-6.133-.405-11.654 1.423-20.124l2.706-5.657 2.639-3.862 1.218 7.589z" fill="#351910" opacity=".23"/><path d="m610.833 213.749c-.44.373-4.705 5.997-2.707 6.572 1.996.576 3.146-1.389 3.214-2.981s.711-4.54-.507-3.591z" fill="#351910" opacity=".14"/><path d="m705.073 74.6832c.244-.0001.487-.0484.713-.1421.225-.0937.431-.231.604-.404.173-.1731.31-.3784.403-.6045.094-.226.142-.4682.142-.7128s-.049-.4868-.142-.7128c-.094-.2259-.231-.4312-.404-.6041s-.379-.31-.605-.4035-.468-.1416-.713-.1415c-.494.0002-.967.1966-1.317.5461-.349.3494-.545.8233-.545 1.3173.001.494.197.9677.546 1.3168.35.3492.824.5453 1.318.5451zm7.479 0c.249.0068.497-.0363.729-.1269.232-.0905.443-.2267.622-.4005.178-.1737.32-.3815.417-.611.096-.2295.146-.476.146-.7251 0-.249-.05-.4955-.148-.7249-.097-.2293-.239-.4368-.418-.6103-.178-.1734-.39-.3093-.622-.3995s-.48-.1329-.729-.1256c-.485.0141-.945.2167-1.282.5647-.338.3479-.527.8138-.526 1.2986 0 .4849.189.9505.528 1.2979.338.3474.798.5492 1.283.5626zm7.444 0c.494-.0004.968-.1971 1.317-.5467s.545-.8235.545-1.3175c-.001-.494-.198-.9676-.547-1.3166-.35-.349-.824-.5449-1.318-.5445-.244.0002-.486.0486-.712.1423-.226.0938-.431.2312-.604.4043-.349.3496-.545.8235-.545 1.3175.001.494.197.9676.547 1.3167.349.349.823.5449 1.317.5445z" fill="#77c3fc"/><path d="m816.945 216.799h-48.186c-.898-.003-1.757-.362-2.391-.996-.634-.635-.991-1.495-.993-2.392v-48.242c.002-.897.359-1.757.993-2.392.634-.634 1.494-.992 2.391-.995h48.219c.897.003 1.756.361 2.39.995.634.635.992 1.495.994 2.392v48.276c-.017.895-.384 1.748-1.023 2.375-.639.628-1.499.979-2.394.979z" fill="#1d5577" opacity=".2"/><path d="m932.132 216.799h-100.501c-.897-.003-1.757-.362-2.391-.996-.634-.635-.991-1.495-.993-2.392v-128.1595c.002-.897.36-1.7567.994-2.3913s1.493-.9925 2.39-.9957h100.501c.897.0032 1.757.3613 2.391.9963.634.6349.991 1.4949.993 2.3922v128.158c-.003.897-.36 1.757-.994 2.392-.634.634-1.493.993-2.39.996z" fill="#2a6dc2"/><path d="m925.325 155.337h-86.864c-.897-.003-1.756-.361-2.39-.995-.634-.635-.992-1.494-.994-2.391v-58.8791c.002-.8973.359-1.7574.993-2.3923s1.493-.9931 2.391-.9963h86.864c.897.0032 1.757.3614 2.391.9963s.991 1.495.993 2.3923v58.8781c-.002.897-.359 1.757-.993 2.392s-1.494.993-2.391.996z" fill="#77c3fc"/><path d="m882.432 133.931c3.163 0 6.196-1.256 8.432-3.493 2.237-2.237 3.493-5.27 3.493-8.433s-1.256-6.196-3.493-8.433c-2.236-2.236-5.269-3.493-8.432-3.493s-6.197 1.257-8.433 3.493c-2.237 2.237-3.493 5.27-3.493 8.433s1.256 6.196 3.493 8.433c2.236 2.237 5.27 3.493 8.433 3.493z" fill="#fff"/><path d="m880.264 118.325c0-.583.816-.877 1.294-.463l4.265 3.68c.069.056.125.126.164.206.038.08.058.168.058.257s-.02.177-.058.257c-.039.08-.095.15-.164.206l-4.265 3.68c-.478.414-1.294.12-1.294-.463z" fill="#0b5fff"/><path clip-rule="evenodd" d="m901.223 122.005c0 10.379-8.412 18.792-18.791 18.792s-18.792-8.413-18.792-18.792 8.413-18.792 18.792-18.792 18.791 8.413 18.791 18.792zm-.361 0c0 10.178-8.251 18.431-18.43 18.431-10.18 0-18.431-8.253-18.431-18.431s8.251-18.431 18.431-18.431c10.179 0 18.43 8.253 18.43 18.431z" fill="#fff" fill-rule="evenodd" opacity=".2"/><path clip-rule="evenodd" d="m898.332 122.005c0 8.781-7.12 15.901-15.9 15.901-8.781 0-15.901-7.122-15.901-15.901s7.12-15.901 15.901-15.901c8.78 0 15.9 7.12 15.9 15.901zm-.361 0c0 8.583-6.957 15.54-15.539 15.54-8.583 0-15.54-6.957-15.54-15.54s6.957-15.54 15.54-15.54c8.582 0 15.539 6.957 15.539 15.54z" fill="#fff" fill-rule="evenodd" opacity=".43"/><path d="m754.681 216.799h-48.186c-.897-.003-1.756-.362-2.39-.996-.634-.635-.992-1.495-.994-2.392v-48.242c.002-.897.359-1.756.993-2.391s1.493-.993 2.39-.996h48.22c.897.003 1.757.361 2.391.995.634.635.991 1.495.993 2.392v48.276c-.016.895-.384 1.748-1.023 2.375-.639.628-1.498.979-2.394.979z" fill="#245da6"/><path d="m816.945 153.888h-110.45c-.897-.003-1.756-.361-2.39-.996s-.992-1.494-.994-2.391v-65.2149c.002-.8968.359-1.7563.993-2.3908s1.493-.9927 2.39-.9963h110.484c.897.0032 1.756.3612 2.39.9958s.992 1.4942.994 2.3913v65.2149c-.01.9-.374 1.76-1.014 2.394-.639.634-1.503.991-2.403.993z" fill="url(#B)"/><path clip-rule="evenodd" d="m706.495 82.9153c-.32 0-.625.0647-.902.1804-.123.0514-.255.0779-.389.0782-.133.0003-.265-.0257-.389-.0766-.123-.0508-.235-.1254-.33-.2196-.095-.0941-.17-.206-.221-.3292s-.078-.2553-.078-.3887c0-.1335.026-.2657.076-.3891.051-.1234.126-.2356.22-.3302.094-.0945.206-.1696.329-.2209.534-.2226 1.106-.3371 1.684-.3368h3.946c.27 0 .528.1071.719.2977.19.1905.297.449.297.7186 0 .2695-.107.528-.297.7186-.191.1905-.449.2976-.719.2976zm10.822-1.0162c0-.5623.454-1.0163 1.015-1.0163h7.893c.269 0 .528.1071.718.2977.191.1905.298.449.298.7186 0 .2695-.107.528-.298.7186-.19.1905-.449.2976-.718.2976h-7.893c-.269-.0004-.527-.1076-.717-.2982-.191-.1905-.298-.4488-.298-.718zm15.784 0c0-.5623.454-1.0163 1.015-1.0163h7.891c.269 0 .528.1071.718.2977.191.1905.298.449.298.7186 0 .2695-.107.528-.298.7186-.19.1905-.449.2976-.718.2976h-7.891c-.134 0-.266-.0263-.389-.0774s-.235-.1259-.329-.2203c-.095-.0944-.169-.2065-.22-.3297-.051-.1233-.077-.2554-.077-.3888zm15.783 0c0-.5623.454-1.0163 1.015-1.0163h7.891c.27 0 .528.1071.719.2977.19.1905.297.449.297.7186 0 .2695-.107.528-.297.7186-.191.1905-.449.2976-.719.2976h-7.891c-.133 0-.265-.0263-.388-.0774-.124-.0511-.236-.1259-.33-.2203s-.169-.2065-.22-.3297c-.051-.1233-.077-.2554-.077-.3888zm15.782 0c0-.5623.456-1.0163 1.017-1.0163h7.891c.269 0 .528.1071.718.2977.191.1905.298.449.298.7186 0 .2695-.107.528-.298.7186-.19.1905-.449.2976-.718.2976h-7.891c-.27 0-.528-.1071-.719-.2976-.19-.1906-.298-.4491-.298-.7186zm15.784 0c0-.5623.455-1.0163 1.016-1.0163h7.891c.27 0 .528.1071.719.2977.19.1905.297.449.297.7186 0 .2695-.107.528-.297.7186-.191.1905-.449.2976-.719.2976h-7.891c-.269 0-.528-.1071-.718-.2976-.191-.1906-.298-.4491-.298-.7186zm15.783 0c0-.5623.456-1.0163 1.017-1.0163h7.891c.269 0 .528.1071.718.2977.191.1905.298.449.298.7186 0 .2695-.107.528-.298.7186-.19.1905-.449.2976-.718.2976h-7.891c-.27 0-.528-.1071-.719-.2976-.19-.1906-.298-.4491-.298-.7186zm15.784 0c0-.5623.455-1.0163 1.015-1.0163h3.946c.595 0 1.165.1203 1.685.3368.123.0513.235.1264.329.2209.095.0946.169.2068.22.3302s.077.2556.077.3891c-.001.1334-.027.2655-.079.3887-.051.1232-.126.2351-.221.3292-.094.0942-.206.1688-.33.2196-.123.0509-.255.0769-.389.0766-.133-.0003-.265-.0268-.389-.0782-.286-.1194-.593-.1807-.903-.1804h-3.946c-.27-.0004-.528-.1076-.718-.2982-.19-.1905-.297-.4488-.297-.718zm-108.255 1.1545c.516.215.761.8118.544 1.329-.116.2781-.18.5833-.18.9035v4.0755c.007.1379-.013.2759-.061.4056-.048.1296-.121.2482-.216.3485-.095.1002-.21.1801-.336.2347-.127.0546-.264.0827-.402.0827s-.275-.0281-.402-.0827-.241-.1345-.336-.2347c-.095-.1003-.168-.2189-.216-.3485-.048-.1297-.068-.2677-.061-.4056v-4.074c0-.5968.12-1.1666.337-1.6883.051-.123.126-.2347.221-.3287.094-.0939.206-.1684.33-.2191.123-.0507.255-.0766.388-.0762.134.0004.265.027.388.0783zm115.95 0c.123-.0513.255-.0779.389-.0783.133-.0004.265.0255.388.0762.124.0507.236.1252.33.2191.095.094.17.2057.221.3287.223.5343.338 1.1077.337 1.6868v4.0755c0 .2691-.107.5273-.298.7176-.19.1903-.448.2972-.717.2972s-.527-.1069-.718-.2972c-.19-.1903-.297-.4485-.297-.7176v-4.074c0-.3217-.064-.6269-.18-.905-.104-.2486-.105-.5283-.002-.7775.102-.2492.299-.4475.547-.5515zm-116.601 13.4443c.561 0 1.015.4556 1.015 1.0163v8.1508c.007.138-.013.276-.061.406-.048.129-.121.248-.216.348-.095.101-.21.18-.336.235-.127.055-.264.083-.402.083s-.275-.028-.402-.083-.241-.134-.336-.235c-.095-.1-.168-.219-.216-.348-.048-.13-.068-.268-.061-.406v-8.1493c0-.5607.454-1.0163 1.015-1.0163zm117.251 0c.561 0 1.015.4556 1.015 1.0163v8.1508c0 .269-.107.528-.298.718-.19.19-.448.297-.717.297s-.527-.107-.718-.297c-.19-.19-.297-.449-.297-.718v-8.1493c0-.5607.454-1.0163 1.015-1.0163zm-117.251 16.3041c.561 0 1.015.454 1.015 1.016v8.151c.007.138-.013.276-.061.405-.048.13-.121.249-.216.349s-.21.18-.336.235c-.127.054-.264.082-.402.082s-.275-.028-.402-.082c-.127-.055-.241-.135-.336-.235s-.168-.219-.216-.349c-.048-.129-.068-.267-.061-.405v-8.151c0-.562.454-1.016 1.015-1.016zm117.251 0c.561 0 1.015.454 1.015 1.016v8.151c0 .269-.107.527-.298.717-.19.191-.448.298-.717.298s-.527-.107-.718-.298c-.19-.19-.297-.448-.297-.717v-8.151c0-.562.454-1.016 1.015-1.016zm-117.251 16.303c.561 0 1.015.454 1.015 1.017v8.151c.007.137-.013.275-.061.405s-.121.248-.216.349c-.095.1-.21.18-.336.234-.127.055-.264.083-.402.083s-.275-.028-.402-.083c-.127-.054-.241-.134-.336-.234-.095-.101-.168-.219-.216-.349s-.068-.268-.061-.405v-8.15c0-.562.454-1.016 1.015-1.016zm117.251 0c.561 0 1.015.454 1.015 1.017v8.151c0 .269-.107.527-.298.717-.19.19-.448.297-.717.297s-.527-.107-.718-.297c-.19-.19-.297-.448-.297-.717v-8.15c0-.562.454-1.016 1.015-1.016zm-117.251 16.304c.561 0 1.015.454 1.015 1.016v4.074c0 .322.064.627.18.905.088.245.078.515-.027.753-.106.238-.298.427-.538.527-.241.1-.51.104-.754.012-.243-.093-.441-.275-.554-.51-.222-.534-.337-1.107-.337-1.685v-4.076c0-.562.454-1.016 1.015-1.016zm117.251 0c.561 0 1.015.454 1.015 1.016v4.094c-.01.576-.13 1.145-.355 1.676-.052.123-.128.234-.223.327-.095.094-.207.168-.331.218-.123.05-.256.075-.389.074s-.265-.029-.388-.081c-.122-.052-.234-.128-.327-.223s-.167-.207-.217-.331c-.05-.123-.075-.255-.074-.389.001-.133.028-.265.08-.387.119-.281.187-.588.194-.913v-4.065c0-.562.454-1.016 1.015-1.016zm-116.098 7.829c.051-.123.126-.235.221-.329.094-.094.206-.169.329-.219.124-.051.256-.077.389-.077s.265.027.388.078c.279.117.584.18.902.18h3.947c.269 0 .528.108.718.298.191.191.298.449.298.719 0 .269-.107.528-.298.718-.19.191-.449.298-.718.298h-3.945c-.595 0-1.165-.12-1.684-.337-.249-.103-.446-.302-.549-.551-.102-.249-.102-.529.002-.778zm114.919.008c.103.249.102.529-.002.778-.103.249-.302.446-.551.549-.52.214-1.088.331-1.685.331h-3.945c-.269 0-.528-.107-.718-.298-.191-.19-.298-.449-.298-.718 0-.27.107-.528.298-.719.19-.19.449-.298.718-.298h3.945c.328 0 .636-.063.912-.178.124-.051.256-.077.389-.077.134 0 .266.027.389.078s.235.127.329.221c.094.095.169.207.219.331zm-101.87.642c0-.561.455-1.017 1.016-1.017h7.89c.269 0 .528.108.718.298.191.191.298.449.298.719 0 .269-.107.528-.298.718-.19.191-.449.298-.718.298h-7.89c-.269 0-.528-.107-.718-.298-.191-.19-.298-.449-.298-.718zm15.779 0c0-.561.454-1.017 1.015-1.017h7.889c.27 0 .528.108.719.298.19.191.297.449.297.719 0 .269-.107.528-.297.718-.191.191-.449.298-.719.298h-7.889c-.134 0-.266-.026-.389-.077-.123-.052-.235-.126-.329-.221-.095-.094-.169-.206-.22-.329-.051-.124-.077-.256-.077-.389zm15.779 0c0-.561.454-1.017 1.015-1.017h7.889c.27 0 .528.108.719.298.19.191.297.449.297.719 0 .269-.107.528-.297.718-.191.191-.449.298-.719.298h-7.889c-.134 0-.266-.026-.389-.077-.123-.052-.235-.126-.329-.221-.095-.094-.169-.206-.22-.329-.051-.124-.077-.256-.077-.389zm15.777 0c0-.561.456-1.017 1.017-1.017h7.889c.27 0 .528.108.719.298.19.191.297.449.297.719 0 .269-.107.528-.297.718-.191.191-.449.298-.719.298h-7.889c-.134 0-.266-.026-.389-.077-.124-.051-.236-.126-.33-.221-.094-.094-.169-.206-.22-.329-.051-.124-.078-.256-.078-.389zm15.779 0c0-.561.454-1.017 1.015-1.017h7.89c.269 0 .528.108.718.298.191.191.298.449.298.719 0 .269-.107.528-.298.718-.19.191-.449.298-.718.298h-7.89c-.133 0-.265-.026-.389-.077-.123-.052-.235-.126-.329-.221-.094-.094-.169-.206-.22-.329-.051-.124-.077-.256-.077-.389zm15.779 0c0-.561.454-1.017 1.015-1.017h7.89c.269 0 .528.108.718.298.191.191.298.449.298.719 0 .269-.107.528-.298.718-.19.191-.449.298-.718.298h-7.89c-.133 0-.265-.026-.389-.077-.123-.052-.235-.126-.329-.221-.094-.094-.169-.206-.22-.329-.051-.124-.077-.256-.077-.389z" fill="#ff73c3" fill-rule="evenodd"/><path d="m719.894 142.912-100.263 46.412c-.817.374-1.749.409-2.592.098-.844-.311-1.53-.943-1.909-1.757l-27.341-59.185c-.373-.818-.408-1.75-.098-2.594.311-.844.942-1.531 1.756-1.912l100.263-46.412c.818-.3736 1.75-.4085 2.593-.0973.844.3112 1.529.9434 1.908 1.7585l27.341 59.1828c.376.818.413 1.751.102 2.596-.311.844-.943 1.531-1.76 1.91z" fill="#1d5577" opacity=".2"/><path d="m722.331 138.474-100.265 46.412c-.817.373-1.748.408-2.591.097s-1.529-.942-1.908-1.756l-27.343-59.185c-.373-.818-.408-1.75-.098-2.594.311-.844.942-1.531 1.756-1.911l100.265-46.4129c.818-.3735 1.75-.4085 2.593-.0973s1.529.9434 1.908 1.7585l27.341 59.1837c.373.817.409 1.75.098 2.593-.31.844-.942 1.531-1.756 1.912z" fill="#4387e8"/><g fill="#fff"><path d="m697.732 94.0279-92.145 42.6501c-.162.076-.337.119-.516.126s-.357-.022-.524-.085c-.168-.063-.32-.159-.45-.283-.129-.123-.233-.271-.304-.435l-3.587-7.792c-.076-.162-.118-.337-.126-.516-.007-.179.022-.357.085-.524.064-.167.159-.32.283-.45.123-.13.271-.233.435-.305l92.178-42.6538c.162-.0762.337-.1191.516-.1262s.357.0217.524.0848.32.1592.45.2825c.129.1233.232.2713.304.4354l3.587 7.7932c.27.6765 0 1.4914-.712 1.795zm7.951 17.1741-92.177 42.686c-.161.076-.337.119-.516.126-.178.007-.356-.022-.524-.085-.167-.063-.32-.159-.449-.282-.13-.124-.233-.272-.304-.436l-3.587-7.792c-.076-.162-.119-.337-.126-.516-.008-.179.021-.357.084-.525.063-.167.159-.321.283-.45.123-.13.271-.234.435-.305l92.177-42.65c.162-.076.337-.119.516-.126s.357.022.524.085.32.159.45.282c.129.124.233.272.304.436l3.587 7.793c.305.644 0 1.457-.677 1.761zm8.12 17.583-92.176 42.651c-.161.076-.337.119-.516.126-.178.007-.356-.021-.524-.085-.167-.063-.32-.159-.449-.282-.13-.123-.233-.271-.304-.435l-3.587-7.792c-.076-.162-.119-.338-.126-.517-.008-.178.021-.357.084-.524.063-.168.159-.321.283-.451.123-.13.271-.233.435-.305l92.144-42.651c.162-.076.337-.119.516-.126s.357.022.524.085.32.159.45.282c.129.124.232.272.304.436l3.587 7.793c.338.677.033 1.457-.644 1.795z"/><path clip-rule="evenodd" d="m724.227 178.347c3.247-4.573 12.317-3.93 17.189.475 9.205 8.3-2.741 28.762-13.942 20.597-.271-.203-.541-.406-.845-.643-3.519-3.049-6.395-7.386-3.384-18.43.236-.778.574-1.422.982-1.999z" fill-rule="evenodd"/><path clip-rule="evenodd" d="m724.227 178.348c9.406-3.862 21.182 5.42 12.011 15.685-2.131 2.372-5.481 4.505-8.762 5.353-2.37.644-4.772.609-6.633-.475-4.501-2.506-5.584-11.416-2.132-16.159 1.591-2.135 3.485-3.592 5.516-4.404z" fill-rule="evenodd"/><path d="m727.509 199.218c-.256-.182-.504-.374-.744-.576-3.485-3.016-6.293-7.318-3.317-18.261.203-.779.576-1.389.914-1.897 1.409-.567 2.915-.854 4.434-.847 4.398 0 8.391 2.338 9.947 5.794 1.455 3.252.543 6.979-2.605 10.501-2.2 2.405-5.481 4.438-8.629 5.286z"/></g><path d="m728.794 177.771c4.333 0 8.258 2.305 9.781 5.692 1.42 3.185.506 6.877-2.573 10.332-2.131 2.372-5.347 4.37-8.459 5.218-.237-.17-.44-.34-.678-.508-3.452-2.981-6.225-7.251-3.282-18.091.203-.711.542-1.321.847-1.795 1.388-.554 2.869-.842 4.364-.848zm0-.338c-1.521 0-3.079.27-4.567.881-.406.61-.744 1.219-.947 1.999-3.013 11.044-.17 15.379 3.382 18.428.271.238.543.441.847.645 3.283-.881 6.632-2.981 8.764-5.353 7.682-8.673.576-16.6-7.479-16.6z" fill="#245da6"/><path d="m640.918 158.258c6.295-21.546 25.988.102 25.988.102 6.397 8.029 7.717 9.316 5.991 18.124l-1.693.779h1.523c-.102.508-.237 1.051-.338 1.594-.068.371-.17.744-.238 1.116l-.947.271.812.408c-.194.953-.352 1.913-.474 2.878l-5.448 1.492s3.249.373 5.28.643c-.135 5.116 2.03 7.284 5.752 14.533 5.042 9.758-7.953 13.11-7.953 13.11-9.17 1.594-11.673-9.349-14.346-15.819-2.742-6.573-7.309-12.467-7.309-12.467-1.861-4.133-3.284-7.521-4.333-10.4l3.655-2.473-4.399.44c-.315-.945-.619-1.894-.913-2.846l5.887-3.015-6.497.678c-.947-4.202-.71-6.708 0-9.148z" fill="url(#C)"/><path d="m642.608 206.432c3.587-.44 6.293.305 8.324 1.525l-.88 2.778 2.03-1.965c3.587 2.778 4.568 6.978 4.568 6.978 3.688 8.503 12.217 10.163 12.217 10.163 9.744 4.507 3.078 14.602 3.078 14.602-10.084 8.842-15.634 4.268-18.273-.136l6.396-4.302-7.513 2.032c-.676-1.524-.947-2.675-.947-2.675l3.452-2.033-3.722.474c-1.456-5.997-8.088-14.195-8.088-14.195-6.463-11.248-.642-13.246-.642-13.246z" fill="url(#E)"/><path d="m689.779 220.932s-7.04-9.452.101-16.77c7.141-7.317 11.911-2.507 12.249-15.245.339-12.738 9.273-18.565 15.33-16.295 0 0 4.194 2.778 3.552 9.046-.643 6.3-2.165 14.973-2.538 23.07-.473 9.519-14.889 41.534-28.695 16.194z" fill="url(#F)"/><path d="m683.721 259.823c-.101 0-.168-.068-.168-.17 0-.237-1.422-24.967-9.611-42.313-9.035-19.14-14.246-32.521-15.43-39.772 0-.101.033-.168.135-.203.101 0 .17.035.203.136 1.218 7.182 6.395 20.529 15.43 39.669 8.189 17.414 9.611 42.213 9.611 42.45 0 .101-.068.203-.17.203z" fill="url(#G)"/><path d="m692.215 257.248c-.102 0-.17-.068-.17-.17 0-.068-.033-6.47 1.759-15.854 1.659-8.638 5.246-21.681 12.962-34.589.033-.067.168-.101.236-.067.067.034.102.169.067.237-7.682 12.873-11.267 25.848-12.925 34.487-1.794 9.35-1.759 15.718-1.759 15.786 0 .102-.103.17-.17.17z" fill="url(#H)"/><path d="m678.611 257.824c-.068 0-.27-.305-.304-.406 0-.035-.846-3.321-3.959-8.843-2.876-5.081-8.189-12.907-17.259-21.41-.015-.016-.028-.034-.037-.055-.008-.02-.013-.042-.013-.064s.005-.044.013-.065c.009-.02.022-.038.037-.054.016-.016.034-.029.055-.037.02-.009.042-.014.064-.014s.044.005.065.014c.02.008.039.021.054.037 9.103 8.505 14.448 16.397 17.326 21.48 3.112 5.555 4.128 9.111 4.128 9.146.033.102-.035.17-.135.203 0 .068-.035.068-.035.068z" fill="url(#I)"/><path d="m974.735 184.209c.642 0 1.15.542 1.15 1.151v9.113c0 .644-.541 1.152-1.15 1.152h-7.412c-.304-.003-.595-.126-.81-.341s-.337-.506-.34-.811v-9.113c0-.643.541-1.151 1.15-1.151zm13.839-6.438c.644 0 1.15.508 1.15 1.119v15.618c0 .609-.541 1.117-1.15 1.117h-7.376c-.149.002-.297-.025-.436-.08-.138-.055-.264-.137-.371-.24-.107-.104-.192-.228-.251-.365-.059-.136-.09-.283-.092-.432v-15.618c0-.611.541-1.119 1.15-1.119z" fill="#0791d6"/><path d="m981.671 172.047c.644 0 1.15.508 1.15 1.118v21.343c0 .609-.541 1.117-1.15 1.117h-7.377c-.149.002-.296-.025-.435-.08-.138-.055-.264-.137-.371-.24-.107-.104-.192-.228-.251-.365-.059-.136-.091-.283-.093-.432v-21.343c0-.61.541-1.118 1.15-1.118z" fill="#0b63ce"/><path d="m973.144 184.208h1.556s1.185-.067 1.185 1.322v9.181s0 .948-1.388.948c0 0-1.184.169-1.387-1.016v-10.4h.034zm8.054-6.437s-1.185-.067-1.185 1.254v15.651s0 .916 1.388.916c0 0 1.184.168 1.387-.983v-16.838z" fill="#0f37a7"/><path d="m928.071 174.486h-79.116c-.359-.001-.702-.145-.956-.399-.253-.254-.396-.598-.397-.957v-2.37c0-.746.609-1.356 1.353-1.356h79.116c.744 0 1.353.61 1.353 1.356v2.37c-.001.359-.143.703-.397.957-.253.254-.597.398-.956.399zm-30.015 9.858h-49.101c-.358-.001-.702-.145-.956-.398-.253-.254-.396-.598-.397-.957v-2.372c0-.744.609-1.355 1.353-1.355h49.101c.744 0 1.353.611 1.353 1.355v2.372c-.001.359-.144.703-.397.957-.254.253-.598.397-.956.398zm11.133 9.859h-60.234c-.359-.002-.702-.145-.956-.4-.253-.254-.396-.598-.397-.956v-2.371c0-.746.609-1.355 1.353-1.355h60.234c.745 0 1.353.609 1.353 1.355v2.371c0 .358-.143.702-.397.956-.253.255-.597.398-.956.4zm7.884 9.857h-68.118c-.358-.001-.702-.144-.956-.398-.253-.254-.396-.598-.397-.957v-2.37c0-.746.609-1.356 1.353-1.356h68.118c.744 0 1.354.61 1.354 1.356v2.37c-.001.359-.144.703-.398.957-.253.254-.597.397-.956.398zm-78.776-29.574c.674 0 1.32-.267 1.797-.744.476-.477.744-1.123.744-1.797s-.268-1.32-.744-1.797c-.477-.477-1.123-.744-1.797-.744-1.403 0-2.538 1.138-2.538 2.54 0 1.404 1.135 2.542 2.538 2.542zm0 9.858c.673 0 1.32-.268 1.796-.744.477-.477.744-1.123.744-1.797s-.267-1.32-.744-1.796c-.476-.477-1.123-.745-1.796-.745-1.403 0-2.538 1.138-2.538 2.541s1.135 2.541 2.538 2.541zm0 9.859c.673 0 1.32-.268 1.796-.745.477-.476.744-1.122.744-1.796s-.267-1.32-.744-1.797c-.476-.476-1.123-.744-1.796-.744-1.403 0-2.538 1.137-2.538 2.541 0 1.403 1.135 2.541 2.538 2.541zm0 9.857c.673 0 1.32-.268 1.796-.744.477-.477.744-1.123.744-1.797s-.267-1.32-.744-1.796c-.476-.477-1.123-.744-1.796-.744-1.403 0-2.538 1.138-2.538 2.54 0 1.404 1.135 2.541 2.538 2.541z" fill="#fff"/></svg>